<?xml version="1.0" encoding="utf-8"?>
<!-- Generator: Adobe Illustrator 26.5.0, SVG Export Plug-In . SVG Version: 6.00 Build 0)  -->
<svg version="1.1" id="Layer_1" xmlns="http://www.w3.org/2000/svg" xmlns:xlink="http://www.w3.org/1999/xlink" x="0px" y="0px"
	 viewBox="0 0 53.1 54" style="enable-background:new 0 0 53.1 54;" xml:space="preserve">
<style type="text/css">
	.st0{fill:#DB0000;}
</style>
<g id="Layer_2_00000180337073478277015510000016271649343176528004_">
	<g>
		<path class="st0" d="M5.4,5.9c0,0-1.8-0.1-2,0.8C3.2,7.5,3.7,8.4,4.8,8.4S6.5,6.2,5.4,5.9z"/>
		<path class="st0" d="M7.7,3.2c-2.3,0.2-2.4,2-1.1,2.3s6.8,0.5,9.9,0s7.9-1,11-0.8s6.8,0.2,8.9,0.2s5.6-0.4,7.5,0.2
			s2.6,0.6,2.7,1.8s-0.2,2.4,0,3.7s0.5,4.4,0.9,4.8s0.8,0.5,0.8-1.1s0.1-7-0.2-7.8s-0.4-3.2-4.1-3.4c-3.7-0.1-13,0-15.3,0
			S18.7,3.2,16,3.3S9.1,3.1,7.7,3.2z"/>
		<path class="st0" d="M2.8,11.6c-0.4,1.2,0.4,6.7,0,10.5s0.1,20.3,0,22.8s1.9,5.7,5.2,5.9c1.9,0.1,5.9-0.3,9.4-0.5
			c2.7-0.1,5.6,0.2,6.1,0c1.2-0.4,1.2-1.6,1.1-2c0-0.3,0-0.5-0.7-0.5C20.3,47.7,8.2,48.2,7.6,48c-0.8-0.2-2.2-3-2.4-4.1
			c-0.1-1.2,0.2-12.8,0.2-15.2s-0.8-6.6-0.7-7.9S6,17,5.8,15.2C5.5,13.4,3.5,9.7,2.8,11.6z"/>
		<path class="st0" d="M29.7,47.8c-1.2,0.2-1.2,0.8-0.6,1.2c1.1,0.5,1.3,1.2,1.6,1.5c0.6,0.6,6.7,0.3,9.2,0.4
			c2.5,0.1,6.7-0.2,7.3-1.7c0.6-1.5,0.9-1.4,1.5-2.9c0.6-1.5,0.6-7.2,0.5-8.2S49,37,49.1,35.6c0-1.4-0.2-4.9-0.4-5.4
			s0.1-1.7,0.1-3.4s0.1-5.2-0.1-5.8s-0.8-1.1-1.4,0s-1.4,3.5-0.8,5s1,1.8,0.5,3s-1,5.2-0.8,6.5c0.2,1.3,0.4,2.4,0.2,3
			c-0.1,0.6,0.1,4.1-0.3,5.8s0.2,3-2.4,3.2S38.7,48,36.3,48C33.8,48,30.3,47.7,29.7,47.8z"/>
		<path class="st0" d="M47.8,16.5c-1.2,0.6-0.5,3.2,0.3,3C49,19.3,48.7,16.1,47.8,16.5z"/>
	</g>
</g>
<g id="Layer_5">
	<g>
		<g>
			<path class="st0" d="M29.8,34.6c0.4,0.4,0.7,0.7,1,1c0,0-0.1,0.1-0.1,0.1c-0.2-0.1-0.5-0.2-0.7-0.3c-0.3-0.3-0.5-0.6-0.7-1
				c-0.9-2.2-1.8-4.4-2.6-6.7c-1.5-4.2-3.3-8.4-5.6-12.3c-1.3-2.3-2.9-4.4-4.3-6.6c0-0.1-0.1-0.1-0.1-0.1c-0.2-0.1-0.5-0.3-0.6-0.2
				c-0.3,0.1-0.3,0.4-0.2,0.7c0.1,0.3,0.3,0.6,0.5,0.9c0.5,0.7,1,1.4,1.5,2.1c0,0,0.1,0.1,0,0.2c-0.1-0.1-0.2-0.2-0.3-0.3
				c-0.8-1-1.5-2-2.3-2.9C15.3,9,15,8.9,14.8,8.7c-0.2-0.2-0.5-0.1-0.5,0.2c0,0.3,0.1,0.7,0.2,0.9c1.3,1.4,2.6,2.8,3.9,4.2
				c0.2,0.3,0.5,0.5,0.9,0.2c0,0,0.1,0,0.3,0c-0.4,0.2-0.6,0.4-0.8,0.5c-0.5-0.5-0.9-1-1.3-1.4c-1.1-1.1-2.1-2.3-3.3-3.4
				c-0.3-0.3-0.8-0.5-1.2-0.7c-0.1-0.1-0.4,0-0.6,0c0,0.2,0,0.4,0.1,0.5c0.6,0.7,1.2,1.3,1.8,1.9c1,1,2,2,2.9,3c0,0,0,0.1,0,0.2
				c-0.2-0.1-0.4-0.2-0.5-0.4c-0.9-0.9-1.8-1.8-2.7-2.8c-0.5-0.5-1.1-0.8-1.8-1c-0.2,0-0.4,0.1-0.6,0.1c0,0.2,0,0.4,0.1,0.6
				c0.5,0.9,1.2,1.5,1.9,2.2c0.6,0.6,1.2,1.2,1.8,1.8c0.1,0.1,0.1,0.2,0.1,0.3c-0.1-0.1-0.3-0.2-0.4-0.3c-0.9-0.9-1.8-1.7-2.7-2.6
				c-0.1-0.1-0.2-0.2-0.3-0.2c-0.2,0-0.4,0-0.6,0c0,0.2,0,0.4,0.1,0.5c0.6,0.6,1.3,1.2,1.9,1.9c0.5,0.5,1,0.9,1.5,1.4
				c0.1,0.1,0.2,0.2,0.2,0.3c0,0-0.1,0.1-0.1,0.1c-0.2-0.1-0.4-0.3-0.6-0.4c-0.8-0.7-1.5-1.4-2.3-2.1c-0.2-0.1-0.4-0.2-0.6-0.2
				c-0.4,0-0.5,0.2-0.4,0.6c0.1,0.2,0.2,0.4,0.3,0.6c0.8,1.1,1.8,2,2.8,2.8c0.1,0.1,0.3,0.2,0.4,0.2c-0.1,0.1-0.2,0.2-0.3,0.3
				c-0.7-0.6-1.4-1.2-2.1-1.8c-0.2-0.1-0.3-0.3-0.5-0.3s-0.5,0-0.5,0.2c-0.1,0.2,0,0.4,0.1,0.6c0.5,0.5,0.9,1,1.5,1.4
				c0.6,0.4,1.2,0.8,1.8,1.1c0.1,0.1,0.2,0.2,0.4,0.3c0,0,0,0.1-0.1,0.1c-0.1,0-0.3-0.1-0.4-0.1c-0.6-0.4-1.3-0.8-1.9-1.2
				c-0.1-0.1-0.3-0.2-0.4-0.2c-0.2,0-0.6,0.1-0.7,0.2c-0.1,0.1-0.1,0.4-0.1,0.6c0.3,0.7,0.8,1.4,1.6,1.7c0.8,0.4,1.6,0.8,2.4,1.2
				c0.1,0,0.2,0.1,0.3,0.2c0,0,0,0.1,0,0.1c-0.2-0.1-0.4-0.1-0.5-0.2c-0.9-0.4-1.7-0.9-2.6-1.3c-0.2-0.1-0.4-0.2-0.6,0
				c-0.2,0.2-0.1,0.5,0.1,0.6c0.8,0.8,1.6,1.8,2.8,2.1c0.2,0.1,0.5,0.2,0.7,0.2c0,0,0,0.1,0,0.1c-0.2,0-0.5-0.1-0.7-0.2
				c-0.6-0.2-1.1-0.4-1.7-0.1c-0.2,0.1-0.4,0.2-0.5,0.4c0.1,0.2,0.2,0.4,0.4,0.5c0.7,0.4,1.4,0.7,2.1,1c0.4,0.2,0.8,0.4,1.2,0.6
				c0,0,0,0.1,0,0.1c-0.1,0-0.3-0.1-0.4-0.1c-0.5-0.2-0.9-0.4-1.4-0.6c-0.1-0.1-0.3-0.1-0.4-0.2c-0.4-0.1-1.1,0.1-1.2,0.4
				c-0.1,0.5,0.2,0.7,0.6,0.9c0.6,0.2,1.2,0.4,1.8,0.6c0.3,0.1,0.6,0.2,0.9,0.2c0,0,0,0.1,0,0.1c-0.2,0-0.3,0-0.5-0.1
				c-0.6-0.2-1.2-0.3-1.8-0.5c-0.2,0-0.4-0.1-0.5,0c-0.2,0.1-0.4,0.3-0.4,0.5c0,0.1,0.2,0.4,0.3,0.5c0.2,0.1,0.4,0.1,0.6,0.2
				c0.6,0.1,1.2,0.1,1.9,0.2c0.1,0,0.3,0.1,0.4,0.1c0,0,0,0.1,0,0.1c-0.1,0-0.2,0-0.3,0c-0.6-0.1-1.1-0.1-1.7-0.2
				c-0.3,0-0.5,0.1-0.5,0.4c0,0.2,0.2,0.4,0.4,0.5c0.2,0.1,0.5,0.1,0.7,0.1c0.7,0.1,1.4,0.1,2.1,0.1V30c-0.1,0-0.3,0-0.4,0
				c-0.5,0-1.1-0.1-1.6-0.1c-0.2,0-0.4,0-0.6,0.1s-0.3,0.3-0.3,0.5c0,0.1,0.2,0.4,0.3,0.4c0.4,0.1,0.9,0.2,1.3,0.2
				c0.4,0.1,0.8,0.1,1.3,0.1v0.2c-0.3,0-0.5,0-0.8,0c-0.3,0-0.5-0.1-0.8-0.1c-0.3,0-0.5,0.1-0.6,0.4c-0.1,0.3,0.1,0.6,0.4,0.6
				c0.6,0.1,1.3,0.2,1.9,0.3c0.2,0,0.4,0,0.5,0.1v0.1c-0.1,0-0.3,0.1-0.4,0.1c-0.5-0.1-0.9-0.1-1.4-0.2c-0.1,0-0.4,0-0.4,0
				c-0.1,0.2-0.1,0.4,0,0.6c0.2,0.4,0.6,0.5,1,0.5c0.5,0,0.9,0,1.4,0c0.1,0,0.3,0,0.4,0c0,0,0,0.1,0,0.1c-0.1,0-0.3,0.1-0.4,0.1
				c-0.5,0-0.9,0-1.4,0c-0.1,0-0.3,0.1-0.4,0.2c0,0.1,0,0.3,0.1,0.4c0.2,0.3,0.5,0.5,0.9,0.4c0.9-0.2,1.9-0.4,2.8-0.5
				c0.2,0,0.3-0.1,0.5-0.1c0,0,0,0.1,0,0.1c-0.1,0.1-0.3,0.2-0.4,0.2c-0.7,0.1-1.3,0.2-2,0.4c-0.2,0-0.3,0.2-0.5,0.4
				c0.2,0.2,0.3,0.3,0.5,0.5c0.1,0.1,0.3,0,0.5,0c0.7-0.2,1.5-0.3,2.2-0.5c0.4-0.1,0.7-0.2,0.8-0.7c0.2,0.2,0.3,0.5,0.4,0.7
				c-1,0.2-1.9,0.5-2.9,0.7c-0.3,0.1-0.3,0.2-0.2,0.5c0.2,0.4,0.8,0.7,1.2,0.5c0.6-0.2,1.2-0.4,1.8-0.5c0.1,0,0.2,0,0.3,0
				c-0.8,0.5-1.7,0.6-2.6,0.9c0.1,0.4,0.3,0.5,0.6,0.5c1.2-0.1,2.2-0.5,3.3-1c0.1-0.1,0.3-0.1,0.5-0.2c0,0,0,0.1,0.1,0.1
				c-0.1,0.1-0.2,0.2-0.4,0.3c-1,0.5-2.1,0.9-3.3,1c-0.9,0.1-1.7,0.5-2.6,0.6c-1.3,0.2-2.6,0.2-3.9,0.2c-0.8,0-1.6,0.1-2.3,0.5
				c-0.2,0.1-0.5,0.2-0.4,0.5c0.1,0.4,0.4,0.2,0.6,0.1c0.5-0.1,1.1-0.3,1.6-0.4c0,0.1,0,0.1,0.1,0.2c-0.1,0-0.2,0.1-0.4,0.1
				c-0.4,0.1-0.7,0.1-1,0.3c-0.1,0.1-0.2,0.2-0.3,0.4c0.2,0.1,0.3,0.2,0.5,0.2c0.5-0.1,1-0.3,1.5-0.4c0.1,0,0.3-0.1,0.4-0.1
				c0,0,0,0.1,0,0.1C14,40.7,13.5,40.8,13,41c0.2,0.4,0.4,0.5,0.8,0.4c0.6-0.2,1.2-0.4,1.8-0.5c-0.4,0.2-0.8,0.4-1.3,0.7
				c0.2,0.2,0.4,0.2,0.6,0.1c0.8-0.4,1.6-0.8,2.4-1.1c0.2-0.1,0.3-0.1,0.5-0.1c-0.2,0.1-0.4,0.2-0.6,0.4c-0.2,0.1-0.3,0.3-0.1,0.5
				c0.1,0.1,0.2,0.2,0.2,0.3c0.1,0.2,0.4,0.3,0.2,0.6c-0.2,0.3-0.5,0.3-0.8,0.2c-0.4-0.2-1,0.1-1.2,0.5c0.2,0,0.4,0,0.6,0
				c0.1,0,0.2,0.1,0.3,0.1c-0.1,0.1-0.1,0.2-0.2,0.3c-0.4,0.2-0.9,0.4-1.4,0.7c0.8,0.2,1.4-0.2,2.2-0.5c-0.7,0.7-1.6,0.7-2.4,0.9
				v0.1c0.1,0.1,0.3,0.2,0.4,0.1c0.8-0.2,1.7-0.4,2.5-0.6c0.1,0,0.2-0.1,0.2-0.2c0.6-0.7,1.2-1.3,1.9-2c-0.8,0.2-1.1,1-1.7,1.3
				c0.2-0.7,1.2-1.5,1.9-1.4c2,0.1,4.1,0.3,6.1,0.5c0.7,0.1,1.5,0,2.2,0c0.8,0,1.5,0,2.3,0c1.2,0,2.5,0,3.7-0.1
				c0.2,0,0.5-0.1,0.8-0.2c-0.1-0.1-0.2-0.2-0.2-0.2c-0.9-0.3-1.6-1-2.2-1.8c-1.3-1.7-0.4-3.7,0.9-4.5c0.3-0.2,0.7-0.3,1.1-0.5
				c0.6-0.2,1.1,0.1,1.5,0.4c0.3,0.2,0.5,0.1,0.7-0.1C34.7,33.8,32.4,33.9,29.8,34.6z M22.9,38.3c0,0.1,0,0.1,0.1,0.2
				c-0.3,0.1-0.5,0.2-0.8,0.2c0-0.1,0-0.1-0.1-0.2C22.4,38.5,22.7,38.4,22.9,38.3z M19.2,41.1c0-0.1,0-0.1,0-0.2
				c0.3,0,0.5-0.1,0.8-0.1c0,0.1,0,0.1,0,0.2C19.8,41,19.5,41,19.2,41.1z M19.5,40.2c0.2-0.4,0.5-0.5,0.9-0.2
				C20.1,40.1,19.8,40.1,19.5,40.2z M20.2,39.4c0-0.1,0-0.1,0-0.2c0.3-0.1,0.7-0.1,1-0.2l0,0.2L20.2,39.4z M21.9,39.9
				c0-0.1,0-0.1,0-0.2c0.2,0,0.5-0.1,0.7-0.1l0,0.2C22.4,39.9,22.2,39.9,21.9,39.9z M22.9,41.7v-0.2h0.9c0,0,0,0.1,0,0.1
				C23.5,41.6,23.2,41.6,22.9,41.7z M23.3,40.3c0-0.1,0-0.1,0-0.2c0.2,0,0.5,0,0.7-0.1c0,0.1,0,0.1,0,0.2
				C23.8,40.3,23.5,40.3,23.3,40.3z M29.8,37.2v0.1h-1v-0.1H29.8z M28.5,35.1c0.3,0.2,0.6,0.4,0.9,0.6c0,0-0.1,0.1-0.1,0.1
				c-0.3-0.2-0.6-0.3-0.9-0.5C28.5,35.2,28.5,35.1,28.5,35.1z M27.2,31.2c-0.2-0.2-0.5-0.3-0.7-0.5C26.9,30.6,27.2,30.8,27.2,31.2z
				 M25.2,30c0-0.1,0-0.1,0-0.2c0.3,0,0.5,0,0.8,0c0,0.1,0,0.1,0,0.2C25.7,30.1,25.5,30.1,25.2,30z M25.5,31.3
				c-0.3,0-0.5,0.1-0.8,0.1C25,31,25.2,31,25.5,31.3z M25.7,34.2c0.2,0.2,0.3,0.3,0.5,0.5c0,0-0.1,0.1-0.1,0.1
				c-0.2-0.2-0.3-0.3-0.5-0.5C25.6,34.3,25.7,34.2,25.7,34.2z M26.2,35.6c0.2,0.2,0.4,0.3,0.6,0.5c0,0-0.1,0.1-0.1,0.1
				c-0.3,0-0.5-0.2-0.6-0.4C26.2,35.7,26.2,35.6,26.2,35.6z M26.2,28.6c0.1,0.1,0.2,0.2,0.3,0.4c0,0-0.1,0.1-0.1,0.1
				c-0.2-0.1-0.4-0.3-0.6-0.4c0-0.1,0-0.1,0-0.1C25.9,28.5,26.1,28.5,26.2,28.6z M25,25.4c0.2,0.1,0.3,0.3,0.5,0.4
				c-0.1,0.1-0.1,0.1-0.1,0.2c-0.2-0.1-0.3-0.3-0.5-0.4C24.9,25.5,24.9,25.4,25,25.4z M25.3,27.5c0,0.1,0,0.1,0,0.2
				c-0.2,0.1-0.5,0.2-0.8,0.3c0-0.2,0.1-0.4,0.2-0.5C24.9,27.5,25.1,27.5,25.3,27.5z M23.9,23.3c0.2,0,0.4,0.1,0.5,0.1
				c0,0,0,0.1-0.1,0.1h-0.8C23.6,23.4,23.7,23.3,23.9,23.3z M23.7,26.1c0.2-0.1,0.4,0,0.5,0c0,0,0,0.1,0,0.1
				c-0.3,0.1-0.6,0.2-0.9,0.3C23.4,26.4,23.5,26.2,23.7,26.1z M22.3,25.8c-0.1-0.3,0-0.6,0.3-0.7s0.5-0.1,0.7,0.4
				C22.9,25.4,22.5,25.4,22.3,25.8z M23.1,21.5c0.1,0,0.2,0.1,0.4,0.2c0,0,0,0.1-0.1,0.1h-0.8c0,0,0-0.1,0-0.1
				C22.7,21.7,22.9,21.5,23.1,21.5z M22.9,23c-0.4,0.2-0.6,0.3-1,0.5c0-0.3,0.2-0.5,0.4-0.6C22.6,22.8,22.7,22.9,22.9,23z
				 M21.4,21.2c0.1-0.5,0.4-0.7,0.9-0.5C22,20.9,21.7,21.1,21.4,21.2z M19.2,26.8c0.2-0.1,0.4-0.1,0.5,0.1c-0.3,0.2-0.6,0.3-0.9,0.5
				C18.8,27.1,18.9,26.9,19.2,26.8z M18.5,24.5c0.2-0.5,0.5-0.5,0.8-0.2C19,24.4,18.8,24.5,18.5,24.5z M19.2,25.8
				c0-0.4,0.1-0.6,0.5-0.7c0.3,0,0.5,0.1,0.5,0.5C19.8,25.3,19.5,25.5,19.2,25.8z M19.5,19.9c0-0.2,0.1-0.4,0.4-0.6
				c0.1-0.1,0.3-0.1,0.5-0.2C20,19.4,19.7,19.6,19.5,19.9z M20.5,21c0,0.1,0,0.1,0,0.2c-0.3,0.2-0.6,0.4-0.9,0.6
				c-0.1-0.3,0.1-0.5,0.2-0.6C20,21,20.2,21,20.5,21z M20.1,24c0.1-0.5,0.2-0.5,0.9-0.4C20.6,23.7,20.4,23.9,20.1,24z M20.9,25.9
				c0.2-0.1,0.4,0,0.5,0V26c-0.3,0.1-0.5,0.3-0.8,0.4C20.5,26.2,20.6,26,20.9,25.9z M20.7,22.6c0,0-0.1-0.1-0.1-0.1
				c0.2-0.1,0.4-0.3,0.6-0.3c0.1,0,0.2,0.1,0.4,0.2C21.3,22.5,21,22.6,20.7,22.6z M21.4,19.2c0.2-0.1,0.4-0.1,0.6-0.2
				c0,0.1,0,0.1,0,0.2c-0.3,0.1-0.6,0.3-0.9,0.4c0,0-0.1,0-0.1,0C21.2,19.5,21.3,19.3,21.4,19.2z M21.2,17.6
				c-0.3,0.2-0.6,0.4-0.9,0.6c-0.1-0.3,0.1-0.5,0.3-0.6C20.8,17.5,21,17.4,21.2,17.6z M19.9,15.4c0.1,0,0.3,0.1,0.5,0.1
				c-0.4,0.2-0.7,0.4-1.1,0.6C19.4,15.7,19.6,15.5,19.9,15.4z M19,17.3c0.1-0.2,0.4-0.3,0.6,0c-0.5,0.1-0.7,0.4-0.7,1
				C18.6,17.9,18.8,17.6,19,17.3z M18.5,15.5c-0.1,0.4-0.1,0.8-0.2,1.2C18,16.2,18,15.7,18.5,15.5z M18.1,19.3
				c0.1-0.1,0.4-0.1,0.6-0.1c0,0.1,0.1,0.1,0.1,0.2c-0.5,0-0.8,0.3-0.9,0.8C17.8,19.8,17.8,19.5,18.1,19.3z M18.8,20.9
				c-0.3,0.3-0.5,0.6-0.8,0.9c-0.1-0.3,0-0.6,0.2-0.8C18.4,20.9,18.5,20.7,18.8,20.9z M17.3,17.8c0.1-0.1,0.3-0.2,0.5-0.2
				c0,0,0,0.1,0.1,0.1c-0.2,0.2-0.4,0.5-0.7,0.7C17.2,18.2,17.2,18,17.3,17.8z M17,16.3c-0.2,0.3-0.3,0.5-0.4,0.7
				C16.4,16.6,16.6,16.4,17,16.3z M16.2,18.9c-0.3-0.4-0.3-0.7,0-0.9V18.9z M16.3,20.5c0.1-0.2,0.1-0.5,0.2-0.6
				c0.1-0.1,0.3-0.1,0.5-0.2c0,0,0,0.1,0,0.1c-0.2,0.3-0.4,0.5-0.6,0.8C16.4,20.6,16.4,20.6,16.3,20.5z M16.7,22
				c0.1-0.2,0.4-0.3,0.5-0.4c0,0,0,0.1,0.1,0.1c-0.2,0.3-0.4,0.6-0.6,0.8C16.6,22.4,16.6,22.2,16.7,22z M16.8,24.8
				c0-0.5,0.3-0.8,0.7-0.6C17.2,24.3,17,24.5,16.8,24.8z M17.9,25.1c0.1,0,0.2,0,0.2,0.1c0,0.1,0,0.2-0.1,0.2
				c-0.2,0.2-0.4,0.5-0.6,0.7C17.3,25.8,17.6,25.1,17.9,25.1z M17.5,27.7c-0.1-0.3-0.1-0.5,0.2-0.7c0.1-0.1,0.2,0,0.4-0.1
				C17.9,27.3,17.7,27.5,17.5,27.7z M18.5,22.8c0.1-0.1,0.3,0,0.5,0c-0.4,0.3-0.6,0.5-0.9,0.7C18.1,23.2,18.3,23,18.5,22.8z
				 M18.4,28.8c0,0-0.1-0.1-0.1-0.1c0.1-0.2,0.2-0.4,0.4-0.5c0.1-0.1,0.2,0,0.4,0c0,0,0,0.1,0,0.1C18.8,28.5,18.6,28.7,18.4,28.8z
				 M18.8,32.2c0,0-0.1,0-0.1,0c0-0.2,0-0.4,0-0.7c0.1,0,0.1,0,0.2,0L18.8,32.2C18.8,32.2,18.8,32.2,18.8,32.2z M18.7,30.4
				c-0.1-0.2,0-0.4,0.2-0.6c0.1-0.1,0.3-0.1,0.4-0.1c0,0,0,0.1,0,0.1C19.1,30,18.9,30.2,18.7,30.4z M19.9,28.7c0,0,0.1,0.1,0.1,0.1
				c-0.2,0.1-0.4,0.3-0.5,0.4c-0.1-0.1-0.1-0.1-0.1-0.2C19.6,29,19.8,28.8,19.9,28.7z M19.8,32.9c-0.1,0-0.1,0-0.2,0
				c0.1-0.2,0.1-0.5,0.2-0.8c0.1,0,0.1,0,0.2,0.1C19.9,32.4,19.8,32.7,19.8,32.9z M19.9,31.1c-0.1-0.4,0-0.5,0.4-0.5
				C20.2,30.7,20.1,30.9,19.9,31.1z M20.3,28c0.1-0.2,0.2-0.4,0.4-0.5c0.1-0.1,0.3,0,0.5,0v0.1c-0.2,0.2-0.5,0.3-0.7,0.5
				C20.3,28,20.3,28,20.3,28z M21.1,33.6c-0.1,0-0.4,0-0.5,0c0-0.2-0.2-0.8-0.2-1c0.1,0,0.4,0,0.4,0L21.1,33.6z M20.8,32
				c-0.1-0.6,0.1-0.8,0.6-1C21.2,31.4,21,31.7,20.8,32z M20.8,29.3c-0.1-0.3,0.1-0.5,0.3-0.5c0.1,0,0.3,0,0.5,0.1
				C21.3,29,21.1,29.2,20.8,29.3z M21.2,24.7c0.1-0.2,0.2-0.4,0.4-0.4c0.2,0,0.3,0.1,0.5,0.2c0,0,0,0.1,0,0.1
				C21.8,24.7,21.5,24.7,21.2,24.7z M22.6,27c-0.3,0.1-0.5,0.1-0.7,0.2C22,26.8,22.2,26.8,22.6,27z M22.2,33.7
				c-0.3-0.4-0.3-0.5,0.1-0.7C22.3,33.2,22.2,33.4,22.2,33.7z M22.1,30.5c-0.2-0.4-0.1-0.7,0.3-0.8C22.3,29.9,22.2,30.2,22.1,30.5z
				 M22.4,28.6c-0.1-0.2,0-0.4,0.3-0.6c0.2-0.1,0.4,0,0.6,0.2C22.9,28.3,22.7,28.4,22.4,28.6z M23.1,34.4c-0.3-0.3-0.3-0.5,0.1-0.7
				C23.2,34,23.2,34.2,23.1,34.4z M23.4,32.7c-0.2-0.4-0.1-0.5,0.4-0.6C23.7,32.3,23.5,32.5,23.4,32.7z M23.2,30.9
				c0.3-0.4,0.5-0.4,0.8,0H23.2z M23.8,29.4c0.4-0.2,0.6,0,0.6,0.4C24.2,29.6,24,29.5,23.8,29.4z M23.8,24.6c0,0,0-0.1,0-0.1
				c0.2-0.1,0.3-0.2,0.5-0.2c0.1,0,0.2,0.1,0.4,0.1c0,0,0,0.1-0.1,0.1C24.3,24.6,24,24.6,23.8,24.6z M24.6,34.2
				c0.2,0.2,0.3,0.3,0.5,0.6C24.5,34.8,24.4,34.6,24.6,34.2z M24.9,36.1c0,0,0.1-0.1,0.1-0.1c0.2,0.2,0.4,0.3,0.6,0.5
				c0,0.1-0.1,0.1-0.1,0.2C25.3,36.5,25.1,36.3,24.9,36.1z M25.6,37.7c0.5,0,0.7,0,0.9,0.4c-0.3-0.1-0.6-0.2-0.9-0.3
				C25.6,37.7,25.6,37.7,25.6,37.7z M26.9,40.7c-0.3,0-0.6,0.1-1,0.1v-0.2c0.3,0,0.6,0,1-0.1V40.7z M27,34.3c0.1,0,0.1-0.1,0.2-0.1
				c0.1,0.2,0.3,0.3,0.4,0.5c-0.1,0-0.1,0.1-0.2,0.1C27.3,34.6,27.2,34.5,27,34.3z M27.2,39.6h1v0.1L27.2,39.6
				C27.2,39.6,27.2,39.6,27.2,39.6z M27.7,40.8c0-0.1,0-0.1,0-0.2c0.3,0,0.6,0,1-0.1c0,0.1,0,0.1,0,0.2
				C28.4,40.7,28.1,40.8,27.7,40.8z M28.3,38.1c0-0.1,0-0.1,0-0.2h0.8c0,0,0,0.1,0,0.1C28.8,38.1,28.5,38.1,28.3,38.1z M29.2,39.9
				c0-0.1,0-0.1,0-0.2c0.3,0,0.7-0.1,1-0.1c0,0.1,0,0.1,0,0.2C29.9,39.8,29.5,39.8,29.2,39.9z M31.5,41.6h-0.9v-0.1L31.5,41.6
				L31.5,41.6z M30.9,40.4c0-0.1,0-0.1,0-0.2c0.2,0,0.5-0.1,0.7-0.1c0,0.1,0,0.1,0,0.2C31.4,40.4,31.1,40.4,30.9,40.4z M29.9,38.8
				c0.5-0.1,1-0.2,1.5-0.3c0.1,0,0.1,0,0.2,0C31.1,39,30.3,39.1,29.9,38.8z M31,34.9c0-0.1,0-0.1,0-0.2c0.3,0,0.5-0.1,0.8-0.1
				c0,0,0,0.1,0,0.1C31.6,34.8,31.3,34.8,31,34.9z"/>
			<path class="st0" d="M40.8,20.8c-0.4-1.2-1-2.4-1.9-3.4c-0.2-0.2-0.5-0.4-0.6-0.3c-0.3,0.1-0.3,0.5-0.2,0.8
				c0.2,0.6,0.5,1.1,0.7,1.7c0.2,0.4,0.3,0.7,0.5,1.1c0,0-0.1,0-0.1,0.1c-0.2-0.4-0.4-0.8-0.5-1.2c-0.4-1-1.2-1.5-2-2
				c-0.1-0.1-0.3,0-0.4,0c-0.1,0.1-0.1,0.3,0,0.4c0.2,0.4,0.5,0.8,0.8,1.2c-0.5-0.4-0.9-0.7-1.3-1c-0.3-0.2-0.6-0.3-0.9-0.5
				c-0.1,0-0.3,0-0.4,0c0,0.1,0,0.3,0,0.4c0.3,0.5,0.6,0.9,1,1.4c0.3,0.4,0.7,0.7,1,1.1c0.1,0.1,0.2,0.2,0.3,0.3
				c0,0-0.1,0.1-0.1,0.1c-0.1-0.1-0.3-0.2-0.4-0.4c-0.9-1.1-2-1.8-3.4-2.2c-0.2,0-0.4,0-0.6,0c0,0.2,0,0.5,0.2,0.6
				c0.7,0.7,1.4,1.4,2.1,2.1c0.4,0.4,0.8,0.9,1.3,1.3c0.1,0.1,0.1,0.2,0.2,0.3c0,0-0.1,0.1-0.1,0.1c-0.1-0.1-0.2-0.2-0.3-0.2
				c-0.7-0.7-1.4-1.5-2.2-2.1c-0.5-0.4-1.3-0.4-1.9-0.5c-0.3-0.1-0.4,0.3-0.2,0.5c0.2,0.2,0.5,0.4,0.8,0.6c0.7,0.5,1.4,1,2.1,1.5
				c0.2,0.1,0.3,0.3,0.5,0.5c0,0-0.1,0.1-0.1,0.1c-0.1-0.1-0.3-0.2-0.4-0.3c-0.7-0.5-1.3-1.1-2-1.6c-0.3-0.2-0.7-0.3-1.1-0.4
				c-0.4-0.1-0.9-0.1-1.3-0.1c-0.2,0-0.4,0.2-0.6,0.3c0.1,0.2,0.2,0.5,0.4,0.5c0.7,0.4,1.5,0.8,2.2,1.1c0.1,0.1,0.3,0.2,0.4,0.3
				c-0.1,0-0.2,0-0.3-0.1c-0.5-0.2-1-0.5-1.5-0.7c-0.5-0.2-1-0.2-1.5-0.3c-0.2,0-0.3,0.2-0.5,0.3c0.1,0.1,0.2,0.3,0.4,0.3
				c0.6,0.3,1.2,0.5,1.8,0.7c0.2,0.1,0.3,0.2,0.5,0.2c0,0,0,0.1,0,0.1c-0.1,0-0.2,0-0.3,0c-0.5-0.2-0.9-0.4-1.4-0.6
				c-0.4-0.2-0.9-0.3-1.4-0.1c-0.2,0.1-0.3,0.2-0.5,0.3c0.1,0.1,0.2,0.3,0.4,0.4c0.5,0.2,1,0.3,1.5,0.5c0.4,0.1,0.9,0.3,1.3,0.4
				c0,0,0,0.1,0,0.1c-0.2,0-0.4,0-0.6-0.1c-0.6-0.2-1.2-0.4-1.8-0.6c-0.1-0.1-0.3-0.1-0.5-0.1c-0.2,0-0.4,0.1-0.3,0.4
				c1,2.6,2,5.3,3,8c0.2,0.4,0.5,0.4,0.8,0.4c1-0.1,2-0.3,2.9-0.3c0.7,0,1.1-0.2,1.4-0.9c0.4-0.8,1-1.5,1.5-2.3
				c0.7-1.2,1.7-2.3,2.6-3.4c1-1.3,1.5-2.8,1.5-4.4C40.9,21.4,40.9,21.1,40.8,20.8z M28.6,26.8c-0.1,0-0.1-0.1-0.2-0.1
				c0.1-0.2,0.3-0.4,0.4-0.5c0,0,0.1,0.1,0.1,0.1C28.9,26.4,28.7,26.6,28.6,26.8z M29.9,26.4c0.2-0.2,0.3-0.4,0.5-0.6
				c0.1,0,0.1,0.1,0.1,0.1c-0.2,0.2-0.3,0.4-0.5,0.6C30,26.5,30,26.5,29.9,26.4z M30.2,30.4c0,0-0.1-0.1-0.1-0.1
				c0-0.3,0.1-0.5,0.6-0.5C30.5,30.1,30.4,30.3,30.2,30.4z M30.4,28.8c-0.1,0-0.1-0.1-0.2-0.1c0.1-0.2,0.2-0.5,0.3-0.7
				c0.1,0,0.1,0.1,0.2,0.1C30.6,28.4,30.5,28.6,30.4,28.8z M32.8,24.8c-0.2,0.2-0.5,0.4-0.8,0.6C32.1,24.9,32.4,24.6,32.8,24.8z
				 M33.2,26c-0.2,0.3-0.4,0.6-0.6,0.9C32.5,26.4,32.8,26,33.2,26z M31,27.3c-0.1-0.5,0.1-0.8,0.6-0.8C31.4,26.8,31.2,27,31,27.3z
				 M31.6,29.3c0.2-0.1,0.4-0.3,0.6-0.4c0,0.1,0.1,0.1,0.1,0.1c-0.2,0.1-0.4,0.3-0.6,0.4C31.7,29.4,31.6,29.4,31.6,29.3z M32.7,29.9
				c0,0.1,0,0.1,0.1,0.2c-0.2,0.1-0.4,0.2-0.7,0.3C32.1,29.9,32.4,29.9,32.7,29.9z M32.5,31.1c0.4-0.2,0.6-0.2,0.7,0.2
				C33,31.3,32.8,31.2,32.5,31.1z M33,27.8c0-0.1-0.1-0.1-0.1-0.2c0.2-0.1,0.4-0.2,0.6-0.3c0,0.1,0.1,0.1,0.1,0.2
				C33.4,27.6,33.2,27.7,33,27.8z M34,24.5c0.2-0.1,0.4-0.3,0.6-0.4c0,0.1,0.1,0.1,0.1,0.2c-0.2,0.1-0.4,0.3-0.6,0.4
				C34.1,24.6,34.1,24.6,34,24.5z M35.2,25.4c-0.2,0.2-0.5,0.4-0.8,0.6C34.4,25.5,34.7,25.2,35.2,25.4z M34.6,27.2
				c0.2,0.2,0.3,0.4,0.5,0.5c0,0-0.1,0.1-0.1,0.1c-0.2-0.2-0.3-0.3-0.5-0.5L34.6,27.2z M35.6,29.1c-0.2-0.1-0.5-0.2-0.8-0.3
				c0-0.1,0-0.1,0.1-0.1c0.3-0.1,0.6,0.1,0.8,0.3C35.6,29,35.6,29.1,35.6,29.1z M36.5,28.5c-0.2-0.2-0.3-0.4-0.5-0.6
				c0,0,0.1-0.1,0.1-0.1c0.3,0.1,0.5,0.3,0.5,0.6C36.6,28.5,36.5,28.5,36.5,28.5z M38.8,22.6c-0.3,0.1-0.6,0.1-0.9,0.2
				C38.2,22.4,38.4,22.3,38.8,22.6z M37.5,22c-0.3,0.1-0.5,0.1-0.8,0.2C36.9,21.8,37.3,21.7,37.5,22z M37.3,27.5
				c-0.2-0.2-0.3-0.4-0.5-0.5C37.2,26.9,37.4,27,37.3,27.5z M37.4,24.2c0.1-0.5,0.3-0.6,0.7-0.4C37.9,23.9,37.7,24,37.4,24.2z
				 M38.3,25.1c0.2-0.4,0.5-0.4,0.8-0.3c0,0,0,0.1,0,0.1C38.9,24.9,38.6,25,38.3,25.1z M39.2,21.5h-0.9c0,0-0.1-0.1-0.1-0.1
				c0.2-0.1,0.4-0.2,0.6-0.2C38.9,21.2,39.1,21.3,39.2,21.5C39.2,21.4,39.2,21.4,39.2,21.5z M40,23.7h-0.7v-0.2c0.2,0,0.4,0,0.7,0.1
				C40,23.6,40,23.6,40,23.7z"/>
			<path class="st0" d="M38.1,36.8c-0.1-0.5-0.4-0.7-0.8-0.4c-0.2,0.1-0.5,0.1-0.6,0c-0.8-0.5-1.5-0.4-2.2,0c-0.8,0.5-1.2,1.3-1.2,2
				c0,1.2,0.6,1.9,1.3,2.5c0.3,0.2,0.7,0.4,1.1,0.6c0.4,0.2,0.8,0,1.1-0.3c0.5-0.5,0.8-1.1,0.9-1.8c0.1-0.6,0.2-1.2,0.4-1.8
				C38.1,37.3,38.1,37,38.1,36.8z M35.6,39c-0.3,0-0.6-0.3-0.6-0.6s0.3-0.6,0.6-0.6s0.6,0.2,0.6,0.6C36.2,38.7,35.9,39,35.6,39z
				 M37.2,40c-0.1,0.6-0.6,0.9-0.6,0.9L36.1,40l0.2-0.1l0.3,0.7c0.4-0.3,0.2-1.2,0.2-1.2l0.3-0.2C37.1,39.1,37.3,39.4,37.2,40z"/>
		</g>
	</g>
</g>
</svg>
