<?xml version="1.0" encoding="utf-8"?>
<!-- Generator: Adobe Illustrator 26.5.0, SVG Export Plug-In . SVG Version: 6.00 Build 0)  -->
<svg version="1.1" id="Layer_1" xmlns="http://www.w3.org/2000/svg" xmlns:xlink="http://www.w3.org/1999/xlink" x="0px" y="0px"
	 viewBox="0 0 288 60" style="enable-background:new 0 0 288 60;" xml:space="preserve">
<style type="text/css">
	.st0{fill:#DB0000;}
	.st1{fill:#FFFFFF;}
</style>
<g id="Layer_2_00000003805331627364855710000002734760412655667130_">
	<g>
		<path class="st0" d="M5.4,8.9c0,0-1.8-0.1-2,0.8c-0.2,0.8,0.3,1.8,1.4,1.7S6.5,9.2,5.4,8.9z"/>
		<path class="st0" d="M7.7,6.2c-2.3,0.2-2.4,2-1.1,2.3s6.8,0.5,9.9,0s7.9-1,11-0.8s6.8,0.2,8.9,0.2s5.6-0.4,7.5,0.2
			s2.6,0.6,2.7,1.8s-0.2,2.4,0,3.7s0.5,4.4,0.9,4.8s0.8,0.5,0.8-1.1s0.1-7-0.2-7.8S47.7,6.3,44,6.1c-3.7-0.1-13,0-15.3,0
			S18.7,6.2,16,6.3S9.1,6.1,7.7,6.2z"/>
		<path class="st0" d="M2.8,14.6c-0.4,1.2,0.4,6.7,0,10.5s0.1,20.3,0,22.8s1.9,5.7,5.2,5.9c1.9,0.1,5.9-0.3,9.4-0.5
			c2.7-0.1,5.6,0.2,6.1,0c1.2-0.4,1.2-1.6,1.1-2c0-0.3,0-0.5-0.7-0.5C20.3,50.7,8.2,51.2,7.6,51c-0.8-0.2-2.2-3-2.4-4.1
			c-0.1-1.2,0.2-12.8,0.2-15.2s-0.8-6.6-0.7-7.9S6,20,5.8,18.2C5.5,16.4,3.5,12.7,2.8,14.6z"/>
		<path class="st0" d="M29.7,50.8c-1.2,0.2-1.2,0.8-0.6,1.2c1.1,0.5,1.3,1.2,1.6,1.5c0.6,0.6,6.7,0.3,9.2,0.4
			c2.5,0.1,6.7-0.2,7.3-1.7s0.9-1.4,1.5-2.9s0.6-7.2,0.5-8.2S49,40,49.1,38.6c0-1.4-0.2-4.9-0.4-5.4s0.1-1.7,0.1-3.4
			s0.1-5.2-0.1-5.8s-0.8-1.1-1.4,0s-1.4,3.5-0.8,5s1,1.8,0.5,3s-1,5.2-0.8,6.5s0.4,2.4,0.2,3c-0.1,0.6,0.1,4.1-0.3,5.8
			s0.2,3-2.4,3.2s-5,0.5-7.4,0.5C33.8,51,30.3,50.7,29.7,50.8z"/>
		<path class="st0" d="M47.8,19.5c-1.2,0.6-0.5,3.2,0.3,3C49,22.3,48.7,19.1,47.8,19.5z"/>
	</g>
</g>
<g id="Layer_5">
	<g>
		<g>
			<path class="st0" d="M29.8,37.6c0.4,0.4,0.7,0.7,1,1l-0.1,0.1c-0.2-0.1-0.5-0.2-0.7-0.3c-0.3-0.3-0.5-0.6-0.7-1
				c-0.9-2.2-1.8-4.4-2.6-6.7c-1.5-4.2-3.3-8.4-5.6-12.3c-1.3-2.3-2.9-4.4-4.3-6.6c0-0.1-0.1-0.1-0.1-0.1c-0.2-0.1-0.5-0.3-0.6-0.2
				c-0.3,0.1-0.3,0.4-0.2,0.7s0.3,0.6,0.5,0.9c0.5,0.7,1,1.4,1.5,2.1c0,0,0.1,0.1,0,0.2c-0.1-0.1-0.2-0.2-0.3-0.3
				c-0.8-1-1.5-2-2.3-2.9c-0.2-0.2-0.4-0.4-0.6-0.5c-0.2-0.2-0.5-0.1-0.5,0.2s0.1,0.7,0.2,0.9c1.3,1.4,2.6,2.8,3.9,4.2
				c0.2,0.3,0.5,0.5,0.9,0.2c0,0,0.1,0,0.3,0c-0.4,0.2-0.6,0.4-0.8,0.5c-0.5-0.5-0.9-1-1.3-1.4c-1.1-1.1-2.1-2.3-3.3-3.4
				c-0.3-0.3-0.8-0.5-1.2-0.7c-0.1-0.1-0.4,0-0.6,0c0,0.2,0,0.4,0.1,0.5c0.6,0.7,1.2,1.3,1.8,1.9c1,1,2,2,2.9,3c0,0,0,0.1,0,0.2
				c-0.2-0.1-0.4-0.2-0.5-0.4c-0.9-0.9-1.8-1.8-2.7-2.8c-0.5-0.5-1.1-0.8-1.8-1c-0.2,0-0.4,0.1-0.6,0.1c0,0.2,0,0.4,0.1,0.6
				c0.5,0.9,1.2,1.5,1.9,2.2c0.6,0.6,1.2,1.2,1.8,1.8c0.1,0.1,0.1,0.2,0.1,0.3c-0.1-0.1-0.3-0.2-0.4-0.3c-0.9-0.9-1.8-1.7-2.7-2.6
				c-0.1-0.1-0.2-0.2-0.3-0.2c-0.2,0-0.4,0-0.6,0c0,0.2,0,0.4,0.1,0.5c0.6,0.6,1.3,1.2,1.9,1.9c0.5,0.5,1,0.9,1.5,1.4
				c0.1,0.1,0.2,0.2,0.2,0.3L15,19.7c-0.2-0.1-0.4-0.3-0.6-0.4c-0.8-0.7-1.5-1.4-2.3-2c-0.2-0.1-0.4-0.2-0.6-0.2
				c-0.4,0-0.5,0.2-0.4,0.6c0.1,0.2,0.2,0.4,0.3,0.6c0.8,1.1,1.8,2,2.8,2.8c0.1,0.1,0.3,0.2,0.4,0.2c-0.1,0.1-0.2,0.2-0.3,0.3
				c-0.7-0.6-1.4-1.2-2.1-1.8c-0.2-0.1-0.3-0.3-0.5-0.3s-0.5,0-0.5,0.2c-0.1,0.2,0,0.4,0.1,0.6c0.5,0.5,0.9,1,1.5,1.4
				s1.2,0.8,1.8,1.1c0.1,0.1,0.2,0.2,0.4,0.3c0,0,0,0.1-0.1,0.1s-0.3-0.1-0.4-0.1c-0.6-0.4-1.3-0.8-1.9-1.2
				c-0.1-0.1-0.3-0.2-0.4-0.2c-0.2,0-0.6,0.1-0.7,0.2c-0.1,0.1-0.1,0.4-0.1,0.6c0.3,0.7,0.8,1.4,1.6,1.7c0.8,0.4,1.6,0.8,2.4,1.2
				c0.1,0,0.2,0.1,0.3,0.2v0.1c-0.2-0.1-0.4-0.1-0.5-0.2c-0.9-0.4-1.7-0.9-2.6-1.3c-0.2-0.1-0.4-0.2-0.6,0c-0.2,0.2-0.1,0.5,0.1,0.6
				c0.8,0.8,1.6,1.8,2.8,2.1c0.2,0.1,0.5,0.2,0.7,0.2v0.1c-0.2,0-0.5-0.1-0.7-0.2c-0.6-0.2-1.1-0.4-1.7-0.1
				c-0.2,0.1-0.4,0.2-0.5,0.4c0.1,0.2,0.2,0.4,0.4,0.5c0.7,0.4,1.4,0.7,2.1,1c0.4,0.2,0.8,0.4,1.2,0.6v0.1c-0.1,0-0.3-0.1-0.4-0.1
				c-0.5-0.2-0.9-0.4-1.4-0.6c-0.1-0.1-0.3-0.1-0.4-0.2c-0.4-0.1-1.1,0.1-1.2,0.4c-0.1,0.5,0.2,0.7,0.6,0.9c0.6,0.2,1.2,0.4,1.8,0.6
				c0.3,0.1,0.6,0.2,0.9,0.2v0.1c-0.2,0-0.3,0-0.5-0.1c-0.6-0.2-1.2-0.3-1.8-0.5c-0.2,0-0.4-0.1-0.5,0c-0.2,0.1-0.4,0.3-0.4,0.5
				c0,0.1,0.2,0.4,0.3,0.5c0.2,0.1,0.4,0.1,0.6,0.2c0.6,0.1,1.2,0.1,1.9,0.2c0.1,0,0.3,0.1,0.4,0.1v0.1c-0.1,0-0.2,0-0.3,0
				c-0.6-0.1-1.1-0.1-1.7-0.2c-0.3,0-0.5,0.1-0.5,0.4c0,0.2,0.2,0.4,0.4,0.5s0.5,0.1,0.7,0.1c0.7,0.1,1.4,0.1,2.1,0.1V33
				c-0.1,0-0.3,0-0.4,0c-0.5,0-1.1-0.1-1.6-0.1c-0.2,0-0.4,0-0.6,0.1s-0.3,0.3-0.3,0.5c0,0.1,0.2,0.4,0.3,0.4
				c0.4,0.1,0.9,0.2,1.3,0.2c0.4,0.1,0.8,0.1,1.3,0.1v0.2c-0.3,0-0.5,0-0.8,0c-0.3,0-0.5-0.1-0.8-0.1s-0.5,0.1-0.6,0.4
				c-0.1,0.3,0.1,0.5,0.4,0.6c0.6,0.1,1.3,0.2,1.9,0.3c0.2,0,0.4,0,0.5,0.1v0.1c-0.1,0-0.3,0.1-0.4,0.1c-0.5-0.1-0.9-0.1-1.4-0.2
				c-0.1,0-0.4,0-0.4,0c-0.1,0.2-0.1,0.4,0,0.6c0.2,0.4,0.6,0.5,1,0.5c0.5,0,0.9,0,1.4,0c0.1,0,0.3,0,0.4,0v0.1
				c-0.1,0-0.3,0.1-0.4,0.1c-0.5,0-0.9,0-1.4,0c-0.1,0-0.3,0.1-0.4,0.2c0,0.1,0,0.3,0.1,0.4c0.2,0.3,0.5,0.5,0.9,0.4
				c0.9-0.2,1.9-0.4,2.8-0.5c0.2,0,0.3-0.1,0.5-0.1v0.1c-0.1,0.1-0.3,0.2-0.4,0.2c-0.7,0.1-1.3,0.2-2,0.4c-0.2,0-0.3,0.2-0.5,0.4
				c0.2,0.2,0.3,0.3,0.5,0.5c0.1,0.1,0.3,0,0.5,0c0.7-0.2,1.5-0.3,2.2-0.5c0.4-0.1,0.7-0.2,0.8-0.7c0.2,0.2,0.3,0.5,0.4,0.7
				c-1,0.2-1.9,0.5-2.9,0.7c-0.3,0.1-0.3,0.2-0.2,0.5c0.2,0.4,0.8,0.7,1.2,0.5c0.6-0.2,1.2-0.4,1.8-0.5c0.1,0,0.2,0,0.3,0
				c-0.8,0.5-1.7,0.6-2.6,0.9c0.1,0.4,0.3,0.5,0.6,0.5c1.2-0.1,2.2-0.5,3.3-1c0.1-0.1,0.3-0.1,0.5-0.2c0,0,0,0.1,0.1,0.1
				c-0.1,0.1-0.2,0.2-0.4,0.3c-1,0.5-2.1,0.9-3.3,1c-0.9,0.1-1.7,0.5-2.6,0.6c-1.3,0.2-2.6,0.2-3.9,0.2c-0.8,0-1.6,0.1-2.3,0.5
				c-0.2,0.1-0.5,0.2-0.4,0.5c0.1,0.4,0.4,0.2,0.6,0.1c0.5-0.1,1.1-0.3,1.6-0.4c0,0.1,0,0.1,0.1,0.2c-0.1,0-0.2,0.1-0.4,0.1
				c-0.4,0.1-0.7,0.1-1,0.3c-0.1,0.1-0.2,0.2-0.3,0.4c0.2,0.1,0.3,0.2,0.5,0.2c0.5-0.1,1-0.3,1.5-0.4c0.1,0,0.3-0.1,0.4-0.1v0.1
				c0,0.1-0.5,0.2-1,0.4c0.2,0.4,0.4,0.5,0.8,0.4c0.6-0.2,1.2-0.4,1.8-0.5c-0.4,0.2-0.8,0.4-1.3,0.7c0.2,0.2,0.4,0.2,0.6,0.1
				c0.8-0.4,1.6-0.8,2.4-1.1c0.2-0.1,0.3-0.1,0.5-0.1c-0.2,0.1-0.4,0.2-0.6,0.4c-0.2,0.1-0.3,0.3-0.1,0.5c0.1,0.1,0.2,0.2,0.2,0.3
				c0.1,0.2,0.4,0.3,0.2,0.6c-0.2,0.3-0.5,0.3-0.8,0.2c-0.4-0.2-1,0.1-1.2,0.5c0.2,0,0.4,0,0.6,0c0.1,0,0.2,0.1,0.3,0.1
				c-0.1,0.1-0.1,0.2-0.2,0.3c-0.4,0.2-0.9,0.4-1.4,0.7c0.8,0.2,1.4-0.2,2.2-0.5c-0.7,0.7-1.6,0.7-2.4,0.9v0.1
				c0.1,0.1,0.3,0.2,0.4,0.1c0.8-0.2,1.7-0.4,2.5-0.6c0.1,0,0.2-0.1,0.2-0.2c0.6-0.7,1.2-1.3,1.9-2c-0.8,0.2-1.1,1-1.7,1.3
				c0.2-0.7,1.2-1.5,1.9-1.4c2,0.1,4.1,0.3,6.1,0.5c0.7,0.1,1.5,0,2.2,0c0.8,0,1.5,0,2.3,0c1.2,0,2.5,0,3.7-0.1
				c0.2,0,0.5-0.1,0.8-0.2c-0.1-0.1-0.2-0.2-0.2-0.2c-0.9-0.3-1.6-1-2.2-1.8c-1.3-1.7-0.4-3.7,0.9-4.5c0.3-0.2,0.7-0.3,1.1-0.5
				c0.6-0.2,1.1,0.1,1.5,0.4c0.3,0.2,0.5,0.1,0.7-0.1C34.7,36.8,32.4,36.9,29.8,37.6z M22.9,41.3c0,0.1,0,0.1,0.1,0.2
				c-0.3,0.1-0.5,0.2-0.8,0.2c0-0.1,0-0.1-0.1-0.2C22.4,41.5,22.7,41.4,22.9,41.3z M19.2,44.1c0-0.1,0-0.1,0-0.2
				c0.3,0,0.5-0.1,0.8-0.1c0,0.1,0,0.1,0,0.2C19.8,44,19.5,44,19.2,44.1z M19.5,43.2c0.2-0.4,0.5-0.5,0.9-0.2
				C20.1,43.1,19.8,43.1,19.5,43.2z M20.2,42.4c0-0.1,0-0.1,0-0.2c0.3-0.1,0.7-0.1,1-0.2v0.2L20.2,42.4z M21.9,42.9
				c0-0.1,0-0.1,0-0.2c0.2,0,0.5-0.1,0.7-0.1v0.2C22.4,42.9,22.2,42.9,21.9,42.9z M22.9,44.7v-0.2h0.9v0.1
				C23.5,44.6,23.2,44.6,22.9,44.7z M23.3,43.3c0-0.1,0-0.1,0-0.2c0.2,0,0.5,0,0.7-0.1c0,0.1,0,0.1,0,0.2
				C23.8,43.3,23.5,43.3,23.3,43.3z M29.8,40.2L29.8,40.2l-1,0.1v-0.1H29.8z M28.5,38.1c0.3,0.2,0.6,0.4,0.9,0.6l-0.1,0.1
				c-0.3-0.2-0.6-0.3-0.9-0.5C28.5,38.2,28.5,38.1,28.5,38.1z M27.2,34.2c-0.2-0.2-0.5-0.3-0.7-0.5C26.9,33.6,27.2,33.8,27.2,34.2z
				 M25.2,33c0-0.1,0-0.1,0-0.2c0.3,0,0.5,0,0.8,0c0,0.1,0,0.1,0,0.2C25.7,33.1,25.5,33.1,25.2,33z M25.5,34.3
				c-0.3,0-0.5,0.1-0.8,0.1C25,34,25.2,34,25.5,34.3z M25.7,37.2c0.2,0.2,0.3,0.3,0.5,0.5l-0.1,0.1c-0.2-0.2-0.3-0.3-0.5-0.5
				L25.7,37.2z M26.2,38.6c0.2,0.2,0.4,0.3,0.6,0.5l-0.1,0.1c-0.3,0-0.5-0.2-0.6-0.4C26.2,38.7,26.2,38.6,26.2,38.6z M26.2,31.6
				c0.1,0.1,0.2,0.2,0.3,0.4l-0.1,0.1c-0.2-0.1-0.4-0.3-0.6-0.4c0-0.1,0-0.1,0-0.1C25.9,31.5,26.1,31.5,26.2,31.6z M25,28.4
				c0.2,0.1,0.3,0.3,0.5,0.4c-0.1,0.1-0.1,0.1-0.1,0.2c-0.2-0.1-0.3-0.3-0.5-0.4C24.9,28.5,24.9,28.4,25,28.4z M25.3,30.5
				c0,0.1,0,0.1,0,0.2c-0.2,0.1-0.5,0.2-0.8,0.3c0-0.2,0.1-0.4,0.2-0.5C24.9,30.5,25.1,30.5,25.3,30.5z M23.9,26.3
				c0.2,0,0.4,0.1,0.5,0.1c0,0,0,0.1-0.1,0.1h-0.8C23.6,26.4,23.7,26.3,23.9,26.3z M23.7,29.1c0.2-0.1,0.4,0,0.5,0v0.1
				c-0.3,0.1-0.6,0.2-0.9,0.3C23.4,29.4,23.5,29.2,23.7,29.1z M22.3,28.8c-0.1-0.3,0-0.6,0.3-0.7s0.5-0.1,0.7,0.4
				C22.9,28.4,22.5,28.4,22.3,28.8z M23.1,24.5c0.1,0,0.2,0.1,0.4,0.2c0,0,0,0.1-0.1,0.1h-0.8v-0.1C22.7,24.7,22.9,24.5,23.1,24.5z
				 M22.9,26c-0.4,0.2-0.6,0.3-1,0.5c0-0.3,0.2-0.5,0.4-0.6C22.6,25.8,22.7,25.9,22.9,26z M21.4,24.2c0.1-0.5,0.4-0.7,0.9-0.5
				C22,23.9,21.7,24.1,21.4,24.2z M19.2,29.8c0.2-0.1,0.4-0.1,0.5,0.1c-0.3,0.2-0.6,0.3-0.9,0.5C18.8,30.1,18.9,29.9,19.2,29.8z
				 M18.5,27.5c0.2-0.5,0.5-0.5,0.8-0.2C19,27.4,18.8,27.5,18.5,27.5z M19.2,28.8c0-0.4,0.1-0.6,0.5-0.7c0.3,0,0.5,0.1,0.5,0.5
				C19.8,28.3,19.5,28.5,19.2,28.8z M19.5,22.9c0-0.2,0.1-0.4,0.4-0.6c0.1-0.1,0.3-0.1,0.5-0.2C20,22.4,19.7,22.6,19.5,22.9z
				 M20.5,24c0,0.1,0,0.1,0,0.2c-0.3,0.2-0.6,0.4-0.9,0.6c-0.1-0.3,0.1-0.5,0.2-0.6C20,24,20.2,24,20.5,24z M20.1,27
				c0.1-0.5,0.2-0.5,0.9-0.4C20.6,26.7,20.4,26.9,20.1,27z M20.9,28.9c0.2-0.1,0.4,0,0.5,0V29c-0.3,0.1-0.5,0.3-0.8,0.4
				C20.5,29.2,20.6,29,20.9,28.9z M20.7,25.6l-0.1-0.1c0.2-0.1,0.4-0.3,0.6-0.3c0.1,0,0.2,0.1,0.4,0.2C21.3,25.5,21,25.6,20.7,25.6z
				 M21.4,22.2c0.2-0.1,0.4-0.1,0.6-0.2c0,0.1,0,0.1,0,0.2c-0.3,0.1-0.6,0.3-0.9,0.4H21C21.2,22.5,21.3,22.3,21.4,22.2z M21.2,20.6
				c-0.3,0.2-0.6,0.4-0.9,0.6c-0.1-0.3,0.1-0.5,0.3-0.6S21,20.4,21.2,20.6z M19.9,18.4c0.1,0,0.3,0.1,0.5,0.1
				c-0.4,0.2-0.7,0.4-1.1,0.6C19.4,18.7,19.6,18.5,19.9,18.4z M19,20.3c0.1-0.2,0.4-0.3,0.6,0c-0.5,0.1-0.7,0.4-0.7,1
				C18.6,20.9,18.8,20.6,19,20.3z M18.5,18.5c-0.1,0.4-0.1,0.8-0.2,1.1C18,19.2,18,18.7,18.5,18.5z M18.1,22.3
				c0.1-0.1,0.4-0.1,0.6-0.1c0,0.1,0.1,0.1,0.1,0.2c-0.5,0-0.8,0.3-0.9,0.8C17.8,22.8,17.8,22.5,18.1,22.3z M18.8,23.9
				c-0.3,0.3-0.5,0.6-0.8,0.9c-0.1-0.3,0-0.6,0.2-0.8C18.4,23.9,18.5,23.7,18.8,23.9z M17.3,20.8c0.1-0.1,0.3-0.2,0.5-0.2
				c0,0,0,0.1,0.1,0.1c-0.2,0.2-0.4,0.5-0.7,0.7C17.2,21.2,17.2,21,17.3,20.8z M17,19.3c-0.2,0.3-0.3,0.5-0.4,0.7
				C16.4,19.6,16.6,19.4,17,19.3z M16.2,21.9c-0.3-0.4-0.3-0.7,0-0.9V21.9z M16.3,23.5c0.1-0.2,0.1-0.5,0.2-0.6s0.3-0.1,0.5-0.2v0.1
				c-0.2,0.3-0.4,0.5-0.6,0.8C16.4,23.6,16.4,23.6,16.3,23.5z M16.7,25c0.1-0.2,0.4-0.3,0.5-0.4c0,0,0,0.1,0.1,0.1
				c-0.2,0.3-0.4,0.6-0.6,0.8C16.6,25.4,16.6,25.2,16.7,25z M16.8,27.8c0-0.5,0.3-0.8,0.7-0.6C17.2,27.3,17,27.5,16.8,27.8z
				 M17.9,28.1c0.1,0,0.2,0,0.2,0.1s0,0.2-0.1,0.2c-0.2,0.2-0.4,0.5-0.6,0.7C17.3,28.8,17.6,28.1,17.9,28.1z M17.5,30.7
				c-0.1-0.3-0.1-0.5,0.2-0.7c0.1-0.1,0.2,0,0.4-0.1C17.9,30.3,17.7,30.5,17.5,30.7z M18.5,25.8c0.1-0.1,0.3,0,0.5,0
				c-0.4,0.3-0.6,0.5-0.9,0.7C18.1,26.2,18.3,26,18.5,25.8z M18.4,31.8l-0.1-0.1c0.1-0.2,0.2-0.4,0.4-0.5c0.1-0.1,0.2,0,0.4,0v0.1
				C18.8,31.5,18.6,31.7,18.4,31.8z M18.8,35.2h-0.1c0-0.2,0-0.4,0-0.7c0.1,0,0.1,0,0.2,0L18.8,35.2L18.8,35.2z M18.7,33.4
				c-0.1-0.2,0-0.4,0.2-0.6c0.1-0.1,0.3-0.1,0.4-0.1v0.1C19.1,33,18.9,33.2,18.7,33.4z M19.9,31.7l0.1,0.1c-0.2,0.1-0.4,0.3-0.5,0.4
				c-0.1-0.1-0.1-0.1-0.1-0.2C19.6,32,19.8,31.8,19.9,31.7z M19.8,35.9c-0.1,0-0.1,0-0.2,0c0.1-0.2,0.1-0.5,0.2-0.8
				c0.1,0,0.1,0,0.2,0.1C19.9,35.4,19.8,35.7,19.8,35.9z M19.9,34.1c-0.1-0.4,0-0.5,0.4-0.5C20.2,33.7,20.1,33.9,19.9,34.1z
				 M20.3,31c0.1-0.2,0.2-0.4,0.4-0.5c0.1-0.1,0.3,0,0.5,0v0.1c-0.2,0.2-0.5,0.3-0.7,0.5C20.3,31,20.3,31,20.3,31z M21.1,36.6
				c-0.1,0-0.4,0-0.5,0c0-0.2-0.2-0.8-0.2-1c0.1,0,0.4,0,0.4,0L21.1,36.6z M20.8,35c-0.1-0.6,0.1-0.8,0.6-1
				C21.2,34.4,21,34.7,20.8,35z M20.8,32.3c-0.1-0.3,0.1-0.5,0.3-0.5c0.1,0,0.3,0,0.5,0.1C21.3,32,21.1,32.2,20.8,32.3z M21.2,27.7
				c0.1-0.2,0.2-0.4,0.4-0.4c0.2,0,0.3,0.1,0.5,0.2v0.1C21.8,27.7,21.5,27.7,21.2,27.7z M22.6,30c-0.3,0.1-0.5,0.1-0.7,0.2
				C22,29.8,22.2,29.8,22.6,30z M22.2,36.7c-0.3-0.4-0.3-0.5,0.1-0.7C22.3,36.2,22.2,36.4,22.2,36.7z M22.1,33.5
				c-0.2-0.4-0.1-0.7,0.3-0.8C22.3,32.9,22.2,33.2,22.1,33.5z M22.4,31.6c-0.1-0.2,0-0.4,0.3-0.6c0.2-0.1,0.4,0,0.6,0.2
				C22.9,31.3,22.7,31.4,22.4,31.6z M23.1,37.4c-0.3-0.3-0.3-0.5,0.1-0.7C23.2,37,23.2,37.2,23.1,37.4z M23.4,35.7
				c-0.2-0.4-0.1-0.5,0.4-0.6C23.7,35.3,23.5,35.5,23.4,35.7z M23.2,33.9c0.3-0.4,0.5-0.4,0.8,0H23.2z M23.8,32.4
				c0.4-0.2,0.6,0,0.6,0.4C24.2,32.6,24,32.5,23.8,32.4z M23.8,27.6v-0.1c0.2-0.1,0.3-0.2,0.5-0.2c0.1,0,0.2,0.1,0.4,0.1
				c0,0,0,0.1-0.1,0.1C24.3,27.6,24,27.6,23.8,27.6z M24.6,37.2c0.2,0.2,0.3,0.3,0.5,0.6C24.5,37.8,24.4,37.6,24.6,37.2z M24.9,39.1
				L25,39c0.2,0.2,0.4,0.3,0.6,0.5c0,0.1-0.1,0.1-0.1,0.2C25.3,39.5,25.1,39.3,24.9,39.1z M25.6,40.7c0.5,0,0.7,0,0.9,0.4
				c-0.3-0.1-0.6-0.2-0.9-0.3C25.6,40.7,25.6,40.7,25.6,40.7z M26.9,43.7c-0.3,0-0.6,0.1-1,0.1v-0.2c0.3,0,0.6,0,1-0.1V43.7z
				 M27,37.3c0.1,0,0.1-0.1,0.2-0.1c0.1,0.2,0.3,0.3,0.4,0.5c-0.1,0-0.1,0.1-0.2,0.1C27.3,37.6,27.2,37.5,27,37.3z M27.2,42.6h1v0.1
				L27.2,42.6L27.2,42.6z M27.7,43.8c0-0.1,0-0.1,0-0.2c0.3,0,0.6,0,1-0.1c0,0.1,0,0.1,0,0.2C28.4,43.7,28.1,43.8,27.7,43.8z
				 M28.3,41.1c0-0.1,0-0.1,0-0.2h0.8V41C28.8,41.1,28.5,41.1,28.3,41.1z M29.2,42.9c0-0.1,0-0.1,0-0.2c0.3,0,0.7-0.1,1-0.1
				c0,0.1,0,0.1,0,0.2C29.9,42.8,29.5,42.8,29.2,42.9z M31.5,44.6h-0.9v-0.1L31.5,44.6L31.5,44.6z M30.9,43.4c0-0.1,0-0.1,0-0.2
				c0.2,0,0.5-0.1,0.7-0.1c0,0.1,0,0.1,0,0.2C31.4,43.4,31.1,43.4,30.9,43.4z M29.9,41.8c0.5-0.1,1-0.2,1.5-0.3c0.1,0,0.1,0,0.2,0
				C31.1,42,30.3,42.1,29.9,41.8z M31,37.9c0-0.1,0-0.1,0-0.2c0.3,0,0.5-0.1,0.8-0.1v0.1C31.6,37.8,31.3,37.8,31,37.9z"/>
			<path class="st0" d="M40.8,23.8c-0.4-1.2-1-2.4-1.9-3.4c-0.2-0.2-0.5-0.4-0.6-0.3c-0.3,0.1-0.3,0.5-0.2,0.8
				c0.2,0.6,0.5,1.1,0.7,1.7c0.2,0.4,0.3,0.7,0.5,1.1c0,0-0.1,0-0.1,0.1c-0.2-0.4-0.4-0.8-0.5-1.2c-0.4-1-1.2-1.5-2-2
				c-0.1-0.1-0.3,0-0.4,0c-0.1,0.1-0.1,0.3,0,0.4c0.2,0.4,0.5,0.8,0.8,1.2c-0.5-0.4-0.9-0.7-1.3-1c-0.3-0.2-0.6-0.3-0.9-0.5
				c-0.1,0-0.3,0-0.4,0c0,0.1,0,0.3,0,0.4c0.3,0.5,0.6,0.9,1,1.4c0.3,0.4,0.7,0.7,1,1.1c0.1,0.1,0.2,0.2,0.3,0.3L36.7,24
				c-0.1-0.1-0.3-0.2-0.4-0.4c-0.9-1.1-2-1.8-3.4-2.2c-0.2,0-0.4,0-0.6,0c0,0.2,0,0.5,0.2,0.6c0.7,0.7,1.4,1.4,2.1,2.1
				c0.4,0.4,0.8,0.9,1.3,1.3c0.1,0.1,0.1,0.2,0.2,0.3L36,25.8c-0.1-0.1-0.2-0.2-0.3-0.2c-0.7-0.7-1.4-1.5-2.2-2.1
				c-0.5-0.4-1.3-0.4-1.9-0.5c-0.3-0.1-0.4,0.3-0.2,0.5c0.2,0.2,0.5,0.4,0.8,0.6c0.7,0.5,1.4,1,2.1,1.5c0.2,0.1,0.3,0.3,0.5,0.5
				l-0.1,0.1c-0.1-0.1-0.3-0.2-0.4-0.3c-0.7-0.5-1.3-1.1-2-1.6c-0.3-0.2-0.7-0.3-1.1-0.4s-0.9-0.1-1.3-0.1c-0.2,0-0.4,0.2-0.6,0.3
				c0.1,0.2,0.2,0.5,0.4,0.5c0.7,0.4,1.5,0.8,2.2,1.1c0.1,0.1,0.3,0.2,0.4,0.3c-0.1,0-0.2,0-0.3-0.1c-0.5-0.2-1-0.5-1.5-0.7
				s-1-0.2-1.5-0.3c-0.2,0-0.3,0.2-0.5,0.3c0.1,0.1,0.2,0.3,0.4,0.3c0.6,0.3,1.2,0.5,1.8,0.7c0.2,0.1,0.3,0.2,0.5,0.2v0.1
				c-0.1,0-0.2,0-0.3,0c-0.5-0.2-0.9-0.4-1.4-0.6c-0.4-0.2-0.9-0.3-1.4-0.1c-0.2,0.1-0.3,0.2-0.5,0.3c0.1,0.1,0.2,0.3,0.4,0.4
				c0.5,0.2,1,0.3,1.5,0.5c0.4,0.1,0.9,0.3,1.3,0.4v0.1c-0.2,0-0.4,0-0.6-0.1c-0.6-0.2-1.2-0.4-1.8-0.6c-0.1-0.1-0.3-0.1-0.5-0.1
				s-0.4,0.1-0.3,0.4c1,2.6,2,5.3,3,8c0.2,0.4,0.5,0.4,0.8,0.4c1-0.1,2-0.3,2.9-0.3c0.7,0,1.1-0.2,1.4-0.9c0.4-0.8,1-1.5,1.5-2.3
				c0.7-1.2,1.7-2.3,2.6-3.4c1-1.3,1.5-2.8,1.5-4.4C40.9,24.4,40.9,24.1,40.8,23.8z M28.6,29.8c-0.1,0-0.1-0.1-0.2-0.1
				c0.1-0.2,0.3-0.4,0.4-0.5l0.1,0.1C28.9,29.4,28.7,29.6,28.6,29.8z M29.9,29.4c0.2-0.2,0.3-0.4,0.5-0.6c0.1,0,0.1,0.1,0.1,0.1
				c-0.2,0.2-0.3,0.4-0.5,0.6C30,29.5,30,29.5,29.9,29.4z M30.2,33.4l-0.1-0.1c0-0.3,0.1-0.5,0.6-0.5C30.5,33.1,30.4,33.3,30.2,33.4
				z M30.4,31.8c-0.1,0-0.1-0.1-0.2-0.1c0.1-0.2,0.2-0.5,0.3-0.7c0.1,0,0.1,0.1,0.2,0.1C30.6,31.4,30.5,31.6,30.4,31.8z M32.8,27.8
				c-0.2,0.2-0.5,0.4-0.8,0.6C32.1,27.9,32.4,27.6,32.8,27.8z M33.2,29c-0.2,0.3-0.4,0.6-0.6,0.9C32.5,29.4,32.8,29,33.2,29z
				 M31,30.3c-0.1-0.5,0.1-0.8,0.6-0.8C31.4,29.8,31.2,30,31,30.3z M31.6,32.3c0.2-0.1,0.4-0.3,0.6-0.4c0,0.1,0.1,0.1,0.1,0.1
				c-0.2,0.1-0.4,0.3-0.6,0.4C31.7,32.4,31.6,32.3,31.6,32.3z M32.7,32.9c0,0.1,0,0.1,0.1,0.2c-0.2,0.1-0.4,0.2-0.7,0.3
				C32.1,32.9,32.4,32.9,32.7,32.9z M32.5,34.2c0.4-0.2,0.6-0.2,0.7,0.2C33,34.3,32.8,34.2,32.5,34.2z M33,30.8
				c0-0.1-0.1-0.1-0.1-0.2c0.2-0.1,0.4-0.2,0.6-0.3c0,0.1,0.1,0.1,0.1,0.2C33.4,30.6,33.2,30.7,33,30.8z M34,27.5
				c0.2-0.1,0.4-0.3,0.6-0.4c0,0.1,0.1,0.1,0.1,0.2c-0.2,0.1-0.4,0.3-0.6,0.4C34.1,27.6,34.1,27.6,34,27.5z M35.2,28.4
				c-0.2,0.2-0.5,0.4-0.8,0.6C34.4,28.5,34.7,28.2,35.2,28.4z M34.6,30.2c0.2,0.2,0.3,0.4,0.5,0.5L35,30.8c-0.2-0.2-0.3-0.3-0.5-0.5
				L34.6,30.2z M35.6,32.1c-0.2-0.1-0.5-0.2-0.8-0.3c0-0.1,0-0.1,0.1-0.1c0.3-0.1,0.6,0.1,0.8,0.3C35.6,32,35.6,32.1,35.6,32.1z
				 M36.5,31.5c-0.2-0.2-0.3-0.4-0.5-0.6l0.1-0.1c0.3,0.1,0.5,0.3,0.5,0.6C36.6,31.5,36.5,31.5,36.5,31.5z M38.8,25.6
				c-0.3,0.1-0.6,0.1-0.9,0.2C38.2,25.4,38.4,25.3,38.8,25.6z M37.5,25c-0.3,0.1-0.5,0.1-0.8,0.2C36.9,24.8,37.3,24.7,37.5,25z
				 M37.3,30.5c-0.2-0.2-0.3-0.4-0.5-0.5C37.2,29.9,37.4,30,37.3,30.5z M37.4,27.2c0.1-0.5,0.3-0.6,0.7-0.4
				C37.9,26.9,37.7,27,37.4,27.2z M38.3,28.1c0.2-0.4,0.5-0.4,0.8-0.3v0.1C38.9,27.9,38.6,28,38.3,28.1z M39.2,24.5h-0.9l-0.1-0.1
				c0.2-0.1,0.4-0.2,0.6-0.2C38.9,24.2,39.1,24.3,39.2,24.5C39.2,24.4,39.2,24.4,39.2,24.5z M40,26.7h-0.7v-0.2c0.2,0,0.4,0,0.7,0.1
				C40,26.6,40,26.6,40,26.7z"/>
			<path class="st0" d="M38.1,39.8c-0.1-0.5-0.4-0.7-0.8-0.4c-0.2,0.1-0.5,0.1-0.6,0c-0.8-0.5-1.5-0.4-2.2,0c-0.8,0.5-1.2,1.3-1.2,2
				c0,1.2,0.6,1.9,1.3,2.5c0.3,0.2,0.7,0.4,1.1,0.6c0.4,0.2,0.8,0,1.1-0.3c0.5-0.5,0.8-1.1,0.9-1.8c0.1-0.6,0.2-1.2,0.4-1.8
				C38.1,40.3,38.1,40,38.1,39.8z M35.6,42c-0.3,0-0.6-0.3-0.6-0.6s0.3-0.6,0.6-0.6s0.6,0.2,0.6,0.6C36.2,41.7,35.9,42,35.6,42z
				 M37.2,43c-0.1,0.6-0.6,0.9-0.6,0.9L36.1,43l0.2-0.1l0.3,0.7c0.4-0.3,0.2-1.2,0.2-1.2l0.3-0.2C37.1,42.1,37.3,42.4,37.2,43z"/>
		</g>
	</g>
</g>
<g>
	<path class="st1" d="M60,9.6h5v9.1h6.4V9.6h5v22.6h-5V23H65v9.3h-5V9.6z"/>
	<path class="st1" d="M83.4,31.4c-1.4-0.8-2.4-2-3-3.7c-0.7-1.7-1-3.9-1-6.7s0.3-5.1,1-6.8s1.7-2.9,3-3.7c1.4-0.8,3.1-1.1,5.3-1.1
		c2.2,0,3.9,0.4,5.3,1.1s2.4,2,3,3.7c0.7,1.7,1,3.9,1,6.8s-0.3,5.1-1,6.8c-0.6,1.7-1.6,2.9-3,3.6c-1.4,0.7-3.1,1.1-5.4,1.1
		C86.5,32.5,84.7,32.2,83.4,31.4z M91.1,27.6c0.6-0.4,1.1-1.2,1.4-2.3c0.3-1.1,0.5-2.5,0.5-4.4c0-2.6-0.4-4.5-1.1-5.7
		c-0.7-1.1-1.8-1.7-3.2-1.7s-2.5,0.6-3.2,1.7s-1.1,3-1.1,5.7c0,2.6,0.4,4.5,1.1,5.6s1.8,1.7,3.2,1.7C89.7,28.3,90.5,28.1,91.1,27.6z
		"/>
	<path class="st1" d="M123.6,13.9l-6.1,17h-5.4l-6.1-17v18.4h-5V9.6h8.6l5.2,16.2L120,9.6h8.6v22.6h-5
		C123.6,32.2,123.6,13.9,123.6,13.9z"/>
	<path class="st1" d="M135.6,31.4c-1.4-0.8-2.4-2-3-3.7c-0.7-1.7-1-3.9-1-6.7s0.3-5.1,1-6.8s1.7-2.9,3-3.7s3.1-1.1,5.3-1.1
		s3.9,0.4,5.3,1.1s2.4,2,3,3.7c0.7,1.7,1,3.9,1,6.8s-0.3,5.1-1,6.8c-0.6,1.7-1.6,2.9-3,3.6c-1.4,0.7-3.1,1.1-5.4,1.1
		C138.8,32.5,137,32.2,135.6,31.4z M143.4,27.6c0.6-0.4,1.1-1.2,1.4-2.3c0.3-1.1,0.5-2.5,0.5-4.4c0-2.6-0.4-4.5-1.1-5.7
		c-0.7-1.1-1.8-1.7-3.2-1.7s-2.5,0.6-3.2,1.7s-1.1,3-1.1,5.7c0,2.6,0.4,4.5,1.1,5.6c0.7,1.1,1.8,1.7,3.2,1.7
		C141.9,28.3,142.7,28.1,143.4,27.6z"/>
	<path class="st1" d="M153.3,9.6h7.8c1.8,0,3.3,0.2,4.4,0.7c1.1,0.5,1.9,1.2,2.4,2.3c0.5,1,0.8,2.4,0.8,4.1s-0.2,3-0.7,4
		s-1.3,1.6-2.4,1.8c0.6,0.3,1.1,0.6,1.4,0.9c0.3,0.3,0.7,0.9,1,1.6l3.7,7.1h-5.2l-4.1-8.3h-4.1v8.3h-5L153.3,9.6L153.3,9.6z
		 M162.8,19.4c0.3-0.2,0.6-0.4,0.7-0.9s0.2-1,0.2-1.9c0-0.8-0.1-1.4-0.2-1.8c-0.1-0.4-0.4-0.7-0.7-0.8s-0.8-0.2-1.5-0.2h-2.9v5.8h3
		C161.9,19.7,162.4,19.6,162.8,19.4z"/>
	<path class="st1" d="M177.8,31.4c-1.4-0.8-2.4-2-3-3.7c-0.7-1.7-1-3.9-1-6.7s0.3-5.1,1-6.8s1.7-2.9,3-3.7s3.1-1.1,5.3-1.1
		s3.9,0.4,5.3,1.1s2.4,2,3,3.7c0.7,1.7,1,3.9,1,6.8s-0.3,5.1-1,6.8c-0.6,1.7-1.6,2.9-3,3.6c-1.4,0.7-3.1,1.1-5.4,1.1
		C180.9,32.5,179.2,32.2,177.8,31.4z M185.5,27.6c0.6-0.4,1.1-1.2,1.4-2.3c0.3-1.1,0.5-2.5,0.5-4.4c0-2.6-0.4-4.5-1.1-5.7
		c-0.7-1.1-1.8-1.7-3.2-1.7s-2.5,0.6-3.2,1.7s-1.1,3-1.1,5.7c0,2.6,0.4,4.5,1.1,5.6c0.7,1.1,1.8,1.7,3.2,1.7
		C184.1,28.3,184.9,28.1,185.5,27.6z"/>
	<path class="st1" d="M203,32.4c-1.6-0.2-2.9-0.4-3.8-0.6l0.1-2.1c1.3,0.2,2.6,0.3,3.9,0.4c1.3,0.1,2.3,0.1,3,0.1
		c1.1,0,2-0.1,2.7-0.2c0.7-0.2,1.2-0.5,1.6-1.1s0.6-1.4,0.6-2.6c0-1-0.2-1.8-0.6-2.3c-0.4-0.5-1.2-0.9-2.3-1.3l-4.5-1.4
		c-1.6-0.5-2.8-1.2-3.4-2.1c-0.7-0.9-1-2.1-1-3.7c0-2,0.5-3.5,1.6-4.5s2.7-1.5,5-1.5c1.4,0,3.7,0.2,6.8,0.5l-0.2,2.1l-1.2-0.1
		c-1.9-0.1-3.4-0.2-4.5-0.2c-1,0-1.9,0.1-2.6,0.2c-0.7,0.2-1.2,0.5-1.6,1c-0.4,0.5-0.6,1.3-0.6,2.4c0,1,0.2,1.7,0.7,2.3
		c0.4,0.5,1.2,1,2.3,1.3l4.3,1.3c1.7,0.5,2.9,1.2,3.6,2.1c0.7,0.9,1,2.1,1,3.7c0,2-0.5,3.6-1.6,4.7s-2.9,1.6-5.5,1.6
		C205.9,32.6,204.7,32.6,203,32.4z"/>
	<path class="st1" d="M220,31.4c-0.7-1-1-2.4-1-4.4v-9.2h-2.6v-2.4h2.6V9.6h2.8V27c0,1.3,0.1,2.2,0.3,2.7s0.7,0.8,1.5,0.8l3.1-0.1
		l0.1,2.1c-1.6,0.2-2.7,0.3-3.4,0.3C221.8,32.8,220.7,32.3,220,31.4z M221.3,17.4l-0.1-2h5.3v2.4h-2.4C223,17.8,222,17.7,221.3,17.4
		z"/>
	<path class="st1" d="M234,32.7c-1.4,0-2.6-0.5-3.4-1.4c-0.9-0.9-1.3-2.1-1.3-3.5V15.9h2.8v11.9c0,0.7,0.2,1.3,0.6,1.8
		c0.4,0.4,0.9,0.7,1.6,0.7c0.1,0,0.3,0,0.6-0.1l5.2-1v2.1c-0.3,0.3-0.9,0.5-1.9,0.6c-0.3,0.1-1.3,0.3-3,0.6
		C234.7,32.6,234.3,32.7,234,32.7z M239.7,15.8h2.8v16.6h-2.8V15.8z"/>
	<path class="st1" d="M247.7,30.4c-0.9-1.3-1.3-3.5-1.3-6.4c0-3,0.4-5.2,1.3-6.5c0.9-1.3,2.4-2,4.4-2c0.9,0,2.6,0.2,4.9,0.6v2.1
		c-0.3-0.1-1-0.1-2.1-0.2s-1.9-0.1-2.5-0.1c-1.1,0-1.9,0.5-2.4,1.4s-0.8,2.5-0.8,4.7s0.2,3.8,0.8,4.7c0.5,0.9,1.3,1.4,2.4,1.4
		c0.8,0,1.8,0,2.9-0.1c1.1,0,2-0.1,2.8-0.1l1.6,2.1c-1.1,0.1-2.5,0.2-4.2,0.3s-2.8,0.1-3.4,0.1C250,32.4,248.6,31.8,247.7,30.4z
		 M256.8,8.5h2.8V32l-2.8,0.2V8.5z"/>
	<path class="st1" d="M264.3,10.7h2.8v2.6h-2.8V10.7z M264.3,15.8h2.8v16.5h-2.8V15.8z"/>
	<path class="st1" d="M273.8,31.9c-1-0.5-1.7-1.4-2.2-2.6c-0.4-1.2-0.7-2.9-0.7-5.2c0-2.2,0.2-3.9,0.7-5.2c0.4-1.2,1.2-2.1,2.2-2.6
		s2.4-0.8,4.1-0.8c1.6,0,2.9,0.2,3.9,0.7s1.8,1.4,2.3,2.6s0.8,3,0.8,5.2s-0.3,3.9-0.8,5.2c-0.5,1.2-1.3,2.1-2.3,2.6
		c-1,0.5-2.3,0.7-3.9,0.7C276.2,32.7,274.8,32.4,273.8,31.9z M280.4,29.8c0.6-0.3,1-0.8,1.3-1.6c0.2-0.7,0.4-1.7,0.4-3v-2.1
		c0-1.3-0.1-2.3-0.4-3c-0.2-0.7-0.7-1.3-1.3-1.6S279,18,277.9,18s-1.9,0.2-2.5,0.5s-1,0.8-1.3,1.6c-0.2,0.7-0.4,1.8-0.4,3v2.1
		c0,1.3,0.1,2.3,0.4,3c0.2,0.7,0.7,1.2,1.3,1.6s1.4,0.5,2.5,0.5C279,30.3,279.8,30.2,280.4,29.8z"/>
</g>
<g>
	<path class="st1" d="M72.3,41l-3.9,11.2H66L62.3,41v12h-2.1V39.2h3.6l3.5,10.9l3.6-10.9h3.5V53h-2.1V41z"/>
	<path class="st1" d="M78.6,52.8c-0.6-0.3-1.1-0.9-1.4-1.6s-0.4-1.8-0.4-3.2c0-1.3,0.1-2.4,0.4-3.2s0.7-1.3,1.4-1.6
		c0.6-0.3,1.5-0.5,2.5-0.5s1.8,0.2,2.4,0.5s1.1,0.9,1.4,1.6c0.3,0.8,0.5,1.8,0.5,3.2s-0.2,2.4-0.5,3.2s-0.8,1.3-1.4,1.6
		s-1.5,0.5-2.4,0.5C80,53.3,79.2,53.1,78.6,52.8z M82.5,51.3c0.3-0.2,0.6-0.5,0.7-0.9s0.2-1,0.2-1.7v-1.3c0-0.7-0.1-1.3-0.2-1.7
		s-0.4-0.7-0.7-0.9s-0.8-0.3-1.4-0.3s-1,0.1-1.4,0.3c-0.3,0.2-0.6,0.5-0.7,0.9s-0.2,1-0.2,1.7v1.3c0,0.8,0.1,1.3,0.2,1.7
		s0.4,0.7,0.7,0.9c0.3,0.2,0.8,0.3,1.4,0.3S82.2,51.5,82.5,51.3z"/>
	<path class="st1" d="M87.6,42.6h2.1V53h-2.1V42.6z M90.2,43.6c0.3-0.2,0.5-0.3,0.7-0.3l2.3-0.8l0.6,1.8l-4.4,1.5l0.1-1.7
		C89.7,43.9,90,43.8,90.2,43.6z"/>
	<path class="st1" d="M96.6,52.5c-0.4-0.6-0.7-1.5-0.7-2.7v-5.4h-1.5v-1.7h1.5v-3.5H98v10.6c0,0.7,0.1,1.2,0.2,1.5s0.4,0.4,0.8,0.4
		h2v1.6c-1.2,0.1-2,0.2-2.2,0.2C97.7,53.4,97,53.1,96.6,52.5z M97.6,44.1v-1.5h3.3v1.7h-1.3C98.7,44.4,98,44.3,97.6,44.1z"/>
	<path class="st1" d="M103.2,51.9c-0.8-0.9-1.1-2.2-1.1-3.9s0.4-3,1.1-3.9s1.8-1.4,3.2-1.4h0.4c1.3,0,2.3,0.5,2.9,1.4s1,2.2,1,3.8
		c0,0.3,0,0.5,0,0.8c0,0.2,0,0.4,0,0.4l-1.9-0.9c0-1.4-0.2-2.3-0.5-2.9s-0.8-0.9-1.5-0.9h-0.3c-1.6,0-2.4,1.2-2.4,3.7
		c0,1,0.1,1.7,0.3,2.2s0.4,0.9,0.8,1c0.3,0.2,0.8,0.3,1.4,0.3c0.5,0,1.2,0,1.9,0s1.3-0.1,1.9-0.2l0.2,1.5c-1.5,0.2-2.9,0.4-4.1,0.4
		C105.1,53.2,104,52.8,103.2,51.9z M103.7,47.5h6.6l0.4,1.5h-7V47.5z"/>
	<path class="st1" d="M117.3,44.7h-5v-1.9h7.4v1.8l-4.9,6.7h4.9v1.9h-7.4v-1.8L117.3,44.7z"/>
	<path class="st1" d="M123.7,53.3c-0.7,0-1.3-0.2-1.8-0.7s-0.7-1.1-0.7-1.9v-1.4c0-0.9,0.3-1.6,0.8-2.1s1.3-0.8,2.2-0.8h2.6V46
		c0-0.5-0.1-0.9-0.3-1.1c-0.2-0.2-0.6-0.4-1.1-0.4c-1,0-1.8,0-2.6,0.1h-0.9l-0.1-1.6c0.3,0,0.8,0,1.5-0.1c1.1-0.1,1.8-0.1,2.1-0.1
		c1.2,0,2,0.3,2.6,0.8s0.8,1.3,0.8,2.5V53h-2.1v-0.6c-0.2,0.2-0.4,0.3-0.5,0.4c-0.2,0.1-0.4,0.2-0.8,0.2l-1.1,0.2
		C124.1,53.3,123.9,53.3,123.7,53.3z M126.8,51.1v-3.2h-2.6c-0.3,0-0.5,0.1-0.7,0.3s-0.3,0.4-0.3,0.7v1.8c0,0.3,0.1,0.5,0.3,0.6
		s0.5,0.2,0.8,0.2L126.8,51.1z"/>
	<path class="st1" d="M133.9,39.2h4.3c1.1,0,2,0.1,2.6,0.4c0.6,0.3,1.1,0.7,1.4,1.3s0.4,1.4,0.4,2.4s-0.1,1.9-0.4,2.5
		s-0.8,1-1.4,1.2c0.2,0.1,0.4,0.2,0.6,0.4s0.3,0.4,0.5,0.8l2.6,4.9h-2.2l-2.8-5.5H136V53h-2.1V39.2z M139.5,45.6
		c0.3-0.1,0.6-0.3,0.8-0.7c0.2-0.3,0.3-0.9,0.3-1.7c0-0.6-0.1-1.1-0.2-1.5c-0.1-0.3-0.4-0.6-0.7-0.7c-0.3-0.1-0.8-0.2-1.4-0.2H136
		v4.8h2C138.6,45.8,139.1,45.7,139.5,45.6z"/>
	<path class="st1" d="M148.4,53.3c-0.7,0-1.3-0.2-1.8-0.7s-0.7-1.1-0.7-1.9v-1.4c0-0.9,0.3-1.6,0.8-2.1s1.3-0.8,2.2-0.8h2.6V46
		c0-0.5-0.1-0.9-0.3-1.1c-0.2-0.2-0.5-0.4-1.1-0.4c-1,0-1.8,0-2.6,0.1h-0.9l-0.1-1.6c0.3,0,0.8,0,1.5-0.1c1.1-0.1,1.8-0.1,2.1-0.1
		c1.2,0,2,0.3,2.6,0.8s0.8,1.3,0.8,2.5V53h-2.1v-0.6c-0.2,0.2-0.4,0.3-0.5,0.4c-0.2,0.1-0.4,0.2-0.8,0.2l-1.1,0.2
		C148.8,53.3,148.6,53.3,148.4,53.3z M151.5,51.1v-3.2h-2.6c-0.3,0-0.5,0.1-0.7,0.3s-0.3,0.4-0.3,0.7v1.8c0,0.3,0.1,0.5,0.3,0.6
		s0.5,0.2,0.8,0.2L151.5,51.1z"/>
	<path class="st1" d="M156,38.8h2.1V53H156V38.8z M162.1,44.7c-0.2-0.2-0.5-0.4-0.8-0.4c-0.1,0-0.2,0-0.3,0l-3,0.6v-1.6
		c0.1,0,0.2-0.1,0.4-0.2c0.2-0.1,0.4-0.2,0.8-0.2l1.2-0.2l0.5-0.1c0.2,0,0.5-0.1,0.7-0.1c0.6,0,1.1,0.1,1.6,0.4
		c0.5,0.3,0.8,0.6,1.1,1.1s0.4,1,0.4,1.6V53h-2.1v-7.4C162.4,45.3,162.3,44.9,162.1,44.7z"/>
	<path class="st1" d="M167,39.5h2.1v1.8H167V39.5z M167,42.8h2.1V53H167V42.8z"/>
	<path class="st1" d="M171.7,42.4h2.1V53h-2.1V42.4z M177.6,44.7c-0.2-0.2-0.5-0.4-0.8-0.4c-0.1,0-0.2,0-0.3,0l-3.4,0.7v-1.6
		c0.2-0.2,0.6-0.3,1.1-0.4c0.4-0.1,0.8-0.2,1.2-0.3c0.5-0.1,0.7-0.1,0.8-0.2c0.2,0,0.5-0.1,0.7-0.1c0.6,0,1.1,0.1,1.6,0.4
		c0.5,0.3,0.8,0.6,1.1,1.1s0.4,1,0.4,1.6V53h-2.1v-7.4C177.9,45.3,177.8,44.9,177.6,44.7z M183.5,44.7c-0.2-0.2-0.5-0.4-0.8-0.4
		c-0.1,0-0.2,0-0.3,0L179,45l0.1-1.6c0.1,0,0.2-0.1,0.4-0.2c0.2-0.1,0.4-0.2,0.7-0.2c0.4-0.1,0.9-0.2,1.6-0.3l0.5-0.1
		c0.2,0,0.5-0.1,0.7-0.1c0.6,0,1.1,0.1,1.6,0.4c0.5,0.3,0.8,0.6,1.1,1.1s0.4,1,0.4,1.6V53H184v-7.4
		C183.8,45.3,183.7,44.9,183.5,44.7z"/>
	<path class="st1" d="M192.8,44.7h-5v-1.9h7.4v1.8l-4.9,6.7h4.9v1.9h-7.4v-1.8L192.8,44.7z"/>
	<path class="st1" d="M199.2,53.3c-0.7,0-1.3-0.2-1.8-0.7s-0.7-1.1-0.7-1.9v-1.4c0-0.9,0.3-1.6,0.8-2.1s1.3-0.8,2.2-0.8h2.6V46
		c0-0.5-0.1-0.9-0.3-1.1c-0.2-0.2-0.5-0.4-1.1-0.4c-1,0-1.8,0-2.6,0.1h-0.9l-0.1-1.6c0.3,0,0.8,0,1.5-0.1c1.1-0.1,1.8-0.1,2.1-0.1
		c1.2,0,2,0.3,2.6,0.8s0.8,1.3,0.8,2.5V53h-2.1v-0.6c-0.2,0.2-0.4,0.3-0.5,0.4c-0.2,0.1-0.4,0.2-0.8,0.2l-1.1,0.2
		C199.6,53.3,199.4,53.3,199.2,53.3z M202.3,51.1v-3.2h-2.6c-0.3,0-0.5,0.1-0.7,0.3s-0.3,0.4-0.3,0.7v1.8c0,0.3,0.1,0.5,0.3,0.6
		s0.5,0.2,0.8,0.2L202.3,51.1z"/>
	<path class="st1" d="M207.2,51.9c-0.6-0.8-0.9-2.2-0.9-4s0.3-3.2,0.9-4c0.6-0.8,1.5-1.2,2.7-1.2c0.6,0,1.6,0.1,2.8,0.4v1.6
		c-1.2-0.1-2-0.2-2.6-0.2s-1.1,0.3-1.3,0.8c-0.3,0.5-0.4,1.4-0.4,2.7s0.1,2.2,0.4,2.7c0.3,0.5,0.7,0.8,1.3,0.8c0.5,0,1,0,1.7,0
		s1.2,0,1.7-0.1l1.2,1.6c-0.8,0.1-1.7,0.1-2.7,0.2c-1,0.1-1.7,0.1-2.1,0.1C208.6,53.2,207.7,52.7,207.2,51.9z M212.6,38.6h2.1v14.3
		l-2.1,0.1V38.6z"/>
	<path class="st1" d="M218,51.9c-0.8-0.9-1.1-2.2-1.1-3.9s0.4-3,1.1-3.9s1.8-1.4,3.2-1.4h0.4c1.3,0,2.3,0.5,2.9,1.4
		c0.6,0.9,1,2.2,1,3.8c0,0.3,0,0.5,0,0.8c0,0.2,0,0.4,0,0.4l-1.9-0.9c0-1.4-0.2-2.3-0.5-2.9s-0.8-0.9-1.5-0.9h-0.3
		c-1.6,0-2.4,1.2-2.4,3.7c0,1,0.1,1.7,0.3,2.2s0.4,0.9,0.8,1c0.3,0.2,0.8,0.3,1.4,0.3c0.5,0,1.2,0,1.9,0s1.3-0.1,1.9-0.2l0.2,1.5
		c-1.5,0.2-2.9,0.4-4.1,0.4C219.9,53.2,218.8,52.8,218,51.9z M218.5,47.5h6.6l0.4,1.5h-7V47.5z"/>
	<path class="st1" d="M227.6,38.8h2.1V53h-2.1V38.8z M233.7,44.7c-0.2-0.2-0.5-0.4-0.8-0.4c-0.1,0-0.2,0-0.3,0l-3,0.6v-1.6
		c0.1,0,0.2-0.1,0.4-0.2c0.2-0.1,0.4-0.2,0.8-0.2l1.2-0.2l0.5-0.1c0.2,0,0.5-0.1,0.7-0.1c0.6,0,1.1,0.1,1.6,0.4
		c0.5,0.3,0.8,0.6,1.1,1.1s0.4,1,0.4,1.6V53H234v-7.4C234,45.3,233.9,44.9,233.7,44.7z"/>
</g>
</svg>
