<?xml version="1.0" encoding="utf-8"?>
<!-- Generator: Adobe Illustrator 26.3.0, SVG Export Plug-In . SVG Version: 6.00 Build 0)  -->
<svg version="1.1" id="Layer_1" xmlns="http://www.w3.org/2000/svg" xmlns:xlink="http://www.w3.org/1999/xlink" x="0px" y="0px"
	 viewBox="0 0 200 130" style="enable-background:new 0 0 200 130;" xml:space="preserve">
<style type="text/css">
	.st0{fill:#FFFFFF;}
</style>
<g>
	<g>
		<path class="st0" d="M130.12,100.51v6.3c0,1.11-0.9,2.02-2.02,2.02h-2.14v2.08h4.18c2.28,0,4.14-1.85,4.14-4.14v-6.26H130.12z"/>
		<path class="st0" d="M103.09,106.81c0,1.11-0.9,2.02-2.02,2.02H96.3c0.35-0.61,0.55-1.31,0.55-2.06v-6.26h-4.16v6.3
			c0,1.11-0.9,2.01-2.01,2.01h-2.15l0.01-2.06v-6.26h-4.16v6.3c0,1.11-0.9,2.01-2.01,2.01h-2.08l0.01-2.06v-6.26h-4.16v6.3
			c0,1.11-0.9,2.01-2.01,2.01h-4.22V94.27h-4.16v16.63h10.42c1.02,0,1.95-0.37,2.67-0.97l0.54,0.97h5.04c1.04,0,1.99-0.38,2.71-1.01
			l0.56,1.01h5.04c1.04,0,1.99-0.38,2.71-1.02l0.56,1.02h7.12c2.28,0,4.14-1.85,4.14-4.14v-6.26h-4.16V106.81z"/>
		<path class="st0" d="M113.51,100.51h-4.18v2.08h2.14c1.11,0,2.02,0.9,2.02,2.02v2.21c0,1.11-0.9,2.02-2.02,2.02h-2.14v2.08h4.18
			c2.28,0,4.14-1.85,4.14-4.14v-2.13C117.64,102.36,115.79,100.51,113.51,100.51z"/>
		<rect x="96.91" y="112.98" class="st0" width="6.24" height="2.08"/>
		<rect x="119.72" y="94.27" class="st0" width="4.16" height="16.63"/>
	</g>
	<path class="st0" d="M88.44,72.54H65.72V37.77c0-12.61,10.22-22.83,22.83-22.83h22.87v12.08H98.86c-5.69,0-10.3,4.6-10.32,10.29
		L88.44,72.54z"/>
	<path class="st0" d="M111.56,27.12h22.72V61.9c0,12.61-10.22,22.83-22.83,22.83H88.57V72.64h12.57c5.69,0,10.3-4.6,10.32-10.29
		L111.56,27.12z"/>
</g>
</svg>
