<?xml version="1.0" encoding="utf-8"?>
<!-- Generator: Adobe Illustrator 26.3.0, SVG Export Plug-In . SVG Version: 6.00 Build 0)  -->
<svg version="1.1" id="Layer_1" xmlns="http://www.w3.org/2000/svg" xmlns:xlink="http://www.w3.org/1999/xlink" x="0px" y="0px"
	 viewBox="0 0 200 130" style="enable-background:new 0 0 200 130;" xml:space="preserve">
<style type="text/css">
	.st0{fill:#FFFFFF;}
</style>
<g>
	<path class="st0" d="M110.83,27.49l-5.65,9.39c0,0,5.17,6.56,17.1,11.74H96.61c0,0,0.43-16.86-13.37-16.86S59.68,48.61,48.33,48.61
		V27.49h-8.98v30.2c0,0,0.72,0,7.54,0s13.43-3.38,18.75-7.9s8.58-8.05,15.17-8.05s8.75,9.34,2.5,15.59h72.42l5.31-8.77
		c0,0-11.42,0.24-27.8-6.22C117.61,36.17,110.83,27.49,110.83,27.49z"/>
	<circle class="st0" cx="150.11" cy="37.23" r="5.37"/>
	<path class="st0" d="M160.55,75.02v4.48h-19.32c-1.92,0-3.48-1.56-3.48-3.48V65.93l3.68-3.68c0,0,0,11.85,0,12.61
		c0,0.76,0.44,1.04,0.94,1.04h14.58c0-2.15-0.94-3.19-2.23-3.19h-10.01l3.31-3.64h6.57C157.88,69.06,160.55,71.73,160.55,75.02z"/>
	
		<rect x="145.54" y="63.2" transform="matrix(0.7071 -0.7071 0.7071 0.7071 -2.7998 123.1956)" class="st0" width="3.55" height="3.55"/>
	
		<rect x="129.9" y="63.2" transform="matrix(0.7071 -0.7071 0.7071 0.7071 -7.3781 112.1364)" class="st0" width="3.55" height="3.55"/>
	
		<rect x="44.95" y="63.2" transform="matrix(0.7071 -0.7071 0.7071 0.7071 -32.2616 52.0689)" class="st0" width="3.55" height="3.55"/>
	
		<rect x="107.14" y="97.4" transform="matrix(0.7071 -0.7071 0.7071 0.7071 -38.2249 106.0607)" class="st0" width="3.55" height="3.55"/>
	<polygon class="st0" points="145.58,87.76 143.07,85.25 140.83,87.5 138.58,85.25 136.08,87.76 138.58,90.26 140.83,88.02 
		143.07,90.26 	"/>
	
		<rect x="149.02" y="85.99" transform="matrix(0.7071 -0.7071 0.7071 0.7071 -17.8916 132.3333)" class="st0" width="3.55" height="3.55"/>
	<path class="st0" d="M130.77,72.7v2.43c0,0.29-0.23,0.52-0.52,0.52h-2.01c-0.29,0-0.52-0.23-0.52-0.52v-5.84h-5.11
		c-3.06,0-5.55,2.49-5.55,5.55v4.1c0,0.19,0.15,0.33,0.33,0.33h8c0.22,0,0.66-0.24,0.66-0.61c0,0,0.11,0.61,0.48,0.61h5.38
		c1.26,0,2.28-1.02,2.28-2.28v-7.7L130.77,72.7z M124.22,75.01c0,0.44-0.35,0.79-0.79,0.79h-2.85v-0.01c0-1.9,1.53-3.44,3.43-3.44
		h0.21L124.22,75.01L124.22,75.01z"/>
	<path class="st0" d="M113.48,69.02h-9.71c-1.36,0-1.74,0.95-1.74,0.95v-7.82c0-0.13-0.16-0.19-0.25-0.1l-3.6,3.59v10.14H94.5v-6.82
		l-3.74,3.38l-0.03,6.25c-0.01,1.2-0.97,2.15-2.16,2.15h-0.96l-3.5,3.45h5.71c1.3,0,2.48-0.52,3.33-1.38
		c0.85-0.85,1.37-2.03,1.37-3.32c0,0,3.57,0,4.45,0c0.89,0,1.06-0.61,1.06-0.61s0.36,0.61,0.89,0.61h7.06c3.37,0,6.1-2.73,6.1-6.1
		v-3.76C114.09,69.29,113.81,69.02,113.48,69.02z M110.37,73.19c0,1.43-1.16,2.6-2.61,2.6h-5.91c0-1.78,1.45-3.23,3.23-3.23h5.28
		V73.19z"/>
	<path class="st0" d="M84.1,79.61V65.65l3.64-3.64v14.14c0,1.9-1.54,3.45-3.45,3.45l0,0"/>
	<path class="st0" d="M156.67,102.29V88.34l3.64-3.64v14.14c0,1.9-1.54,3.45-3.45,3.45l0,0"/>
	<path class="st0" d="M94.66,102.29V88.34l3.64-3.64v14.14c0,1.9-1.54,3.45-3.45,3.45l0,0"/>
	<path class="st0" d="M64.99,72.66l3.42-3.62h6.05c3.52,0,6.39,2.86,6.39,6.39v3.66c0,0.22-0.18,0.39-0.39,0.39H61.8
		c-2.04,0-3.7-1.66-3.7-3.7V65.65l3.66-3.64v13.26c0,0.22,0.17,0.39,0.39,0.39h14.78v-0.57c0-1.32-1.06-2.38-2.38-2.39L64.99,72.66z
		"/>
	<path class="st0" d="M42.83,67.17v5.88c0,1.53,1.25,2.78,2.78,2.78h2.95c1.53,0,2.78-1.25,2.78-2.78v-5.62l3.52-3.45v9.48
		c0,3.33-2.7,6.03-6.03,6.03h-3.39c-3.33,0-6.03-2.7-6.03-6.03v-2.71L42.83,67.17z"/>
	<path class="st0" d="M101.35,91.29v3.73h14.34c1.97,0,3.57-1.6,3.57-3.57v-6.49l-3.79,3.55v2.33c0,0.3-0.25,0.55-0.55,0.54
		L101.35,91.29z"/>
	<path class="st0" d="M149.93,95.28v2.75c0,0.32-0.26,0.59-0.59,0.59h-2.07c-0.33,0-0.59-0.27-0.59-0.59v-5.68
		c0-0.29-0.23-0.51-0.51-0.51h-4.23c-3.25,0-5.88,2.63-5.88,5.88v0.52c0,0.21-0.17,0.38-0.38,0.38h-2.46
		c-0.21,0-0.38-0.17-0.38-0.38V84.7l-3.73,3.82v9.59c0,0.29-0.23,0.52-0.52,0.52h-1.84c-0.29,0-0.52-0.23-0.52-0.52V84.7l-3.86,3.77
		v10.92c0,1.6,1.3,2.9,2.9,2.9h4.9c0.42,0,1-0.28,1-0.67c0,0,0.11,0.67,0.83,0.67h11.95c1,0,0.96-0.63,0.96-0.63
		s0.22,0.63,1.08,0.63h4.03c1.94,0,3.51-1.57,3.51-3.51v-6.8L149.93,95.28z M142.99,98.15c0,0.21-0.17,0.39-0.38,0.39h-2.63
		c-0.11,0-0.19-0.09-0.19-0.2v-0.77c0-1.21,0.98-2.19,2.19-2.19h0.8c0.12,0,0.2,0.08,0.2,0.2L142.99,98.15L142.99,98.15z"/>
	<path class="st0" d="M87.74,93.5l3.62-3.5v9.32c0,1.64-1.33,2.98-2.98,2.98H73.26c-0.67,0-0.8-0.62-0.8-0.62s-0.11,0.62-1.16,0.62
		h-4.82c-1.61,0-2.92-1.3-2.92-2.92V88.73l3.88-3.81v13.69h3.12V88.44l3.73-3.52v13.8h3.02v-1.76l3.92-3.92v5.47
		c0,0.18,0.14,0.32,0.32,0.32h0.92c0.18,0,0.32-0.14,0.32-0.32v-3.53l3.62-3.62v7.17c0,0.19,0.15,0.33,0.33,0.33h0.68
		c0.19,0,0.33-0.15,0.33-0.33L87.74,93.5z"/>
	<path class="st0" d="M58.86,98.62h-15.8v-1.3c0-1.09,0.88-1.97,1.97-1.97H60c0.17,0,0.3-0.13,0.3-0.3v-7.01
		c0-1.57-1.26-2.85-2.85-2.85h-7.69v6.37l-5.26,0.02c-3,0.02-5.42,2.44-5.42,5.44v4.87c0,0.2,0.17,0.37,0.37,0.37h23.1L58.86,98.62z
		 M53.6,88.7h2.75c0.28,0,0.49,0.22,0.49,0.49v2.65h-2.1c-0.63,0-1.14-0.51-1.14-1.13V88.7z"/>
</g>
</svg>
