<?xml version="1.0" encoding="utf-8"?>
<!-- Generator: Adobe Illustrator 26.3.0, SVG Export Plug-In . SVG Version: 6.00 Build 0)  -->
<svg version="1.1" id="Layer_1" xmlns="http://www.w3.org/2000/svg" xmlns:xlink="http://www.w3.org/1999/xlink" x="0px" y="0px"
	 viewBox="0 0 200 130" style="enable-background:new 0 0 200 130;" xml:space="preserve">
<style type="text/css">
	.st0{fill-rule:evenodd;clip-rule:evenodd;fill:#FFFFFF;}
	.st1{fill:#FFFFFF;}
</style>
<g>
	<g>
		<path class="st0" d="M112.36,46.56c-7.88,0-15.76,0-23.64,0c-6.79-9.2-2.63-14.65,0.31-16.87c0.06,3.1,1.77,7,3.4,7.73
			c-1.33-6.32-0.84-14.91,4.32-16.51c-0.36,2.65-0.02,6.08,1.16,8.95c0.97,2.36,2.5,4.04,3.62,4.92c-1.22-4.9-4.42-13.65,0.96-19.86
			C104.27,25.39,123.93,32.93,112.36,46.56z"/>
		<polygon class="st0" points="114.61,53.22 86.09,53.22 86.08,50.45 114.59,50.45 		"/>
		<path class="st0" d="M91.09,59.42l0-2.14l18.59,0.05l0,2.07l-2.3-0.02c-3.42,2.78-6.29,6.84-7.18,11.8
			c-1.36-4.92-3.64-8.86-7.44-11.8L91.09,59.42z"/>
		<path class="st0" d="M57.82,87.58c1.99,0.56,3.46,0.71,4.92,0.63c8.02-2.82,1.06-15.1-8.98-7.82c-6.54,6.2-1.2,16.11,5.66,16.92
			c7.82,0.56,10.08-2.71,12.3-7.12c3.9,1.66,7.75,1.62,11.78,1.63c0.89,0.92,1.71,1.64,1.8,4.2c2.79-1.36,2.56-4.73-0.47-6.61
			c1.36-2.96,2.61-9.99-4.1-9.98c0.71,4.83-1.27,6.01-4.41,5.96c-2.99-0.05-5.21-2.89-6.25-6.54c-2.43-17.91,23.6-17.31,21.51,0.26
			c0.6,0.64,0.94,0.93,1.54,1.57c-7.26,8.01-0.46,17.5,7.27,17.18c6.76-0.28,13.66-8.82,6.66-17.1l1.53-1.61
			c-1.31-11.98,8.78-15.02,14.37-12.85c6.86,1.87,10.64,12.92,3.16,18.69c-1.46,0.54-4.12,0.96-5.77-0.66
			c-1.09-1.07-1.46-2.74-0.87-4.89c-2.48-0.88-7.72,2.72-4.15,9.85c-2.59,1.35-3.5,5.85-0.49,6.78c0.03-2.03,0.87-3.36,1.95-4.3
			c3.91,0.22,7.89-0.05,11.74-1.46c4.13,11.37,20.21,8.38,20.69-2.34c0.55-11.68-15.11-12.98-15.33-4.23
			c0.17,4.58,4.81,5.58,8.46,3.71c0.54,6.13-5.68,5.51-8.4,3.22c-5.49-4.01-2.54-12.76,2.5-14.28c0-18.93-31.47-24-33.57-0.27
			c-1.27,2.22-3.43,3.41-5.54,0.25C95.5,53.22,63.78,56.1,63.89,76.35c1.21,0.95,3.47,2.26,4.46,4.48
			c2.02,4.56,0.3,11.41-6.88,11.37C59.37,92.27,57.36,89.98,57.82,87.58L57.82,87.58z M100,83.78c2.47,0,4.48,2,4.48,4.48
			c0,2.47-2,4.48-4.48,4.48c-2.47,0-4.48-2-4.48-4.48C95.53,85.78,97.53,83.78,100,83.78z"/>
	</g>
	<g>
		<path class="st1" d="M48.5,105.07l-1.44,1.14c0.07,0.14,0.14,0.3,0.21,0.47c0.07,0.17,0.13,0.35,0.19,0.53
			c0.06,0.18,0.12,0.36,0.17,0.55c0.05,0.18,0.09,0.36,0.13,0.52c-0.12,0.06-0.25,0.1-0.4,0.13c-0.15,0.03-0.29,0.05-0.43,0.07
			c-0.14,0.01-0.26,0.02-0.37,0.02s-0.18,0-0.22,0h-0.12h-2.47c-0.24,0-0.42,0.04-0.55,0.11c-0.13,0.08-0.22,0.22-0.29,0.43
			l-0.36,1.2c0.37,0.09,0.72,0.18,1.06,0.29c0.34,0.1,0.59,0.23,0.75,0.37c-0.27,0.1-0.59,0.16-0.94,0.19
			c-0.36,0.03-0.69,0.05-0.99,0.05c-0.18,0-0.36-0.01-0.52-0.04c-0.16-0.02-0.31-0.06-0.45-0.1c-0.14-0.04-0.25-0.08-0.34-0.13
			c-0.09-0.05-0.15-0.1-0.19-0.16c-0.06-0.09-0.1-0.2-0.13-0.33c-0.03-0.13-0.05-0.29-0.05-0.47c0-0.23,0.03-0.51,0.1-0.82
			c0.06-0.32,0.17-0.69,0.32-1.13l-1.08-0.36c-0.2,0.43-0.37,0.91-0.5,1.43c-0.14,0.52-0.2,1.03-0.2,1.54
			c0,0.34,0.04,0.65,0.11,0.94c0.07,0.29,0.19,0.55,0.36,0.78c0.16,0.22,0.44,0.43,0.85,0.62c0.41,0.19,0.94,0.28,1.61,0.28
			c0.33,0,0.65-0.03,0.97-0.08c0.32-0.06,0.61-0.13,0.88-0.23c0.27-0.1,0.51-0.21,0.72-0.34c0.21-0.13,0.38-0.27,0.5-0.43
			c0.02-0.02,0.05-0.07,0.09-0.17c0.04-0.1,0.09-0.2,0.14-0.32s0.09-0.25,0.13-0.38c0.04-0.13,0.06-0.24,0.06-0.33
			c0-0.06-0.01-0.11-0.02-0.17c-0.01-0.06-0.04-0.12-0.08-0.19h0.53c0.21,0,0.42-0.01,0.63-0.04s0.41-0.07,0.59-0.11
			c0.18-0.05,0.35-0.11,0.49-0.17c0.14-0.07,0.25-0.14,0.32-0.21s0.16-0.19,0.26-0.37c0.1-0.17,0.2-0.36,0.3-0.55
			c0.1-0.2,0.18-0.39,0.24-0.57c0.06-0.18,0.1-0.33,0.1-0.43c0-0.48-0.06-0.99-0.17-1.52C48.87,106.02,48.71,105.53,48.5,105.07z"/>
		<path class="st1" d="M47.1,111.19l-0.79,1.38c0.23,0.14,0.48,0.28,0.76,0.44c0.27,0.16,0.5,0.31,0.68,0.46l0.82-1.34
			c-0.18-0.18-0.4-0.35-0.65-0.51C47.67,111.46,47.39,111.31,47.1,111.19z"/>
		<path class="st1" d="M56.77,105.43l0.83-1.34c-0.18-0.18-0.4-0.35-0.65-0.51c-0.25-0.16-0.52-0.31-0.82-0.43l-0.79,1.38
			c0.23,0.14,0.48,0.29,0.75,0.45C56.36,105.15,56.59,105.3,56.77,105.43z"/>
		<path class="st1" d="M62.45,105.6c-0.33-0.1-0.59-0.18-0.77-0.22c-0.19-0.04-0.35-0.07-0.49-0.07s-0.28,0.05-0.44,0.14
			c-0.16,0.09-0.3,0.2-0.44,0.32s-0.26,0.25-0.36,0.38c-0.1,0.13-0.17,0.23-0.2,0.3c-0.03,0.07-0.06,0.18-0.09,0.32
			c-0.03,0.14-0.06,0.29-0.08,0.46c-0.03,0.17-0.05,0.34-0.07,0.5c-0.02,0.17-0.04,0.32-0.05,0.46l1.38-0.3
			c0.02-0.12,0.03-0.25,0.05-0.38c0.02-0.14,0.04-0.25,0.07-0.34c0.18,0,0.42,0.04,0.73,0.11c0.31,0.07,0.75,0.2,1.31,0.37
			c-0.12,0.06-0.27,0.15-0.46,0.25c-0.19,0.1-0.37,0.2-0.56,0.29c-0.22,0.11-0.45,0.19-0.67,0.23c-0.22,0.04-0.44,0.07-0.65,0.07
			h-1.92c-0.13,0-0.26-0.01-0.38-0.02c-0.13-0.02-0.25-0.05-0.35-0.1c-0.11-0.05-0.2-0.12-0.27-0.22s-0.12-0.22-0.13-0.38l-0.18-1.8
			l-1.56,0.78c0.02,0.26,0.05,0.51,0.07,0.76c0.02,0.25,0.05,0.51,0.08,0.76c-0.13,0.06-0.27,0.1-0.41,0.13
			c-0.15,0.03-0.29,0.05-0.43,0.06c-0.14,0.01-0.26,0.02-0.36,0.02s-0.18,0.01-0.22,0.01h-0.12h-0.55
			c-0.06-0.31-0.15-0.62-0.27-0.93c-0.12-0.31-0.26-0.58-0.44-0.83s-0.38-0.44-0.62-0.59c-0.24-0.15-0.51-0.23-0.82-0.23
			c-0.43,0-0.78,0.18-1.04,0.53c-0.26,0.36-0.46,0.82-0.61,1.39c-0.06,0.24-0.12,0.48-0.17,0.71c-0.05,0.24-0.07,0.46-0.07,0.67
			c0,0.38,0.13,0.7,0.4,0.95s0.65,0.37,1.16,0.37c0.21,0,0.41-0.01,0.62-0.02c0.2-0.01,0.41-0.04,0.62-0.08
			c-0.21,0.23-0.45,0.43-0.73,0.61s-0.53,0.28-0.74,0.33l-1.38-0.12l-0.36,1.26c0.18,0.09,0.36,0.17,0.56,0.26s0.39,0.16,0.57,0.23
			c0.18,0.07,0.34,0.12,0.48,0.17s0.24,0.07,0.31,0.07c0.2,0,0.43-0.06,0.68-0.19s0.5-0.3,0.74-0.54c0.24-0.24,0.46-0.52,0.66-0.85
			s0.35-0.71,0.44-1.12h0.56c0.21,0,0.42-0.01,0.63-0.04s0.41-0.07,0.59-0.11c0.18-0.05,0.35-0.11,0.49-0.17
			c0.14-0.07,0.25-0.14,0.32-0.21c0.02-0.02,0.04-0.05,0.07-0.1c0.03-0.05,0.07-0.12,0.13-0.21c0.1,0.19,0.23,0.34,0.39,0.46
			c0.16,0.11,0.32,0.2,0.5,0.26c0.18,0.06,0.35,0.1,0.53,0.11c0.18,0.02,0.34,0.02,0.49,0.02h0.12h1.74c0.39,0,0.74-0.07,1.04-0.2
			c0.3-0.14,0.6-0.31,0.88-0.52c0.39-0.3,0.72-0.54,0.98-0.72c0.26-0.18,0.49-0.32,0.68-0.42c0.19-0.1,0.36-0.16,0.51-0.19
			c0.15-0.03,0.31-0.05,0.47-0.05l0.67-1.73c-0.8-0.27-1.46-0.5-1.98-0.68C63.2,105.85,62.77,105.71,62.45,105.6z M52.08,108.61
			c-0.14,0-0.3,0-0.46,0c-0.18,0-0.32-0.02-0.41-0.07c-0.09-0.05-0.13-0.1-0.13-0.17c0-0.04,0.01-0.1,0.02-0.18
			c0.02-0.08,0.05-0.16,0.09-0.24s0.1-0.15,0.17-0.21s0.15-0.09,0.26-0.09c0.18,0,0.36,0.09,0.52,0.28c0.16,0.18,0.3,0.4,0.43,0.66
			C52.39,108.61,52.22,108.61,52.08,108.61z"/>
		<path class="st1" d="M61.5,111.19l-0.79,1.38c0.23,0.14,0.48,0.28,0.76,0.44c0.27,0.16,0.5,0.31,0.68,0.46l0.82-1.34
			c-0.18-0.18-0.4-0.35-0.65-0.51S61.79,111.31,61.5,111.19z"/>
		<path class="st1" d="M78.9,110.11c0.09-0.09,0.18-0.21,0.28-0.37c0.1-0.16,0.19-0.33,0.28-0.52c0.08-0.18,0.15-0.37,0.2-0.55
			c0.05-0.18,0.08-0.34,0.08-0.48s-0.01-0.32-0.03-0.54c-0.02-0.22-0.05-0.47-0.1-0.75s-0.11-0.57-0.2-0.89
			c-0.08-0.32-0.19-0.63-0.33-0.94l-1.44,1.14c0.06,0.15,0.12,0.32,0.19,0.52c0.07,0.19,0.13,0.39,0.19,0.59
			c0.06,0.2,0.11,0.4,0.16,0.59c0.05,0.19,0.09,0.36,0.12,0.52c-0.15,0.03-0.3,0.05-0.44,0.05s-0.25,0.01-0.34,0.01
			c-0.07,0-0.16-0.01-0.26-0.03c-0.1-0.02-0.2-0.05-0.28-0.1v-1.61h-1.26l-0.12,1.32c-0.06,0.28-0.32,0.42-0.78,0.42
			c-0.14,0-0.25-0.01-0.34-0.04c-0.09-0.02-0.16-0.07-0.23-0.13c-0.06-0.06-0.12-0.15-0.16-0.26c-0.04-0.11-0.08-0.25-0.12-0.41
			l-0.3-1.32l-1.5,0.9c0.14,0.61,0.26,1.17,0.34,1.69c0.08,0.52,0.15,1.02,0.19,1.49c-0.36,0.14-0.76,0.24-1.21,0.31
			c-0.44,0.07-0.88,0.11-1.3,0.11c-0.18,0-0.36-0.01-0.52-0.04c-0.16-0.02-0.31-0.06-0.45-0.1c-0.14-0.04-0.25-0.08-0.34-0.13
			c-0.09-0.05-0.15-0.1-0.19-0.16c-0.06-0.09-0.1-0.2-0.13-0.33s-0.05-0.29-0.05-0.47c0-0.23,0.03-0.51,0.1-0.82
			c0.06-0.32,0.17-0.69,0.32-1.13l-1.08-0.36c-0.2,0.43-0.37,0.91-0.5,1.43c-0.14,0.52-0.2,1.03-0.2,1.54
			c0,0.34,0.04,0.65,0.11,0.94c0.07,0.29,0.19,0.55,0.36,0.78c0.16,0.22,0.44,0.43,0.85,0.62c0.41,0.19,0.94,0.28,1.61,0.28
			c0.39,0,0.77-0.03,1.13-0.09c0.36-0.06,0.7-0.14,1-0.24c0.3-0.1,0.57-0.21,0.79-0.33c0.22-0.12,0.39-0.24,0.49-0.36
			c0.06-0.06,0.15-0.21,0.26-0.44c0.11-0.23,0.2-0.46,0.28-0.7c0.02-0.06,0.03-0.11,0.04-0.16c0.01-0.05,0.03-0.1,0.04-0.15
			c0.1,0.06,0.2,0.1,0.3,0.11c0.1,0.01,0.22,0.02,0.34,0.02c0.28,0,0.53-0.03,0.76-0.1c0.23-0.07,0.44-0.22,0.64-0.45
			c0.18,0.21,0.39,0.35,0.62,0.43c0.23,0.08,0.45,0.12,0.68,0.12c0.3,0,0.59-0.04,0.86-0.12C78.58,110.33,78.78,110.23,78.9,110.11z
			"/>
		<path class="st1" d="M81.84,106.33l-1.38,1.14c0.09,0.18,0.18,0.38,0.28,0.6s0.18,0.43,0.26,0.65c0.08,0.22,0.15,0.42,0.22,0.62
			c0.06,0.2,0.11,0.38,0.14,0.53c-0.05,0.15-0.14,0.31-0.26,0.47s-0.27,0.32-0.44,0.46c-0.16,0.14-0.33,0.26-0.51,0.37
			c-0.18,0.1-0.33,0.17-0.47,0.2l-1.38-0.12l-0.36,1.26c0.18,0.09,0.36,0.17,0.56,0.26c0.2,0.08,0.39,0.16,0.57,0.23
			c0.18,0.07,0.34,0.12,0.48,0.17s0.24,0.07,0.31,0.07c0.27,0,0.57-0.09,0.91-0.27c0.33-0.18,0.64-0.43,0.94-0.75
			c0.29-0.32,0.54-0.7,0.74-1.15c0.2-0.45,0.3-0.94,0.3-1.49c0-0.33-0.06-0.75-0.18-1.26S82.2,107.14,81.84,106.33z"/>
		<path class="st1" d="M87.17,111.19l-0.47,0.82c-0.18-0.16-0.38-0.31-0.6-0.45c-0.22-0.14-0.47-0.26-0.73-0.37l-0.79,1.38
			c0.23,0.14,0.48,0.28,0.76,0.44c0.27,0.16,0.5,0.31,0.68,0.46l0.5-0.83c0.22,0.13,0.45,0.26,0.69,0.41
			c0.24,0.14,0.45,0.28,0.61,0.42l0.82-1.34c-0.18-0.18-0.4-0.35-0.65-0.51C87.73,111.46,87.46,111.31,87.17,111.19z"/>
		<path class="st1" d="M86.63,113.14c-0.12,0.21-0.23,0.4-0.33,0.59c-0.1,0.18-0.21,0.38-0.34,0.6c0.21,0.12,0.42,0.24,0.63,0.37
			s0.41,0.26,0.59,0.4l0.71-1.14c-0.17-0.16-0.36-0.31-0.56-0.44C87.11,113.37,86.88,113.25,86.63,113.14z"/>
		<path class="st1" d="M88.2,105.07l-1.44,1.14c0.07,0.14,0.14,0.3,0.21,0.47c0.07,0.17,0.13,0.35,0.19,0.53
			c0.06,0.18,0.12,0.36,0.17,0.55c0.05,0.18,0.09,0.36,0.13,0.52c-0.12,0.06-0.25,0.1-0.4,0.13c-0.15,0.03-0.29,0.05-0.43,0.07
			c-0.14,0.01-0.26,0.02-0.37,0.02s-0.18,0-0.22,0h-0.12h-0.24c-0.34,0-0.57-0.07-0.7-0.22c-0.13-0.15-0.2-0.37-0.2-0.68v-3.24
			c0-0.46-0.02-0.85-0.07-1.19c-0.04-0.34-0.14-0.64-0.29-0.91l-1.32,1.2c0.06,0.19,0.11,0.41,0.15,0.64
			c0.04,0.24,0.07,0.48,0.09,0.74c0.02,0.18,0.03,0.36,0.04,0.56c0.01,0.2,0.01,0.42,0.02,0.67s0.01,0.55,0.01,0.88s0,0.73,0,1.19
			c0,0.34,0.03,0.66,0.1,0.95c0.07,0.29,0.18,0.55,0.35,0.76c0.16,0.22,0.38,0.38,0.66,0.5c0.28,0.12,0.63,0.18,1.05,0.18h0.36
			c0.21,0,0.42-0.01,0.63-0.04s0.41-0.07,0.59-0.11c0.18-0.05,0.35-0.11,0.49-0.17c0.14-0.07,0.25-0.14,0.32-0.21
			s0.16-0.19,0.26-0.37c0.1-0.17,0.2-0.36,0.3-0.55c0.1-0.2,0.18-0.39,0.24-0.57c0.06-0.18,0.1-0.33,0.1-0.43
			c0-0.48-0.06-0.99-0.17-1.52C88.57,106.02,88.41,105.53,88.2,105.07z"/>
		<path class="st1" d="M93.24,106.33l-1.38,1.14c0.09,0.18,0.18,0.38,0.28,0.6s0.18,0.43,0.26,0.65c0.08,0.22,0.15,0.42,0.22,0.62
			c0.06,0.2,0.11,0.38,0.14,0.53c-0.05,0.15-0.14,0.31-0.26,0.47s-0.27,0.32-0.44,0.46c-0.16,0.14-0.33,0.26-0.51,0.37
			c-0.18,0.1-0.33,0.17-0.47,0.2l-1.38-0.12l-0.36,1.26c0.18,0.09,0.36,0.17,0.56,0.26c0.2,0.08,0.39,0.16,0.57,0.23
			c0.18,0.07,0.34,0.12,0.48,0.17s0.24,0.07,0.31,0.07c0.27,0,0.57-0.09,0.91-0.27c0.33-0.18,0.64-0.43,0.94-0.75
			c0.29-0.32,0.54-0.7,0.74-1.15c0.2-0.45,0.3-0.94,0.3-1.49c0-0.33-0.06-0.75-0.18-1.26S93.6,107.14,93.24,106.33z"/>
		<path class="st1" d="M92.9,106.21l0.83-1.34c-0.18-0.18-0.4-0.35-0.65-0.51s-0.52-0.31-0.82-0.43l-0.79,1.38
			c0.23,0.14,0.48,0.29,0.75,0.45C92.49,105.93,92.72,106.08,92.9,106.21z"/>
		<path class="st1" d="M98.16,103.51c-0.14,0.12-0.25,0.27-0.33,0.45c-0.08,0.18-0.15,0.41-0.19,0.68c-0.04,0.27-0.09,0.6-0.14,0.97
			c0.63,0.43,1.18,0.88,1.64,1.34s0.8,0.9,1,1.31c-0.18,0.06-0.39,0.1-0.63,0.13c-0.24,0.03-0.48,0.05-0.72,0.07
			c-0.24,0.01-0.47,0.02-0.69,0.02s-0.4,0.01-0.54,0.01h-0.24h0h-0.24c-0.34,0-0.57-0.07-0.7-0.22c-0.13-0.15-0.2-0.37-0.2-0.68
			v-3.24c0-0.46-0.02-0.85-0.07-1.19c-0.04-0.34-0.14-0.64-0.29-0.91l-1.32,1.2c0.06,0.19,0.11,0.41,0.15,0.64
			c0.04,0.24,0.07,0.48,0.09,0.74c0.02,0.18,0.03,0.36,0.04,0.56c0.01,0.2,0.01,0.42,0.02,0.67s0.01,0.55,0.01,0.88s0,0.73,0,1.19
			c0,0.34,0.03,0.66,0.1,0.95c0.07,0.29,0.18,0.55,0.35,0.76c0.16,0.22,0.38,0.38,0.66,0.5c0.28,0.12,0.63,0.18,1.05,0.18h0.36h0
			h0.18c0.31,0,0.63-0.01,0.95-0.02c0.32-0.02,0.63-0.05,0.92-0.1s0.55-0.11,0.77-0.2c0.23-0.08,0.41-0.2,0.53-0.34
			c0.06-0.07,0.13-0.19,0.23-0.34s0.19-0.32,0.28-0.5s0.17-0.36,0.23-0.53c0.06-0.18,0.1-0.32,0.1-0.42c0-0.2-0.04-0.42-0.12-0.67
			s-0.21-0.51-0.38-0.79c-0.18-0.28-0.4-0.57-0.68-0.87c-0.28-0.3-0.61-0.61-1-0.92l2.84-0.83l0.42-1.86l-3.9,1.1
			C98.47,103.3,98.29,103.39,98.16,103.51z"/>
		<polygon class="st1" points="101.46,101.03 98.43,101.98 98.3,102.89 101.33,101.95 		"/>
		<path class="st1" d="M117.57,105.43l0.5-0.82c0.22,0.13,0.45,0.26,0.69,0.41c0.24,0.14,0.45,0.28,0.61,0.41l0.82-1.34
			c-0.18-0.18-0.4-0.35-0.65-0.51s-0.52-0.31-0.82-0.43l-0.47,0.82c-0.18-0.15-0.38-0.3-0.6-0.44s-0.47-0.27-0.73-0.38l-0.79,1.38
			c0.23,0.14,0.48,0.28,0.76,0.44C117.16,105.14,117.39,105.29,117.57,105.43z"/>
		<path class="st1" d="M123.18,111.19l-0.79,1.38c0.23,0.14,0.48,0.28,0.76,0.44c0.27,0.16,0.5,0.31,0.68,0.46l0.82-1.34
			c-0.18-0.18-0.4-0.35-0.65-0.51S123.47,111.31,123.18,111.19z"/>
		<path class="st1" d="M132.8,106.84c-0.14-0.26-0.32-0.47-0.53-0.63s-0.44-0.23-0.7-0.23c-0.24,0-0.45,0.05-0.62,0.14
			c-0.18,0.09-0.34,0.22-0.49,0.37s-0.3,0.34-0.44,0.55c-0.15,0.21-0.31,0.44-0.49,0.68c-0.1,0.14-0.21,0.26-0.31,0.36
			c-0.1,0.1-0.22,0.18-0.35,0.24c-0.13,0.06-0.28,0.11-0.46,0.14s-0.38,0.04-0.62,0.04h-0.9c-0.18,0-0.33-0.01-0.45-0.04
			s-0.24-0.1-0.34-0.22c0.23-0.12,0.48-0.19,0.73-0.22l0.54-1.56c-0.77-0.21-1.41-0.38-1.93-0.53c-0.52-0.14-0.95-0.26-1.29-0.35
			s-0.61-0.16-0.81-0.2c-0.2-0.04-0.35-0.06-0.47-0.06c-0.14,0-0.28,0.05-0.44,0.14c-0.16,0.09-0.3,0.2-0.44,0.32
			s-0.26,0.25-0.36,0.38c-0.1,0.13-0.17,0.23-0.2,0.3c-0.03,0.07-0.06,0.18-0.09,0.32c-0.03,0.14-0.06,0.29-0.08,0.46
			c-0.03,0.17-0.05,0.34-0.07,0.5c-0.02,0.17-0.04,0.32-0.05,0.46l1.38-0.3c0.02-0.12,0.03-0.25,0.05-0.38
			c0.02-0.14,0.04-0.25,0.07-0.34c0.18,0,0.44,0.03,0.77,0.1c0.33,0.06,0.75,0.17,1.27,0.32c-0.12,0.06-0.27,0.16-0.46,0.28
			c-0.19,0.12-0.37,0.23-0.56,0.32c-0.22,0.11-0.45,0.19-0.67,0.23c-0.22,0.04-0.44,0.07-0.65,0.07h-1.92
			c-0.13,0-0.26-0.01-0.38-0.02c-0.13-0.02-0.25-0.05-0.35-0.1c-0.11-0.05-0.2-0.12-0.27-0.22s-0.12-0.22-0.13-0.38l-0.18-1.8
			l-1.56,0.78c0.02,0.26,0.05,0.51,0.07,0.76c0.02,0.25,0.05,0.51,0.08,0.76c-0.13,0.06-0.27,0.1-0.41,0.13
			c-0.15,0.03-0.29,0.05-0.43,0.06c-0.14,0.01-0.26,0.02-0.36,0.02s-0.18,0.01-0.22,0.01h-0.12c-0.29,0-0.52-0.03-0.7-0.1
			c-0.18-0.07-0.34-0.18-0.47-0.34c-0.14-0.16-0.27-0.37-0.4-0.64c-0.13-0.27-0.29-0.61-0.46-1.01c-0.06-0.12-0.14-0.22-0.26-0.3
			c-0.12-0.08-0.25-0.12-0.4-0.12c-0.24,0-0.46,0.03-0.65,0.1c-0.2,0.06-0.39,0.16-0.57,0.3c-0.18,0.14-0.37,0.32-0.56,0.54
			c-0.19,0.22-0.39,0.49-0.62,0.8c-0.1,0.14-0.21,0.27-0.31,0.37c-0.1,0.1-0.22,0.18-0.35,0.24c-0.13,0.06-0.28,0.1-0.46,0.13
			s-0.38,0.04-0.62,0.04h-1.48c0.28-0.28,0.49-0.56,0.62-0.85s0.2-0.58,0.2-0.89c0-0.27-0.06-0.5-0.17-0.68s-0.27-0.33-0.47-0.44
			c-0.2-0.11-0.42-0.19-0.67-0.24c-0.25-0.05-0.51-0.07-0.79-0.07c-0.39,0-0.82,0.04-1.3,0.12c-0.47,0.08-0.92,0.18-1.34,0.3
			l-0.48,1.56c0.35,0.26,0.64,0.52,0.88,0.79c0.23,0.27,0.44,0.52,0.62,0.73c-0.47,0.42-0.82,0.86-1.04,1.34
			c-0.22,0.48-0.34,0.96-0.34,1.46c0,0.82,0.24,1.46,0.73,1.93c0.48,0.47,1.16,0.71,2.03,0.71c0.19,0,0.4-0.01,0.62-0.04
			c0.22-0.03,0.44-0.07,0.65-0.12c0.22-0.05,0.43-0.12,0.63-0.19c0.2-0.08,0.39-0.16,0.56-0.25l0.3-1.86
			c-0.36,0.12-0.77,0.22-1.22,0.3s-0.91,0.12-1.36,0.12s-0.83-0.09-1.13-0.26s-0.49-0.42-0.58-0.74c0.1-0.22,0.25-0.43,0.45-0.65
			c0.2-0.22,0.45-0.45,0.73-0.68c0.13,0.11,0.26,0.21,0.39,0.29c0.13,0.08,0.28,0.15,0.44,0.2s0.34,0.09,0.53,0.12
			s0.42,0.04,0.68,0.04h1.32c0.16,0,0.31-0.01,0.46-0.02c0.14-0.02,0.29-0.06,0.43-0.12c0.14-0.06,0.28-0.16,0.43-0.28
			c0.15-0.12,0.31-0.29,0.47-0.5c0.08,0.22,0.24,0.39,0.47,0.52c0.24,0.13,0.49,0.24,0.76,0.32c0.27,0.08,0.54,0.13,0.79,0.16
			c0.26,0.03,0.44,0.04,0.56,0.04c0.05,0,0.11-0.02,0.17-0.07c0.07-0.05,0.14-0.11,0.22-0.2c0.08-0.08,0.16-0.18,0.24-0.29
			c0.08-0.11,0.16-0.22,0.23-0.33c0.15,0.26,0.35,0.45,0.59,0.58c0.24,0.13,0.56,0.19,0.94,0.19h0.06c0.21,0,0.42-0.01,0.63-0.04
			s0.41-0.07,0.59-0.11c0.18-0.05,0.35-0.11,0.49-0.17c0.14-0.07,0.25-0.14,0.32-0.21c0.02-0.02,0.04-0.05,0.07-0.1
			c0.03-0.05,0.07-0.12,0.13-0.21c0.1,0.19,0.23,0.34,0.39,0.46c0.16,0.11,0.32,0.2,0.5,0.26c0.18,0.06,0.35,0.1,0.53,0.11
			c0.18,0.02,0.34,0.02,0.49,0.02h0.12h1.74c0.39,0,0.74-0.07,1.04-0.2c0.3-0.14,0.6-0.31,0.88-0.52c0.17-0.14,0.32-0.26,0.47-0.37
			c0.14-0.11,0.28-0.22,0.4-0.32c0.12,0.33,0.25,0.59,0.4,0.77c0.15,0.19,0.3,0.33,0.46,0.43s0.33,0.16,0.5,0.18
			c0.18,0.02,0.35,0.04,0.53,0.04h0.96c0.16,0,0.31-0.01,0.46-0.02c0.14-0.02,0.29-0.06,0.43-0.12c0.14-0.06,0.28-0.16,0.43-0.28
			c0.15-0.12,0.31-0.29,0.47-0.5c0.07,0.22,0.22,0.39,0.44,0.52c0.22,0.13,0.46,0.24,0.72,0.32s0.51,0.13,0.76,0.16
			c0.25,0.03,0.43,0.04,0.55,0.04c0.07,0,0.18-0.07,0.31-0.2c0.14-0.13,0.27-0.29,0.4-0.47c0.13-0.18,0.25-0.37,0.34-0.57
			c0.1-0.2,0.14-0.36,0.14-0.5c0-0.41-0.04-0.79-0.12-1.15C133.06,107.41,132.95,107.1,132.8,106.84z M107.01,107.54
			c-0.18,0.17-0.4,0.36-0.66,0.56c-0.17-0.17-0.35-0.35-0.53-0.55c-0.19-0.2-0.36-0.36-0.52-0.5c0.18-0.04,0.38-0.07,0.6-0.09
			c0.22-0.02,0.42-0.03,0.6-0.03c0.24,0,0.43,0.02,0.57,0.05c0.14,0.04,0.21,0.1,0.21,0.19
			C107.28,107.25,107.19,107.37,107.01,107.54z M113.04,108.7c-0.17-0.02-0.32-0.05-0.46-0.09c-0.13-0.04-0.24-0.08-0.32-0.13
			s-0.13-0.1-0.13-0.17c0-0.03,0.02-0.08,0.07-0.16s0.1-0.15,0.18-0.22c0.08-0.08,0.17-0.14,0.28-0.2c0.11-0.06,0.24-0.08,0.37-0.08
			c0.05,0,0.09,0.03,0.13,0.09s0.08,0.14,0.12,0.25c0.04,0.1,0.09,0.22,0.13,0.35s0.1,0.26,0.16,0.4
			C113.39,108.73,113.22,108.72,113.04,108.7z M131.48,108.7c-0.16-0.02-0.31-0.05-0.44-0.09s-0.23-0.08-0.31-0.13
			s-0.11-0.1-0.11-0.17c0-0.03,0.02-0.08,0.05-0.16s0.09-0.15,0.15-0.22c0.06-0.08,0.14-0.14,0.23-0.2s0.18-0.08,0.29-0.08
			c0.12,0,0.24,0.08,0.35,0.25c0.12,0.16,0.22,0.44,0.31,0.83C131.81,108.73,131.64,108.72,131.48,108.7z"/>
		<path class="st1" d="M138.5,106.55l0.5-0.82c0.22,0.13,0.45,0.26,0.69,0.41c0.24,0.14,0.45,0.28,0.61,0.41l0.82-1.34
			c-0.18-0.18-0.4-0.35-0.65-0.51s-0.52-0.31-0.82-0.43l-0.47,0.82c-0.18-0.15-0.38-0.3-0.6-0.44s-0.47-0.27-0.73-0.38l-0.79,1.38
			c0.23,0.14,0.48,0.28,0.76,0.44C138.09,106.25,138.32,106.41,138.5,106.55z"/>
		<path class="st1" d="M147.9,109.87c0.06-0.07,0.13-0.19,0.23-0.34s0.19-0.32,0.28-0.5s0.17-0.36,0.23-0.53
			c0.06-0.18,0.1-0.32,0.1-0.42c0-0.2-0.04-0.42-0.12-0.67s-0.21-0.51-0.38-0.79c-0.18-0.28-0.4-0.57-0.68-0.87
			c-0.28-0.3-0.61-0.61-1-0.92l2.84-0.83l0.42-1.86l-3.9,1.1c-0.22,0.06-0.4,0.15-0.54,0.27c-0.14,0.12-0.25,0.27-0.33,0.45
			c-0.08,0.18-0.15,0.41-0.19,0.68c-0.04,0.27-0.09,0.6-0.14,0.97c0.63,0.43,1.18,0.88,1.64,1.34s0.8,0.9,1,1.31
			c-0.18,0.06-0.39,0.1-0.63,0.13c-0.24,0.03-0.48,0.05-0.72,0.07c-0.24,0.01-0.47,0.02-0.69,0.02s-0.4,0.01-0.54,0.01h-0.24
			c-0.13,0-0.26-0.01-0.38-0.02c-0.13-0.02-0.25-0.05-0.35-0.1c-0.11-0.05-0.2-0.12-0.27-0.22c-0.07-0.1-0.12-0.22-0.13-0.38
			l-0.18-1.86l-1.56,0.78l0.16,1.55c-0.19,0.06-0.43,0.11-0.7,0.15c-0.28,0.04-0.57,0.08-0.88,0.11c-0.31,0.03-0.62,0.06-0.95,0.08
			c-0.32,0.02-0.63,0.03-0.93,0.03c-0.63,0-1.15-0.05-1.57-0.16c-0.41-0.1-0.65-0.23-0.71-0.38c-0.02-0.08-0.02-0.18-0.02-0.29
			c0-0.2,0.02-0.45,0.05-0.74c0.04-0.3,0.09-0.59,0.15-0.89l-1.14-0.3c-0.15,0.5-0.26,0.94-0.32,1.34s-0.1,0.77-0.1,1.12
			c0,0.27,0.02,0.55,0.07,0.85c0.05,0.29,0.16,0.53,0.35,0.71c0.24,0.24,0.61,0.43,1.1,0.57s1.15,0.21,1.96,0.21
			c0.48,0,0.95-0.02,1.42-0.07s0.88-0.11,1.26-0.19c0.38-0.08,0.7-0.16,0.96-0.25c0.26-0.09,0.43-0.18,0.5-0.27
			c0.02-0.02,0.08-0.1,0.16-0.24c0.1,0.2,0.24,0.36,0.4,0.48s0.33,0.21,0.51,0.27c0.18,0.06,0.36,0.1,0.54,0.12
			c0.18,0.02,0.35,0.03,0.5,0.03h0.12h0.18c0.31,0,0.63-0.01,0.95-0.02c0.32-0.02,0.63-0.05,0.92-0.1s0.55-0.11,0.77-0.2
			C147.59,110.13,147.77,110.02,147.9,109.87z"/>
		<path class="st1" d="M156.54,103.99l0.71-1.14c-0.17-0.16-0.36-0.31-0.56-0.44s-0.44-0.26-0.7-0.37c-0.12,0.21-0.23,0.4-0.33,0.59
			c-0.1,0.18-0.21,0.38-0.34,0.6c0.21,0.12,0.42,0.24,0.63,0.37C156.16,103.73,156.35,103.86,156.54,103.99z"/>
		<path class="st1" d="M160.59,107.65c-0.02-0.22-0.05-0.47-0.1-0.75c-0.05-0.28-0.11-0.57-0.2-0.89c-0.08-0.32-0.19-0.63-0.33-0.94
			l-1.44,1.14c0.06,0.15,0.12,0.32,0.19,0.52c0.07,0.19,0.13,0.39,0.19,0.59c0.06,0.2,0.11,0.4,0.16,0.59
			c0.05,0.19,0.09,0.36,0.12,0.52c-0.15,0.03-0.3,0.05-0.44,0.05c-0.14,0-0.25,0.01-0.34,0.01c-0.07,0-0.16-0.01-0.26-0.03
			c-0.1-0.02-0.2-0.05-0.28-0.1v-1.61h-1.26l-0.12,1.32c-0.06,0.28-0.32,0.42-0.78,0.42c-0.44,0-0.66-0.2-0.66-0.6
			c0-0.12,0.01-0.27,0.04-0.46c0.02-0.18,0.05-0.41,0.08-0.68l-1.26-0.06l-0.28,1.2c-0.04,0.18-0.13,0.33-0.28,0.44
			c-0.15,0.11-0.4,0.16-0.76,0.16h-0.24h0h-0.02c-0.24,0-0.42-0.03-0.53-0.1c-0.12-0.06-0.21-0.19-0.28-0.38l-0.66-1.68l-1.38,1.14
			c0.09,0.18,0.18,0.38,0.28,0.6s0.18,0.43,0.26,0.65c0.08,0.22,0.15,0.42,0.22,0.62c0.06,0.2,0.11,0.38,0.14,0.53
			c-0.05,0.15-0.14,0.31-0.26,0.47s-0.27,0.32-0.44,0.46c-0.16,0.14-0.33,0.26-0.51,0.37c-0.18,0.1-0.33,0.17-0.47,0.2l-1.38-0.12
			l-0.36,1.26c0.18,0.09,0.36,0.17,0.56,0.26c0.2,0.08,0.39,0.16,0.57,0.23c0.18,0.07,0.34,0.12,0.48,0.17s0.24,0.07,0.31,0.07
			c0.24,0,0.5-0.07,0.79-0.21c0.29-0.14,0.57-0.34,0.83-0.59c0.27-0.25,0.51-0.56,0.72-0.91c0.21-0.36,0.36-0.75,0.45-1.18
			c0.1,0.08,0.2,0.13,0.31,0.15c0.11,0.02,0.23,0.03,0.37,0.04c0,0,0,0,0,0h0.18c0.34,0,0.63-0.05,0.89-0.14
			c0.26-0.1,0.48-0.29,0.68-0.59c0.16,0.3,0.37,0.49,0.64,0.59c0.27,0.1,0.57,0.14,0.91,0.14c0.27,0,0.52-0.04,0.75-0.13
			c0.23-0.08,0.43-0.24,0.62-0.46c0.16,0.22,0.36,0.38,0.61,0.46c0.24,0.08,0.49,0.13,0.73,0.13c0.3,0,0.59-0.04,0.86-0.12
			c0.27-0.08,0.46-0.18,0.58-0.3c0.09-0.09,0.18-0.21,0.28-0.37c0.1-0.16,0.19-0.33,0.28-0.52c0.08-0.18,0.15-0.37,0.2-0.55
			c0.05-0.18,0.08-0.34,0.08-0.48S160.61,107.88,160.59,107.65z"/>
		<path class="st1" d="M155.97,106.03l0.5-0.82c0.22,0.13,0.45,0.26,0.69,0.41c0.24,0.14,0.45,0.28,0.61,0.41l0.82-1.34
			c-0.18-0.18-0.4-0.35-0.65-0.51s-0.52-0.31-0.82-0.43l-0.47,0.82c-0.18-0.15-0.38-0.3-0.6-0.44c-0.22-0.14-0.47-0.27-0.73-0.38
			l-0.79,1.38c0.23,0.14,0.48,0.28,0.76,0.44C155.56,105.74,155.79,105.89,155.97,106.03z"/>
	</g>
</g>
</svg>
