<?xml version="1.0" encoding="utf-8"?>
<!-- Generator: Adobe Illustrator 26.3.0, SVG Export Plug-In . SVG Version: 6.00 Build 0)  -->
<svg version="1.1" id="Layer_1" xmlns="http://www.w3.org/2000/svg" xmlns:xlink="http://www.w3.org/1999/xlink" x="0px" y="0px"
	 viewBox="0 0 200 130" style="enable-background:new 0 0 200 130;" xml:space="preserve">
<style type="text/css">
	.st0{fill-rule:evenodd;clip-rule:evenodd;fill:#FFFFFF;}
</style>
<g>
	<path class="st0" d="M133.94,55.67v18.89l-16.86,9.36c-7.08,3.96-16.02-0.93-16.02-8.77v-0.17l0.08-18.72l16.78-9.44
		c0.08,0,0.08-0.08,0.17-0.08C125.17,42.85,133.94,47.83,133.94,55.67z M116.15,44.03l-16.86,9.28l-16.86-9.28
		c-0.08,0-0.08-0.08-0.17-0.08c-7.08-3.96-7-13.83,0.08-17.71l16.86-9.36l16.95,9.44c7.08,3.88,7.17,13.74,0.08,17.71
		C116.24,44.03,116.24,44.03,116.15,44.03z M97.43,56.26l0.08,18.72v0.17c0,7.84-8.94,12.73-16.02,8.77l-16.86-9.36V55.67
		c0-7.84,8.77-12.82,15.85-8.94c0.08,0,0.08,0.08,0.17,0.08L97.43,56.26z"/>
	<path id="CG_00000067224125163740285980000011997591591017687176_" class="st0" d="M58.26,112.39c-0.81-0.49-1.46-1.14-1.91-2.03
		s-0.65-1.91-0.65-3.17v-9.03c0-1.22,0.2-2.28,0.65-3.17s1.06-1.55,1.91-2.03c0.81-0.49,1.79-0.69,2.93-0.69
		c1.22,0,2.2,0.24,3.01,0.69c0.81,0.45,1.38,1.18,1.79,2.11c0.41,0.94,0.61,2.15,0.65,3.58h-3.09c0-0.77-0.12-1.38-0.28-1.87
		c-0.16-0.49-0.45-0.85-0.77-1.1s-0.77-0.37-1.26-0.37c-0.49,0-0.89,0.12-1.26,0.33c-0.37,0.24-0.61,0.57-0.81,0.98
		c-0.2,0.45-0.28,0.94-0.28,1.55v9.07c0,0.57,0.08,1.1,0.28,1.55s0.45,0.77,0.81,0.98c0.37,0.24,0.77,0.33,1.26,0.33
		c0.49,0,0.94-0.12,1.26-0.37c0.33-0.24,0.61-0.61,0.77-1.1c0.16-0.49,0.28-1.14,0.33-1.87h3.09c0,1.42-0.24,2.64-0.65,3.58
		c-0.41,0.94-1.02,1.67-1.83,2.11c-0.81,0.45-1.79,0.69-3.01,0.69C60.05,113.08,59.08,112.83,58.26,112.39z M80.06,101.82v5.37
		c0,1.22-0.24,2.28-0.69,3.13c-0.45,0.89-1.1,1.55-1.95,2.03c-0.85,0.49-1.83,0.69-2.97,0.69c-1.18,0-2.2-0.2-3.05-0.65
		c-0.85-0.45-1.5-1.1-1.95-1.91c-0.45-0.81-0.69-1.83-0.69-2.97V98.2c0-1.22,0.24-2.28,0.69-3.17c0.45-0.89,1.1-1.59,1.95-2.03
		c0.85-0.49,1.83-0.69,3.01-0.69c1.22,0,2.24,0.24,3.01,0.69c0.81,0.45,1.42,1.14,1.83,2.07c0.41,0.94,0.65,2.11,0.69,3.5h-3.21
		c0-0.73-0.12-1.3-0.28-1.79c-0.16-0.49-0.45-0.81-0.77-1.06c-0.33-0.24-0.73-0.37-1.22-0.37s-0.94,0.12-1.34,0.33
		c-0.37,0.24-0.69,0.57-0.89,0.98c-0.2,0.45-0.28,0.94-0.28,1.55v9.31c0,0.53,0.12,0.98,0.33,1.34c0.2,0.37,0.53,0.69,0.89,0.85
		c0.41,0.2,0.85,0.33,1.38,0.33s0.98-0.12,1.34-0.33c0.37-0.2,0.65-0.53,0.89-0.98c0.2-0.41,0.33-0.94,0.33-1.5v-2.48h-2.64v-2.93
		C74.45,101.82,80.06,101.82,80.06,101.82z"/>
	<path id="Sector_00000179604588074346952700000008921097681763462062_" class="st0" d="M144.18,100.07
		c-0.04-0.04-0.12-0.08-0.2-0.08c-0.08,0-0.16-0.04-0.24-0.04c-1.34,0-2.4,0.33-3.17,0.98c-0.77,0.65-1.22,1.55-1.26,2.72v9.23
		h-2.03V98.32h2.03v2.11c0.49-0.65,1.1-1.22,1.79-1.63c0.85-0.49,1.79-0.73,2.85-0.73c0.08,0,0.16,0,0.2,0.04
		c0.04,0.04,0.12,0.04,0.16,0.12L144.18,100.07z M132.26,112.55c-0.65,0.37-1.46,0.53-2.36,0.53c-0.94,0-1.71-0.16-2.36-0.53
		c-0.65-0.33-1.18-0.89-1.5-1.55c-0.33-0.69-0.53-1.46-0.53-2.44v-6.1c0-0.94,0.16-1.71,0.53-2.36c0.33-0.65,0.85-1.18,1.5-1.5
		c0.65-0.37,1.46-0.53,2.36-0.53c0.89,0,1.71,0.16,2.36,0.53c0.65,0.33,1.18,0.85,1.5,1.5c0.33,0.65,0.53,1.46,0.53,2.36v6.18
		c0,0.94-0.16,1.75-0.53,2.4C133.44,111.7,132.91,112.22,132.26,112.55z M132.3,102.51c0-0.81-0.2-1.42-0.65-1.87
		c-0.41-0.45-1.02-0.69-1.75-0.69s-1.34,0.24-1.75,0.69c-0.41,0.45-0.61,1.06-0.61,1.87v6.14c0,0.81,0.2,1.46,0.61,1.91
		c0.41,0.45,1.02,0.65,1.75,0.65c0.77,0,1.34-0.24,1.79-0.69c0.41-0.45,0.61-1.1,0.61-1.91V102.51L132.3,102.51z M119.25,111.98
		c-0.53-0.65-0.81-1.63-0.81-2.89v-8.95h-1.5v-1.87h1.5v-4.19h2.03v4.23h2.81v1.87h-2.81v8.95c0,0.61,0.12,1.1,0.41,1.46
		s0.69,0.49,1.26,0.49h1.14v1.87h-1.38C120.63,112.96,119.78,112.63,119.25,111.98z M113.6,112.59c-0.69,0.33-1.5,0.49-2.48,0.49
		s-1.83-0.16-2.52-0.53c-0.69-0.33-1.22-0.89-1.59-1.59c-0.37-0.69-0.53-1.5-0.53-2.48v-5.65c0-1.02,0.16-1.87,0.53-2.6
		c0.33-0.69,0.89-1.26,1.59-1.63s1.55-0.57,2.52-0.57c0.94,0,1.79,0.16,2.44,0.53c0.65,0.33,1.22,0.85,1.55,1.5
		c0.37,0.65,0.53,1.46,0.53,2.44v0.04h-1.95l0,0c0-0.81-0.2-1.46-0.65-1.91c-0.45-0.45-1.06-0.69-1.87-0.69
		c-0.85,0-1.5,0.24-1.95,0.77s-0.69,1.22-0.69,2.15v5.65c0,0.89,0.24,1.55,0.69,2.03s1.1,0.69,1.95,0.69c0.81,0,1.46-0.2,1.91-0.65
		c0.45-0.41,0.65-1.02,0.65-1.79v-0.04h1.95v0.04c0,0.94-0.16,1.71-0.53,2.36C114.78,111.74,114.25,112.27,113.6,112.59
		L113.6,112.59z M96.77,108.12c0,0.98,0.24,1.75,0.69,2.28c0.45,0.53,1.1,0.81,1.95,0.81c0.73,0,1.34-0.2,1.75-0.57
		c0.41-0.37,0.61-0.94,0.61-1.63v-0.04h2.03v0.04c0,1.3-0.37,2.32-1.14,3.01c-0.77,0.69-1.87,1.06-3.25,1.06
		c-0.98,0-1.79-0.2-2.52-0.61c-0.73-0.41-1.22-0.98-1.59-1.71c-0.37-0.77-0.53-1.67-0.53-2.72v-4.64c0-1.14,0.16-2.07,0.53-2.89
		c0.37-0.81,0.85-1.42,1.55-1.83c0.69-0.41,1.5-0.61,2.44-0.61c0.98,0,1.79,0.2,2.44,0.57c0.69,0.37,1.18,0.94,1.55,1.71
		c0.37,0.73,0.53,1.63,0.53,2.68v3.42h-7.03L96.77,108.12L96.77,108.12z M101.81,104.54v-1.5c0-0.98-0.2-1.75-0.65-2.28
		c-0.45-0.53-1.06-0.81-1.87-0.81s-1.42,0.28-1.87,0.85c-0.45,0.57-0.65,1.38-0.65,2.44v1.3H101.81L101.81,104.54z M89.81,112.55
		c-0.77,0.37-1.75,0.53-2.89,0.53c-1.14,0-2.07-0.16-2.89-0.53c-0.77-0.33-1.38-0.89-1.79-1.63c-0.41-0.73-0.61-1.71-0.61-2.89
		v-0.41l1.99,0.04v0.41c0,1.1,0.28,1.91,0.85,2.4c0.57,0.53,1.38,0.77,2.4,0.77c1.06,0,1.87-0.24,2.4-0.77
		c0.53-0.53,0.81-1.3,0.81-2.28v-1.06c0-0.65-0.16-1.22-0.49-1.71c-0.33-0.45-0.69-0.85-1.18-1.14c-0.49-0.28-1.1-0.61-1.83-0.98
		c-0.04,0-0.04,0-0.08-0.04c-0.04,0-0.04-0.04-0.08-0.04l-0.28-0.12c-0.98-0.45-1.75-0.85-2.36-1.18c-0.57-0.37-1.1-0.85-1.5-1.5
		c-0.41-0.65-0.61-1.42-0.61-2.4v-0.89c0-1.06,0.2-1.95,0.57-2.68c0.41-0.73,0.98-1.26,1.75-1.63s1.71-0.53,2.89-0.53
		c1.14,0,2.07,0.16,2.85,0.53c0.73,0.33,1.3,0.89,1.63,1.63c0.37,0.73,0.53,1.67,0.53,2.85v0.41h-1.95V97.3
		c0-1.1-0.24-1.87-0.73-2.4s-1.26-0.77-2.28-0.77c-1.06,0-1.87,0.24-2.4,0.73c-0.53,0.49-0.81,1.22-0.81,2.2v0.85
		c0,0.65,0.16,1.22,0.49,1.67c0.33,0.45,0.73,0.81,1.22,1.1c0.49,0.28,1.18,0.61,1.99,0.98c0.04,0.04,0.12,0.04,0.16,0.08
		c0.04,0,0.12,0.04,0.2,0.08c0.04,0,0.04,0.04,0.08,0.04c0.04,0.04,0.08,0.04,0.12,0.04c0.81,0.37,1.5,0.77,2.07,1.14
		c0.57,0.41,1.06,0.94,1.38,1.59c0.37,0.65,0.53,1.46,0.53,2.44v1.14c0,1.06-0.2,1.99-0.57,2.72
		C91.2,111.61,90.59,112.18,89.81,112.55z"/>
</g>
</svg>
