<?xml version="1.0" encoding="utf-8"?>
<!-- Generator: Adobe Illustrator 26.3.0, SVG Export Plug-In . SVG Version: 6.00 Build 0)  -->
<svg version="1.1" id="Layer_1" xmlns="http://www.w3.org/2000/svg" xmlns:xlink="http://www.w3.org/1999/xlink" x="0px" y="0px"
	 viewBox="0 0 40 40" style="enable-background:new 0 0 40 40;" xml:space="preserve">
<style type="text/css">
	.st0{fill:#FFFFFF;}
</style>
<path class="st0" d="M20,8.83c3.64,0,4.07,0.01,5.51,0.08c3.69,0.17,5.42,1.92,5.59,5.59c0.07,1.44,0.08,1.87,0.08,5.51
	c0,3.64-0.01,4.07-0.08,5.51c-0.17,3.66-1.89,5.42-5.59,5.59c-1.44,0.07-1.87,0.08-5.51,0.08c-3.64,0-4.07-0.01-5.51-0.08
	c-3.7-0.17-5.42-1.93-5.59-5.59C8.84,24.07,8.83,23.64,8.83,20c0-3.64,0.01-4.07,0.08-5.51c0.17-3.66,1.89-5.42,5.59-5.59
	C15.93,8.84,16.36,8.83,20,8.83z M20,6.37c-3.7,0-4.16,0.02-5.62,0.08c-4.95,0.23-7.7,2.97-7.93,7.93C6.39,15.84,6.37,16.3,6.37,20
	s0.02,4.17,0.08,5.62c0.23,4.95,2.97,7.7,7.93,7.93c1.45,0.07,1.92,0.08,5.62,0.08s4.17-0.02,5.62-0.08
	c4.94-0.23,7.7-2.97,7.93-7.93c0.07-1.45,0.08-1.92,0.08-5.62s-0.02-4.16-0.08-5.62c-0.22-4.94-2.97-7.7-7.93-7.93
	C24.17,6.39,23.7,6.37,20,6.37z M20,13c-3.86,0-7,3.13-7,7s3.13,7,7,7s7-3.13,7-7C27,16.14,23.86,13,20,13z M20,24.54
	c-2.51,0-4.54-2.03-4.54-4.54c0-2.51,2.03-4.54,4.54-4.54s4.54,2.03,4.54,4.54C24.54,22.51,22.51,24.54,20,24.54z M27.27,11.09
	c-0.9,0-1.64,0.73-1.64,1.64s0.73,1.64,1.64,1.64c0.9,0,1.63-0.73,1.63-1.64S28.18,11.09,27.27,11.09z"/>
</svg>
