<?xml version="1.0" encoding="utf-8"?>
<!-- Generator: Adobe Illustrator 26.3.0, SVG Export Plug-In . SVG Version: 6.00 Build 0)  -->
<svg version="1.1" id="Layer_1" xmlns="http://www.w3.org/2000/svg" xmlns:xlink="http://www.w3.org/1999/xlink" x="0px" y="0px"
	 viewBox="0 0 40 40" style="enable-background:new 0 0 40 40;" xml:space="preserve">
<style type="text/css">
	.st0{fill:#FFFFFF;}
</style>
<path class="st0" d="M28.01,25.49l-5.34-7.1l0.68-0.73c0.38-0.38,2.32-2.48,4.3-4.62s3.83-4.15,4.11-4.45l0.5-0.53h-2.32l-4.08,4.41
	c-2.23,2.42-4.13,4.41-4.18,4.41s-1.59-1.99-3.41-4.41l-3.3-4.41h-3.9c-2.15,0-3.9,0.01-3.9,0.04c0,0.03,2.28,3.09,5.05,6.79
	c2.77,3.7,5.02,6.78,5.02,6.86c-0.03,0.04-2.3,2.53-5.05,5.51c-2.76,2.97-5.02,5.45-5.02,5.49c0,0.04,0.5,0.07,1.11,0.07h1.1
	l4.34-4.71c2.39-2.59,4.41-4.77,4.5-4.84c0.11-0.09,1.28,1.35,3.77,4.69l3.61,4.84l3.88,0.01c2.12,0,3.87-0.04,3.87-0.11
	C33.35,32.65,30.95,29.41,28.01,25.49z M28.2,31.11l-1.75-0.01l-7.82-10.47c-4.3-5.75-7.88-10.56-7.94-10.66
	c-0.1-0.17,0.2-0.2,1.66-0.2h1.76L22,20.3c4.33,5.79,7.9,10.6,7.91,10.67C29.93,31.06,29.28,31.11,28.2,31.11z"/>
</svg>
