<?xml version="1.0" encoding="utf-8"?>
<!-- Generator: Adobe Illustrator 26.3.0, SVG Export Plug-In . SVG Version: 6.00 Build 0)  -->
<svg version="1.1" id="Layer_1" xmlns="http://www.w3.org/2000/svg" xmlns:xlink="http://www.w3.org/1999/xlink" x="0px" y="0px"
	 viewBox="0 0 200 130" style="enable-background:new 0 0 200 130;" xml:space="preserve">
<style type="text/css">
	.st0{fill:#FFFFFF;}
</style>
<g>
	<g>
		<g>
			<a>
				<path class="st0" d="M69.98,42.51c-0.48-1.43,0.48-2.87,1.91-3.06l6.4-0.96c1.53-0.19,2.58,0.86,2.29,2.29l-0.86,6.31
					c-0.19,1.53-1.62,2.39-3.06,2.01l-2.48-0.67c-1.43-0.38-3.06-1.91-3.44-3.34L69.98,42.51z"/>
			</a>
		</g>
		<g>
			<a>
				<path class="st0" d="M66.26,41.18c1.53-0.29,2.29-1.72,1.72-3.15l-2.39-6.21c-0.57-1.43-2.01-1.82-3.25-0.86l-5.06,3.92
					c-1.15,0.96-1.24,2.58-0.19,3.63l1.82,1.72c1.05,1.05,3.25,1.62,4.68,1.34L66.26,41.18z"/>
			</a>
		</g>
		<g>
			<a>
				<path class="st0" d="M53.17,38.31c1.05-1.05,0.96-2.68-0.19-3.63l-5.16-3.92c-1.24-0.96-2.68-0.48-3.15,0.86l-2.2,5.92
					c-0.57,1.43,0.19,2.87,1.72,3.25l2.48,0.57c1.43,0.38,3.53-0.19,4.68-1.24L53.17,38.31z"/>
			</a>
		</g>
		<g>
			<a>
				<path class="st0" d="M40.46,42.89c0.48-1.43-0.48-2.87-1.91-3.06l-6.4-0.86c-1.53-0.29-2.58,0.76-2.29,2.29l0.86,6.31
					c0.19,1.53,1.62,2.39,3.06,2.01l2.48-0.67c1.43-0.38,3.06-1.91,3.44-3.34L40.46,42.89z"/>
			</a>
		</g>
		<g>
			<a>
				<path class="st0" d="M31.67,53.12c-0.29-1.53-1.72-2.29-3.15-1.72l-6.11,2.2c-1.43,0.48-1.82,1.91-0.96,3.15l3.82,5.06
					c0.86,1.24,2.58,1.34,3.63,0.29l1.82-1.72c1.05-1.05,1.72-3.15,1.43-4.59L31.67,53.12z"/>
			</a>
		</g>
		<g>
			<a>
				<path class="st0" d="M31.67,75.19c-0.29,1.53-1.72,2.29-3.15,1.72l-6.11-2.2c-1.43-0.48-1.82-1.91-0.96-3.15l3.82-5.06
					c0.86-1.24,2.58-1.34,3.63-0.29l1.82,1.72c1.05,1.05,1.72,3.15,1.43,4.59L31.67,75.19z"/>
			</a>
		</g>
		<g>
			<a>
				<path class="st0" d="M33.68,78.72c-1.43-0.38-2.87,0.48-3.06,2.01l-0.96,6.4c-0.19,1.53,0.86,2.58,2.29,2.29l6.31-0.86
					c1.53-0.19,2.39-1.62,2.01-3.06l-0.76-2.77c-0.38-1.43-1.91-2.96-3.44-3.34L33.68,78.72z"/>
			</a>
		</g>
		<g>
			<a>
				<path class="st0" d="M43.71,87.42c-1.43,0.38-2.2,1.82-1.62,3.25l2.39,6.02c0.57,1.43,2.01,1.82,3.15,0.86l5.06-3.92
					c1.15-0.96,1.24-2.58,0.19-3.63l-1.91-1.91c-1.05-1.05-3.15-1.62-4.59-1.24L43.71,87.42z"/>
			</a>
		</g>
		<g>
			<a>
				<path class="st0" d="M56.89,90c-1.05,1.05-1.05,2.68,0.19,3.63l5.06,4.01c1.24,0.96,2.68,0.57,3.15-0.86l2.48-6.31
					c0.57-1.43-0.19-2.77-1.62-3.15l-2.58-0.57c-1.53-0.29-3.63,0.29-4.68,1.34L56.89,90z"/>
			</a>
		</g>
		<g>
			<a>
				<path class="st0" d="M69.98,85.98c-0.48,1.43,0.48,2.87,1.91,3.06l6.4,0.96c1.53,0.19,2.58-0.86,2.29-2.29l-0.86-6.31
					c-0.19-1.53-1.62-2.39-3.06-2.01l-2.48,0.67c-1.43,0.38-3.06,1.91-3.44,3.34L69.98,85.98z"/>
			</a>
		</g>
	</g>
	<a>
		<g>
			<path class="st0" d="M75.43,51.21c-0.19,0-5.16-0.96-6.88-6.11c-0.38-1.15-1.62-2.01-2.77-2.01c-0.1,0-0.29,0-0.38,0l-2.1,0.38
				c-0.29,0-0.57,0.1-0.86,0.1c-1.53,0-3.25-0.67-4.2-1.53l-1.34-1.24c-0.48-0.38-1.05-0.67-1.62-0.67c-0.67,0-1.24,0.29-1.72,0.67
				l-1.43,1.53c-0.86,0.86-2.48,1.53-3.92,1.53c-0.38,0-0.76,0-1.15-0.1l-2.2-0.57c-0.19-0.1-0.38-0.1-0.57-0.1
				c-1.05,0-2.01,0.67-2.39,1.72l-0.67,2.1c-0.48,1.53-2.2,3.25-3.73,3.63l-1.91,0.48c-1.24,0.38-2.01,1.62-1.72,2.87l0.48,1.91
				c0.38,1.62-0.29,3.92-1.34,5.06l-1.43,1.53c-0.48,0.48-0.67,1.05-0.67,1.72l0,0l0,0c0,0.67,0.19,1.34,0.67,1.82l1.43,1.53
				c1.15,1.24,1.72,3.44,1.34,5.06l-0.48,1.91c-0.29,1.24,0.48,2.58,1.72,2.87l1.91,0.48c1.62,0.48,3.25,2.1,3.73,3.63l0.67,2.1
				c0.29,1.05,1.24,1.72,2.39,1.72c0.19,0,0.38,0,0.57-0.1l2.2-0.57c0.38-0.1,0.76-0.1,1.15-0.1c1.43,0,2.96,0.57,3.92,1.53
				l1.43,1.53c0.48,0.48,1.05,0.67,1.72,0.67s1.24-0.19,1.62-0.67l1.34-1.24c0.96-0.96,2.68-1.53,4.2-1.53c0.29,0,0.57,0,0.86,0.1
				l2.1,0.38c0.1,0,0.29,0,0.38,0l0,0c1.15,0,2.39-0.86,2.77-2.01c1.72-5.16,6.69-6.02,6.88-6.11c1.24-0.19,2.2-0.76,2.2-2.1V53.31
				C77.53,51.97,76.67,51.4,75.43,51.21z M50.49,62.86c0.76-2.87,3.73-4.49,6.59-3.73c2.87,0.76,4.49,3.73,3.73,6.59
				c-0.76,2.87-3.73,4.49-6.59,3.73C51.35,68.59,49.73,65.63,50.49,62.86z M57.27,80.54c-0.57,0.1-1.15,0.1-1.72,0.1
				c-8.31,0-15.38-6.21-16.24-14.62c-0.19-1.82,1.15-3.44,2.96-3.73c1.82-0.19,3.44,1.15,3.73,2.96c0.57,5.35,5.35,9.17,10.7,8.6
				s9.17-5.35,8.6-10.7c-0.29-2.58-1.53-4.87-3.53-6.5c-2.01-1.62-4.59-2.39-7.17-2.1c-1.82,0.19-3.44-1.15-3.73-2.96
				c-0.19-1.82,1.15-3.44,2.96-3.73c4.39-0.48,8.6,0.76,12.04,3.53c3.44,2.77,5.54,6.69,6.02,10.99
				C72.85,71.56,66.35,79.58,57.27,80.54z"/>
		</g>
		<g>
			<path class="st0" d="M90.24,37.26C90.24,37.26,90.33,37.26,90.24,37.26c-0.86-0.1-1.72-0.1-2.58-0.1
				c-0.57,0.57-1.05,1.24-1.53,1.82c-0.19,0.19-0.38,0.38-0.48,0.57c0-0.76,0-1.62,0-2.39c-0.67,0-1.34,0-2.01,0l0,0
				c0,2.2,0,4.3,0,6.5c0.67,0,1.34,0,2.01,0c0-0.48,0-1.05,0-1.53c0.19-0.19,0.38-0.38,0.48-0.57c0.19-0.19,0.29-0.38,0.48-0.57
				c0.48,0.86,0.86,1.82,1.34,2.68c0.86,0,1.62,0,2.48,0c-0.86-1.34-1.62-2.68-2.48-4.01C88.71,38.88,89.47,38.02,90.24,37.26z"/>
			<path class="st0" d="M95.3,39.46c-0.76,0-1.43,0-2.2,0c0-0.76,0-1.53,0-2.29c-0.67,0-1.34,0-2.01,0l0,0c0,2.2,0,4.3,0,6.5
				c0.67,0,1.34,0,2.01,0c0-0.86,0-1.72,0-2.68c0.76,0,1.43,0,2.2,0c0,0.86,0,1.72,0,2.58c0.67,0,1.34,0,2.01,0c0-2.2,0-4.3,0-6.5
				c-0.67,0-1.34,0-2.01,0C95.3,37.93,95.3,38.69,95.3,39.46z"/>
			<path class="st0" d="M100.46,37.16c-0.86,2.2-1.62,4.3-2.48,6.5c0.67,0,1.34,0,2.1,0c0.1-0.38,0.19-0.76,0.29-1.05
				c0.76,0,1.53,0,2.29,0c0.1,0.38,0.19,0.67,0.29,1.05c0.67,0,1.43,0,2.1,0c-0.86-2.2-1.62-4.3-2.48-6.5
				C101.89,37.16,101.13,37.16,100.46,37.16z M100.84,41.18c0.19-0.76,0.48-1.53,0.67-2.29c0.19,0.76,0.48,1.53,0.67,2.29
				C101.7,41.18,101.32,41.18,100.84,41.18z"/>
			<path class="st0" d="M109.34,41.08c-0.29-1.34-0.67-2.58-1.05-3.92c-0.86,0-1.72,0-2.68,0l0,0c0,2.2,0,4.3,0,6.5
				c0.57,0,1.05,0,1.62,0c0-1.62,0-3.25,0-4.87c0.38,1.62,0.86,3.25,1.24,4.87c0.48,0,0.96,0,1.53,0c0.38-1.62,0.86-3.25,1.24-4.87
				c0,1.62,0,3.25,0,4.87c0.57,0,1.05,0,1.62,0c0-2.2,0-4.3,0-6.5c-0.86,0-1.72,0-2.68,0C110.01,38.5,109.73,39.84,109.34,41.08z"/>
			<path class="st0" d="M116.32,42.23c0-0.38,0-0.86,0-1.24c1.05,0,2.1,0,3.15,0c0-0.48,0-0.86,0-1.34c-1.05,0-2.1,0-3.15,0
				c0-0.38,0-0.67,0-1.05c1.15,0,2.2,0,3.34,0c0-0.48,0-0.96,0-1.43c-1.82,0-3.63,0-5.35,0l0,0c0,2.2,0,4.3,0,6.5
				c1.82,0,3.63,0,5.45,0c0-0.48,0-0.96,0-1.53C118.61,42.23,117.46,42.23,116.32,42.23z"/>
			<path class="st0" d="M125.2,40.79c-0.76-1.05-1.53-2.29-2.29-3.34c0-0.1-0.1-0.19-0.19-0.19s-0.19,0-0.19,0
				c-0.57,0-1.05,0-1.62,0l0,0c0,2.2,0,4.3,0,6.5c0.67,0,1.24,0,1.91,0c0-1.15,0-2.39,0-3.53c0.76,1.05,1.53,2.2,2.29,3.34
				c0,0.1,0.1,0.19,0.19,0.19c0.1,0,0.19,0,0.19,0c0.57,0,1.15,0,1.62,0c0-2.2,0-4.3,0-6.5c-0.67,0-1.24,0-1.91,0
				C125.2,38.4,125.2,39.55,125.2,40.79z"/>
			<path class="st0" d="M130.46,42.23c0-0.38,0-0.86,0-1.24c1.05,0,2.1,0,3.15,0c0-0.48,0-0.86,0-1.34c-1.05,0-2.1,0-3.15,0
				c0-0.38,0-0.67,0-1.05c1.15,0,2.2,0,3.34,0c0-0.48,0-0.96,0-1.43c-1.82,0-3.63,0-5.35,0l0,0c0,2.2,0,4.3,0,6.5
				c1.82,0,3.63,0,5.45,0c0-0.48,0-0.96,0-1.53C132.75,42.23,131.6,42.23,130.46,42.23z"/>
			<path class="st0" d="M135.04,37.26c0,2.2,0,4.3,0,6.5c0.67,0,1.34,0,2.01,0c0-2.2,0-4.3,0-6.5
				C136.38,37.16,135.71,37.16,135.04,37.26C135.04,37.16,135.04,37.16,135.04,37.26z"/>
			<path class="st0" d="M141.63,37.26c0,2.2,0,4.3,0,6.5c0.67,0,1.34,0,2.01,0c0-2.2,0-4.3,0-6.5
				C142.97,37.16,142.3,37.16,141.63,37.26C141.63,37.16,141.63,37.16,141.63,37.26z"/>
			<path class="st0" d="M150.62,42.03c-0.1-0.29-0.29-0.48-0.48-0.76c-0.19-0.19-0.48-0.38-0.76-0.48c0.38-0.1,0.67-0.19,0.96-0.48
				c0.19-0.19,0.48-0.48,0.57-0.86c0.19-0.86-0.1-1.62-0.67-2.01c-0.57-0.38-1.43-0.38-2.39-0.38s-1.82,0-2.77,0c0,2.2,0,4.3,0,6.5
				c0.67,0,1.34,0,2.01,0l0,0c0-0.86,0-1.72,0-2.68c0.38,0,0.67,0.1,0.86,0.29c0.19,0.19,0.29,0.48,0.38,0.76
				c0.29,0.48,0.57,1.05,0.86,1.53c0.76,0,1.53,0,2.29,0l0,0C151.19,43.18,150.9,42.61,150.62,42.03z M148.8,39.55
				c-0.1,0.1-0.29,0.1-0.48,0.19c-0.29,0.1-0.76,0-1.24,0c0-0.48,0-0.86,0-1.24l0,0c0.57,0,1.24-0.1,1.53,0.1
				C148.99,38.79,148.99,39.36,148.8,39.55z"/>
			<path class="st0" d="M138.39,41.94c0,0.57,0,1.15,0,1.82c0.67,0,1.34,0,1.91,0c0-0.57,0-1.24,0-1.82
				C139.72,41.94,139.06,41.94,138.39,41.94C138.39,41.84,138.39,41.94,138.39,41.94z"/>
		</g>
		<circle class="st0" cx="108.01" cy="85.41" r="5.35"/>
		<g>
			<path class="st0" d="M110.2,52.54c4.01-0.57,8.03,1.43,10.03,5.06c0.48,0.96,0.86,2.01,1.05,3.06c0.96-0.96,2.29-1.53,3.73-1.53
				h2.77c-0.29-1.62-0.86-3.25-1.72-4.68c-3.25-5.92-10.03-9.36-16.81-8.41c-1.82,0.29-3.06,1.91-2.87,3.73
				C106.67,51.49,108.39,52.74,110.2,52.54z"/>
			<path class="st0" d="M125.01,69.93c-2.1,0-3.92-1.15-4.78-2.87c-0.29,0.57-0.67,1.05-1.05,1.62c-2.1,2.58-5.54,3.82-8.79,3.44
				c1.72-2.1,2.87-4.78,2.87-7.74c0-6.69-5.45-12.13-12.13-12.13c-6.69,0-12.13,5.45-12.13,12.13c0,5.45,3.53,10.03,8.5,11.56
				l-6.97,6.78c-0.67,0.67-0.96,1.43-0.96,2.39c0,0,0,0.1,0,0.19c0.1,1.82,1.53,3.25,3.34,3.25c0,0,0,0,0.1,0
				c1.05,0,2.01-0.57,2.68-1.34l9.55-9.55h0.1c2.01,0.86,4.11,1.24,6.31,1.24c4.87,0,9.55-2.1,12.71-5.92
				c0.76-0.96,1.43-1.91,2.01-2.96L125.01,69.93L125.01,69.93z M101.03,69.74c-2.96,0-5.45-2.48-5.45-5.45
				c0-2.96,2.48-5.45,5.45-5.45c2.96,0,5.45,2.48,5.45,5.45C106.48,67.26,104.09,69.74,101.03,69.74z"/>
		</g>
		<path class="st0" d="M83.17,47.86L83.17,47.86c-1.82,0-3.34,1.53-3.34,3.34v26.08c0,1.82,1.53,3.34,3.34,3.34l0,0
			c1.82,0,3.34-1.53,3.34-3.34V51.21C86.51,49.39,84.98,47.86,83.17,47.86z"/>
		<path class="st0" d="M145.65,62.29c-0.76-0.96-1.91-1.34-3.06-1.15h-5.25v-5.73c0-1.82-1.53-3.34-3.34-3.34l0,0
			c-1.82,0-3.34,1.53-3.34,3.34v5.73h-5.73c-1.82,0-3.34,1.53-3.34,3.34s1.53,3.34,3.34,3.34l0,0h5.73v5.64
			c0,0.76,0.29,1.43,0.67,2.01l0.1,0.1c0.67,0.76,1.62,1.24,2.58,1.24c0.67,0,1.43-0.19,2.01-0.67c0.96-0.76,1.43-1.91,1.24-3.06
			v-5.25h5.64c0.76,0,1.43-0.29,2.1-0.67l0.1-0.1C146.6,65.82,146.79,63.72,145.65,62.29z"/>
		<g>
			<g>
				<circle class="st0" cx="160.07" cy="45.47" r="5.35"/>
			</g>
			<path class="st0" d="M177.84,55.79c-1.34-3.15-3.73-5.92-6.78-7.74c-1.62-0.96-3.63-0.48-4.59,1.15s-0.48,3.63,1.15,4.59
				c1.82,1.05,3.25,2.68,4.01,4.59c1.53,3.53,0.67,7.93-2.01,10.7c-2.1,2.2-5.25,3.25-8.31,2.96c1.72-2.1,2.87-4.78,2.87-7.74
				c0-6.69-5.45-12.13-12.13-12.13c-4.78,0-8.98,2.87-10.89,6.88h1.34c0.19,0,0.38,0,0.57,0c1.62,0,3.15,0.76,4.2,2.01
				c0.1,0.1,0.19,0.19,0.19,0.29c0.96-1.53,2.68-2.48,4.59-2.48c2.96,0,5.45,2.48,5.45,5.45c0,2.96-2.48,5.45-5.45,5.45
				c-1.82,0-3.44-0.96-4.49-2.29c-0.29,0.48-0.67,0.86-1.05,1.24c0,0-0.1,0.1-0.19,0.1c-0.96,0.76-2.2,1.15-3.34,1.15h-1.72
				c1.53,2.77,4.01,4.97,7.07,5.92l-6.88,6.88c-0.67,0.67-0.96,1.43-0.96,2.39c0,0,0,0.1,0,0.19c0,1.82,1.53,3.25,3.34,3.25
				c0,0,0,0,0.1,0c1.05,0,2.01-0.57,2.68-1.34l9.55-9.55h0.1c2.01,0.86,4.11,1.24,6.21,1.24c1.15,0,2.29-0.1,3.53-0.38
				c3.34-0.67,6.31-2.29,8.5-4.68C179.09,69.07,180.42,61.81,177.84,55.79z"/>
		</g>
		<g>
			<path class="st0" d="M133.61,94.2c-0.1-0.1-0.19-0.19-0.29-0.29c-0.38-0.29-0.86-0.19-1.15,0.1c0-0.38,0.1-0.67,0.19-1.05
				c0.19-0.38,0.48-0.67,0.57-1.05c0.1-0.29-0.19-0.48-0.48-0.38c-0.76,0.48-1.24,1.62-1.43,2.48s0,2.01,0.96,2.39
				c0.76,0.29,1.62-0.1,1.91-0.86C134.18,94.96,133.99,94.49,133.61,94.2 M132.85,94.49L132.85,94.49L132.85,94.49L132.85,94.49
				 M132.94,94.58L132.94,94.58"/>
			<path class="st0" d="M157.97,94.2c-0.1-0.1-0.19-0.19-0.29-0.29c-0.38-0.29-0.86-0.19-1.15,0.1c0-0.38,0.1-0.67,0.19-1.05
				c0.19-0.38,0.48-0.67,0.57-1.05c0.1-0.29-0.19-0.48-0.48-0.38c-0.76,0.48-1.24,1.62-1.43,2.48s0,2.01,0.96,2.39
				c0.76,0.29,1.62-0.1,1.91-0.86C158.55,94.96,158.35,94.49,157.97,94.2 M157.21,94.49L157.21,94.49L157.21,94.49L157.21,94.49
				 M157.3,94.58L157.3,94.58"/>
			<path class="st0" d="M129.02,88.66c-0.1-0.48-0.86-0.38-0.86,0.1c-0.1,1.34-0.1,2.58-0.1,3.92c0,1.34-0.19,2.58-0.19,3.92
				c0,0.67,1.15,0.96,1.34,0.19c0.29-1.34,0.29-2.77,0.29-4.11C129.41,91.24,129.31,89.9,129.02,88.66"/>
			<path class="st0" d="M126.06,90c-0.48-0.67-1.53,0.19-1.15,0.86c0.38,0.67,0.67,1.34,0.86,2.1c0.1,0.38,0.29,2.48-0.67,1.62
				c-0.48-0.38-0.67-1.43-0.86-2.01c-0.19-0.76-0.29-1.53-0.29-2.39c0-0.76-1.05-0.67-1.15,0c-0.1,1.15-0.29,2.29-0.96,3.25
				c0.29-1.43-0.57-2.96-2.1-3.34c-1.24-0.38-2.48,0.29-3.06,1.34c-0.19-1.15-0.29-2.2-0.38-2.68c-0.19-0.86-1.62-0.67-1.53,0.19
				c0,1.24,0.38,2.58,0.67,3.82c0.29,0.96,0.76,2.1,1.53,2.87c0.86,0.76,1.91,0.76,2.77,0.29c0.1,0.1,0.19,0.19,0.38,0.19
				c1.15,0,2.1-0.96,2.68-1.82c0.19-0.29,0.29-0.57,0.48-0.86c0.38,1.62,1.15,3.06,2.68,2.87c1.24-0.19,1.82-1.43,1.72-2.58
				C127.59,92.38,126.92,91.14,126.06,90 M117.08,93.24c0.1-0.1,0.19-0.19,0.19-0.38c0.19-1.34,1.82-2.1,2.77-1.15
				c0.96,0.96,0.48,2.29-0.67,2.87C118.13,95.35,117.46,94.49,117.08,93.24"/>
			<path class="st0" d="M118.42,89.71c0.38-0.57,0.57-1.34,0.86-2.01c0.29-0.76,0.67-1.53,1.05-2.29c0.29-0.67-0.48-1.15-0.96-0.57
				c-0.86,1.24-1.82,3.06-1.82,4.59C117.65,89.9,118.23,90,118.42,89.71"/>
			<path class="st0" d="M121.19,88.28c0.86-0.48,1.72-0.48,2.68-0.48c0.76,0,0.67-1.05,0-1.15c-1.15-0.1-2.2,0.19-3.15,0.67
				C120.04,87.7,120.62,88.56,121.19,88.28"/>
			<path class="st0" d="M125.01,96.87c-1.05,0-1.05,1.72,0,1.72S126.06,96.87,125.01,96.87"/>
			<path class="st0" d="M113.26,91.52c-0.67,0.96-0.76,2.39-0.96,3.44c-0.19,1.05-0.86,2.29-0.29,3.25
				c0.19,0.29,0.67,0.48,0.96,0.29c1.05-0.57,1.15-2.2,1.34-3.34c0.19-1.15,0.48-2.48,0-3.63
				C114.12,91.14,113.45,91.24,113.26,91.52"/>
			<path class="st0" d="M178.32,91.52c-0.19-1.34-0.67-2.48-1.24-3.73c-0.29-0.57-1.05-0.19-0.96,0.38
				c0.19,1.24,0.48,2.39,0.57,3.63c0.1,1.15-0.1,2.39,0.19,3.44c0.19,0.76,1.24,0.67,1.53,0C178.8,94.2,178.61,92.67,178.32,91.52"
				/>
			<path class="st0" d="M174.12,91.43c0.29,0.57,0.57,1.15,0.67,1.72c0,0.67-0.19,2.1-1.34,1.34c-0.38-0.29-0.67-1.05-0.86-1.53
				c0-0.1,0-0.1-0.1-0.19c-0.1-0.67-0.19-1.34-0.48-1.91c-0.1-0.57-0.96-0.38-0.96,0.19c-0.1,1.24,0.1,2.39,0,3.63
				c-0.1,1.34-0.48,2.39-0.86,3.63c-0.19,0.76,0.96,1.34,1.34,0.57c0.57-1.15,0.96-2.68,1.05-4.2c0.57,0.76,1.24,1.34,2.1,1.15
				c2.39-0.48,1.82-3.92,0.57-5.25C174.6,90,173.64,90.76,174.12,91.43"/>
			<path class="st0" d="M168.39,92.19c-0.1,1.15-0.19,2.29-0.29,3.44c-0.1,0.86-0.57,2.01-0.1,2.87c0.19,0.29,0.57,0.29,0.76,0.1
				c0.76-0.57,0.67-1.91,0.76-2.87c0.1-1.15,0.19-2.39,0.1-3.53C169.63,91.33,168.48,91.33,168.39,92.19"/>
			<path class="st0" d="M165.14,92.86c-0.67-1.05-0.29-2.29,0.67-2.87c0.67-0.48,0.1-1.53-0.67-1.15c-1.15,0.57-1.91,1.72-1.91,3.06
				c0,0.67,0.19,1.34,0.57,1.82c0.38,0.57,1.24,0.96,1.43,1.53c0.29,0.96-1.15,1.53-2.01,1.53c-0.76,0-1.43-0.48-1.72-1.34
				c-0.48-1.43,0.67-2.58,0.48-3.92c0-0.19-0.29-0.29-0.38-0.19c-1.62,0.38-2.1,2.87-1.62,4.3c0.48,1.62,2.01,2.68,3.73,2.48
				c1.53-0.19,3.34-1.43,2.96-3.15C166.38,94.1,165.61,93.63,165.14,92.86"/>
			<path class="st0" d="M169.25,90.28c0.48-0.1,0.86-0.1,1.34-0.29c0.57-0.19,0.67-1.15,0-1.34c-1.15-0.29-2.39,0.38-3.25,0.96
				c-0.67,0.48-0.1,1.53,0.67,1.15C168.39,90.57,168.77,90.47,169.25,90.28"/>
			<path class="st0" d="M168.48,88.66c1.34,0,1.34-2.2,0-2.2C167.14,86.46,167.05,88.66,168.48,88.66"/>
			<path class="st0" d="M172.21,88.75l0.1,0.29c0.1,0.19,0.19,0.29,0.29,0.38c0.1,0.1,0.19,0.1,0.29,0.19
				c0.19,0.1,0.29,0.1,0.48,0.1s0.48-0.1,0.67-0.19c0.29-0.19,0.48-0.48,0.57-0.76c0,0,0,0,0-0.1c0.19-0.76-0.38-1.53-1.24-1.53
				c-0.29,0-0.67,0.1-0.86,0.38C172.21,87.8,172.02,88.28,172.21,88.75L172.21,88.75"/>
			<path class="st0" d="M153.19,88.94c-0.29-0.67-1.34-0.57-1.24,0.19c0,1.15,0.1,2.39,0.19,3.53c0,1.15-0.29,2.39,0,3.44
				c0.19,0.67,1.15,0.86,1.53,0.19c0.57-1.05,0.48-2.48,0.38-3.63C153.96,91.33,153.67,90.09,153.19,88.94"/>
			<path class="st0" d="M150.52,90.57c-0.67-0.57-1.62-1.05-2.48-0.86c-0.38,0.1-0.67,0.19-0.86,0.48c-0.19-0.1-0.48,0-0.67,0.29
				c-0.67,1.15-1.15,2.39-1.72,3.53c-0.48,0.86-0.86-0.19-1.05-0.67c0-0.1-0.1-0.19-0.1-0.29c0.1-0.76,0.1-1.53-0.19-2.2
				c-0.29-0.76-1.43-0.57-1.34,0.19c-0.1,0.67-0.1,1.34-0.1,2.01c0,0.38,0,2.39-0.76,2.29c-0.67-0.1-1.05-1.91-1.15-2.29
				c-0.19-0.67-0.38-1.43-0.38-2.2c0-0.1,0-0.19,0-0.29c0-0.67-1.05-1.05-1.34-0.38c-0.48,0.96-0.67,2.01-1.15,2.96
				s-1.15,1.82-1.62,2.77s0.67,1.82,1.43,1.15c0.86-0.76,1.43-2.01,1.82-3.06c0.1-0.19,0.1-0.38,0.19-0.48
				c0.19,0.48,0.29,0.86,0.48,1.24c0.38,0.76,0.96,1.91,1.91,2.01s1.43-0.86,1.72-1.62c0.29,0.48,0.76,0.86,1.34,0.86
				c0.76,0,1.24-0.57,1.62-1.24l0,0c0.76,1.82,3.06,2.48,4.59,1.15C152.34,94.39,152.05,91.91,150.52,90.57 M149.18,94.68
				c-0.96,0.48-1.62-0.48-1.91-1.34c-0.1-0.38-0.19-0.76-0.1-1.15c0.1-0.19,0.19-0.48,0.19-0.67c0.1,0,0.1,0,0.19,0
				C149.37,90.95,151.09,93.82,149.18,94.68"/>
			<path class="st0" d="M144.12,97.54c-0.76-0.29-1.72-0.19-2.58,0c-0.86,0.1-1.82,0.29-2.48,0.76c-0.76,0.57-0.19,1.43,0.38,1.43
				l0,0c0.76,0,1.53-0.29,2.29-0.48c0.76-0.19,1.62-0.19,2.29-0.38C144.79,98.69,144.79,97.73,144.12,97.54"/>
			<path class="st0" d="M150.23,87.32c0.19,0.19,0.48,0.19,0.67,0.19c0,0.1-0.1,0.19-0.1,0.19c-0.19,0.38-0.48,0.76-0.57,1.24
				c0,0.38,0.38,0.48,0.67,0.29c0.29-0.29,0.48-0.76,0.67-1.15c0.19-0.38,0.38-0.76,0.48-1.15c0,0,0-0.1,0.1-0.1v-0.1
				c0,0,0-0.1,0-0.19c0.1-0.19,0-0.48,0-0.67c-0.29-0.67-1.24-0.86-1.82-0.48C149.66,85.79,149.66,86.84,150.23,87.32 M150.52,85.89
				c0.29-0.19,0.76-0.19,0.96,0.1c0.19,0.38-0.1,0.86-0.48,0.96h-0.1c-0.1,0-0.29,0-0.38-0.1
				C150.33,86.65,150.33,86.08,150.52,85.89"/>
		</g>
	</a>
</g>
</svg>
