<?xml version="1.0" encoding="utf-8"?>
<!-- Generator: Adobe Illustrator 26.3.0, SVG Export Plug-In . SVG Version: 6.00 Build 0)  -->
<svg version="1.1" id="Layer_1" xmlns="http://www.w3.org/2000/svg" xmlns:xlink="http://www.w3.org/1999/xlink" x="0px" y="0px"
	 viewBox="0 0 200 130" style="enable-background:new 0 0 200 130;" xml:space="preserve">
<style type="text/css">
	.st0{fill:#FFFFFF;}
</style>
<path class="st0" d="M153.13,116.4c0-0.7,0-1.23,0-1.77c-0.01-6.19-0.04-12.38-0.04-18.57c-0.01-13.64-0.03-27.27,0.02-40.91
	c0.01-4.27,1.14-8.26,3.59-11.81c1.56-2.26,3.46-4.22,5.44-6.1c2.42-2.3,4.81-4.63,7.18-6.98c0.76-0.75,1.42-1.61,2.12-2.41
	c0.12-0.14,0.25-0.28,0.52-0.36c0,0.21,0,0.43,0,0.64c0,17.21,0.02,34.42-0.02,51.62c0,2.67-0.14,5.35-0.37,8.01
	c-0.32,3.82-1.08,7.56-2.95,10.98c-1.52,2.78-3.54,5.18-5.71,7.46c-2.27,2.4-4.57,4.77-6.86,7.16c-0.83,0.86-1.63,1.75-2.45,2.62
	C153.49,116.09,153.36,116.19,153.13,116.4z"/>
<path class="st0" d="M155.88,20.62c0,0.2,0,0.4,0,0.59c0,6.94-0.02,13.88,0.03,20.82c0.01,1.08-0.31,1.91-0.95,2.75
	c-2.19,2.9-3.53,6.16-4.1,9.78c-0.28,1.81-0.34,3.62-0.34,5.44c0,11.14-0.03,22.28,0.01,33.42c0,1.26-0.34,2.22-1.17,3.1
	c-3.3,3.49-6.58,6.99-9.86,10.49c-0.69,0.74-1.39,1.48-2.08,2.22c-0.08,0.08-0.17,0.15-0.37,0.31c-0.02-0.3-0.03-0.49-0.03-0.67
	c0-20.31-0.04-40.63,0.03-60.94c0.01-4.23,1.26-8.17,3.75-11.67c1.5-2.1,3.27-3.95,5.13-5.73c2.24-2.14,4.48-4.28,6.67-6.47
	c0.93-0.92,1.75-1.95,2.63-2.93c0.17-0.19,0.35-0.38,0.52-0.56C155.79,20.58,155.84,20.6,155.88,20.62z"/>
<path class="st0" d="M121.06,102.53c0-0.22,0-0.44,0-0.66c0-19.74,0-39.49-0.02-59.23c0-2.56,0.22-5.07,0.96-7.54
	c0.81-2.7,2.18-5.07,3.95-7.24c2.23-2.74,4.93-5.02,7.43-7.49c2.06-2.03,4-4.19,5.99-6.29c0.12-0.13,0.24-0.26,0.46-0.49
	c0.05,0.28,0.11,0.44,0.11,0.59c0,7.24,0.01,14.49-0.02,21.73c0,0.38-0.19,0.83-0.43,1.14c-2.22,2.82-3.77,5.97-4.49,9.48
	c-0.33,1.59-0.5,3.23-0.51,4.85c-0.06,11.63-0.09,23.25-0.05,34.88c0.01,1.58-0.42,2.78-1.49,3.89c-2.63,2.73-5.2,5.51-7.8,8.27
	c-1.18,1.25-2.37,2.5-3.54,3.76c-0.13,0.14-0.2,0.34-0.3,0.51C121.21,102.65,121.14,102.59,121.06,102.53z"/>
<g>
	<path class="st0" d="M44.6,73.05c-0.08,0.72-0.18,1.43-0.23,2.15c-0.06,0.78-0.16,1.56-0.1,2.33c0.14,1.86,1.92,2.75,3.51,1.8
		c0.34-0.21,0.64-0.49,0.98-0.69c0.26-0.15,0.6-0.37,0.83-0.3c0.73,0.23,1.18-0.17,1.62-0.6c0.38-0.36,0.65-0.73,1.28-0.82
		c0.36-0.05,0.64-0.76,1.04-1.28c-0.11,0.5-0.17,0.95-0.31,1.38c-0.26,0.79-0.68,1.44-1.52,1.75c-0.26,0.09-0.51,0.26-0.71,0.46
		c-0.67,0.66-1.39,1.06-2.39,0.95c-0.3-0.03-0.67,0.28-0.94,0.51c-0.25,0.21-0.41,0.52-0.62,0.77c-0.61,0.71-0.5,1.5,0.34,1.91
		c0.46,0.22,0.98,0.41,1.48,0.43c2.92,0.11,5.8-0.16,8.56-1.23c1.08-0.42,1.91-1.11,2.5-2.1c0.06,0.02,0.12,0.04,0.18,0.06
		c-0.14,0.5-0.21,1.03-0.42,1.5c-0.64,1.5-1.75,2.59-3.25,3.19c-2.39,0.95-4.87,1.52-7.47,1.44c-0.17-0.01-0.33,0-0.5-0.02
		c-2.19-0.26-2.76-1.04-2.36-3.24c0.07-0.37,0.15-0.74,0.26-1.24c-1,0.34-1.95,0.35-2.74-0.3c-0.5,1.22-0.92,2.38-1.45,3.5
		c-0.21,0.45-0.63,0.82-1,1.18c-0.53,0.51-1.11,0.38-1.69,0.04c-0.58-0.34-0.66-0.87-0.43-1.41c0.91-2.12,0.58-4.38,0.81-6.58
		c0.15-1.45,0.73-2.74,1.46-4c-0.11,0.57-0.26,1.14-0.31,1.71c-0.12,1.44-0.07,2.9-0.31,4.31c-0.23,1.38-0.73,2.72-1.12,4.07
		c-0.05,0.19-0.13,0.37-0.22,0.66c1.08,0.03,1.75-0.52,2.37-1.12c1.11-1.09,1.26-2.55,1.4-3.98c0.14-1.43,0.11-2.89,0.33-4.31
		c0.15-1,0.6-1.96,0.91-2.93C44.45,73.03,44.53,73.04,44.6,73.05z"/>
	<path class="st0" d="M31.55,76.23c-0.14,0.34-0.27,0.69-0.44,1.03c-0.81,1.63-1.67,3.24-1.94,5.07c-0.08,0.55-0.11,1.14-0.01,1.69
		c0.36,1.86,1.73,2.75,3.68,2.39c1.7-0.31,2.99-1.27,3.85-2.75c0.48-0.82,0.3-1.33-0.45-1.69c-0.04-0.02-0.08-0.05-0.12-0.07
		c-1.98-0.71-2.17-1.43-1.59-3.68c0.42-1.62,1.34-2.96,2.53-4.11c0.32-0.31,0.59-0.58,0.04-0.94C37,73.09,36.95,72.79,37,72.62
		c0.09-0.34,0.26-0.65,0.41-0.98c0.62-1.38,1.38-1.59,2.75-0.84c0.47,0.26,0.64,0.64,0.44,1.04c-0.32,0.64-0.68,1.29-1.18,1.79
		c-0.77,0.76-1.68,1.38-2.51,2.08c-0.34,0.29-0.65,0.62-0.92,0.98c-0.84,1.1-0.66,1.76,0.63,2.21c0.84,0.29,1.21,0.89,1.25,1.7
		c0.13,2.78-1.69,6.84-4.69,8.18c-1.31,0.59-2.66,0.81-3.85-0.27c-0.85-0.77-1.13-1.83-1.24-2.93c-0.2-2.11,0.36-4.07,1.27-5.94
		c0.48-1,1.01-1.97,1.54-2.95c0.11-0.21,0.3-0.38,0.46-0.57C31.41,76.15,31.48,76.19,31.55,76.23z"/>
	<path class="st0" d="M66.06,73.92c-0.11,1.52-0.27,3.04-0.29,4.56c-0.01,0.54,0.31,1.11,0.55,1.63c0.1,0.21,0.35,0.37,0.57,0.5
		c0.45,0.26,0.69,0.19,0.94-0.37c0.4-0.92,0.93-1.79,1.47-2.63c0.32-0.51,0.8-0.91,1.49-0.69c0.5,0.17,0.88,1.09,0.75,1.78
		c-0.09,0.45-0.23,0.89-0.35,1.35c0.9,0.01,1.84-0.72,2.05-1.58c0.09-0.37,0.2-0.75,0.16-1.12c-0.15-1.48,0.81-2.54,1.24-3.8
		c0.07,0.01,0.14,0.02,0.21,0.04c-0.06,0.53-0.12,1.07-0.17,1.6c-0.14,1.49-0.36,2.95-1.12,4.27c-0.79,1.37-1.94,2.21-3.49,2.54
		c-0.27,0.06-0.54,0.26-0.73,0.46c-0.97,1.04-2.48,1.79-4.27,0.66c-0.11,0.26-0.23,0.5-0.3,0.75c-0.38,1.3-1,2.45-2,3.36
		c-0.65,0.6-1.32,0.61-2,0.13c-0.63-0.45-0.58-1.03-0.29-1.64c0.86-1.81,0.6-3.76,0.69-5.65c0.08-1.7,0.72-3.16,1.44-4.63
		c-0.12,1.87-0.28,3.71-0.36,5.55c-0.07,1.71-0.43,3.32-1.4,4.75c-0.05,0.07-0.04,0.17-0.08,0.34c1.13-0.01,1.9-0.57,2.57-1.31
		c0.7-0.78,1.08-1.72,1.19-2.75c0.11-1.03,0.24-2.07,0.22-3.11c-0.03-1.33,0.25-2.58,0.74-3.8c0.17-0.42,0.3-0.85,0.45-1.27
		C65.96,73.89,66.01,73.9,66.06,73.92z M69.79,78.45c-0.58-0.01-1.23,0.53-1.24,1.04c-0.01,0.45,0.48,0.83,1.12,0.85
		c0.59,0.02,1.17-0.4,1.19-0.88C70.87,78.95,70.36,78.46,69.79,78.45z"/>
	<path class="st0" d="M85.55,81.39c-0.26,0.65-0.47,1.34-0.8,1.95c-0.84,1.56-2.28,2.42-3.88,3.01c-2.91,1.07-5.93,1.28-8.99,1.04
		c-0.32-0.03-0.65-0.09-0.96-0.19c-0.86-0.3-1.25-0.82-1.2-1.76c0.04-0.83,0.18-1.65,0.39-2.51c0.44,1.54,1.7,1.68,2.88,1.74
		c2.98,0.17,5.93-0.09,8.82-0.95c1.43-0.43,2.04-0.82,3.5-2.41C85.39,81.34,85.47,81.36,85.55,81.39z"/>
	<path class="st0" d="M94.55,74.31c-0.15,1.34-0.36,2.68-0.44,4.03c-0.1,1.67-0.26,3.36-0.07,5c0.24,2.01,2.26,2.17,3.27,0.91
		c0.33-0.41,0.73-0.65,1.29-0.6c0.16,0.02,0.34-0.03,0.48-0.11c0.69-0.41,1.36-0.84,2.04-1.27c0.04-0.02,0.07-0.09,0.1-0.09
		c1.15-0.1,1.2-0.88,1.29-1.81c0.08-0.8,0.47-1.57,0.73-2.41c0.29,0.68,0.4,1.3,0.76,1.66c0.45,0.46,1.04,0.24,1.61-0.34
		c-0.18,1.15-0.55,2.01-1.28,2.68c-0.2,0.18-0.62,0.37-0.82,0.28c-0.64-0.28-0.79,0.15-1.18,0.49c-0.77,0.69-1.81,1.06-2.57,1.76
		c-0.82,0.75-1.79,0.98-2.75,1.35c-0.48,0.19-0.8,0.78-1.21,1.17c-0.92,0.88-1.87,0.78-2.52-0.3c-0.27-0.45-0.54-1.01-0.53-1.51
		c0.05-2.07,0.21-4.14,0.33-6.22c0.02-0.31,0.1-0.61,0.1-0.91C93.16,76.67,93.67,75.45,94.55,74.31z"/>
	<path class="st0" d="M95.65,76.63c0.64-0.83,1.22-1.56,1.88-2.41c0.58,0.55,1.11,1.06,1.7,1.63c0.39-0.48,0.88-1.09,1.44-1.77
		c0.45,0.38,0.89,0.69,1.26,1.08c0.15,0.15,0.25,0.56,0.16,0.69c-0.41,0.59-0.89,1.14-1.39,1.66c-0.07,0.07-0.39-0.03-0.55-0.13
		c-0.43-0.28-0.85-0.84-1.26-0.83c-0.38,0.01-0.76,0.6-1.1,0.96c-0.3,0.33-0.56,0.36-0.9,0.06C96.51,77.26,96.11,76.98,95.65,76.63z
		"/>
	<path class="st0" d="M105.86,87.34c-0.02-0.17-0.05-0.26-0.04-0.34c0.27-2.29,0.52-4.59,0.84-6.87c0.09-0.66,0.33-1.31,0.61-1.92
		c0.25-0.55,0.64-1.03,1.12-1.52c-0.06,0.36-0.13,0.72-0.17,1.08c-0.2,1.85-0.38,3.71-0.58,5.56c-0.15,1.36-0.56,2.62-1.42,3.71
		C106.13,87.14,106.01,87.21,105.86,87.34z"/>
	<path class="st0" d="M54.4,82.11c0.14-0.95,0.3-1.89,0.4-2.84c0.12-1.07,0.28-2.16,0.25-3.23c-0.04-1.54,0.8-2.64,1.66-3.96
		c0.04,0.26,0.08,0.36,0.07,0.45c-0.23,1.96-0.46,3.92-0.71,5.88C55.9,79.8,55.49,81.1,54.4,82.11z"/>
	<path class="st0" d="M77.52,72.75c-0.09,0.79-0.18,1.57-0.28,2.36c-0.23,1.73-0.39,3.47-0.73,5.18c-0.14,0.73-0.63,1.4-0.99,2.09
		c-0.05,0.1-0.21,0.14-0.3,0.2c0.18-1.7,0.34-3.38,0.54-5.05c0.12-1,0.2-2.02,0.48-2.97c0.2-0.67,0.71-1.24,1.09-1.86
		C77.4,72.71,77.46,72.73,77.52,72.75z"/>
	<path class="st0" d="M89.29,73.21c-0.13,1.18-0.23,2.37-0.41,3.54c-0.24,1.6-0.5,3.2-0.86,4.78c-0.13,0.57-0.59,1.06-0.9,1.58
		c-0.06-0.03-0.11-0.06-0.17-0.1c0.13-0.9,0.3-1.79,0.39-2.69c0.12-1.27,0.22-2.54,0.28-3.81C87.67,75.15,88.51,74.21,89.29,73.21z"
		/>
	<path class="st0" d="M91.3,79.53c-0.01,0.21,0.02,0.44-0.05,0.64c-0.48,1.55-0.96,3.11-1.49,4.64c-0.41,1.18-1.15,2.03-2.49,2.23
		c-0.53,0.08-1.04,0.35-1.73,0.6c1.27-1.33,2.56-2.39,3.46-3.72c0.91-1.34,1.42-2.94,2.1-4.43C91.17,79.51,91.24,79.52,91.3,79.53z"
		/>
	<path class="st0" d="M65.46,73.11c-0.5-0.4-1-0.78-1.47-1.19c-0.04-0.04,0.02-0.27,0.09-0.36c0.45-0.6,0.9-1.19,1.37-1.77
		c0.08-0.1,0.24-0.2,0.34-0.18c0.96,0.12,1.57,1.47,1,2.24c-0.27,0.37-0.62,0.7-0.95,1.03C65.76,72.96,65.62,73.01,65.46,73.11z"/>
	<path class="st0" d="M72.73,71.28c0.61-0.78,1.19-1.52,1.83-2.34c0.46,0.4,0.93,0.72,1.29,1.14c0.15,0.18,0.18,0.64,0.05,0.84
		c-0.36,0.54-0.81,1.02-1.27,1.49c-0.08,0.08-0.41,0-0.56-0.1C73.62,72.01,73.21,71.66,72.73,71.28z"/>
	<path class="st0" d="M78.35,79.07c0.51-0.68,1.02-1.38,1.54-2.06c0.06-0.08,0.25-0.18,0.29-0.15c0.44,0.34,0.95,0.64,1.27,1.08
		c0.15,0.2,0.03,0.74-0.14,1.02C80.37,80.52,79.93,80.53,78.35,79.07z"/>
	<path class="st0" d="M102.97,74.15c0.51-0.69,0.97-1.36,1.49-1.99c0.1-0.12,0.44-0.14,0.62-0.07c0.25,0.1,0.47,0.3,0.68,0.49
		c0.5,0.44,0.57,0.91,0.18,1.49c-0.96,1.43-1.25,1.49-2.59,0.43C103.22,74.4,103.11,74.29,102.97,74.15z"/>
	<path class="st0" d="M106.53,71.38c-0.64-0.54-1.14-0.96-1.65-1.39c0.59-0.73,1.08-1.59,1.8-2.15c0.39-0.3,1.56,1.27,1.25,1.78
		C107.55,70.22,107.05,70.74,106.53,71.38z"/>
	<path class="st0" d="M67.36,71.66c0.56-0.72,1.08-1.38,1.6-2.04c0.05-0.07,0.2-0.16,0.23-0.13c0.45,0.32,0.93,0.61,1.31,1.01
		c0.14,0.15,0.15,0.62,0.02,0.82c-0.35,0.52-0.79,0.97-1.22,1.42c-0.09,0.09-0.38,0.09-0.49,0.01
		C68.31,72.42,67.87,72.05,67.36,71.66z"/>
	<path class="st0" d="M50.17,91.45c0.56-0.72,1.08-1.38,1.6-2.04c0.05-0.07,0.2-0.16,0.23-0.13c0.45,0.32,0.93,0.61,1.31,1.01
		c0.14,0.15,0.15,0.62,0.02,0.82c-0.35,0.52-0.79,0.97-1.22,1.42c-0.09,0.09-0.38,0.09-0.49,0.01
		C51.13,92.21,50.68,91.84,50.17,91.45z"/>
	<path class="st0" d="M108.2,71.54c0.29,0.24,0.46,0.4,0.64,0.54c1,0.79,1.05,1.22,0.21,2.17c-0.22,0.24-0.46,0.48-0.74,0.64
		c-0.15,0.09-0.44,0.08-0.6-0.01c-0.36-0.21-0.7-0.48-1-0.77c-0.1-0.1-0.16-0.41-0.08-0.51C107.12,72.91,107.64,72.26,108.2,71.54z"
		/>
	<path class="st0" d="M99.16,71c0.44,0.38,0.88,0.69,1.24,1.08c0.14,0.15,0.16,0.48,0.12,0.72c-0.03,0.22-0.18,0.43-0.31,0.62
		c-0.83,1.23-1.81,1.26-2.68,0.05c-0.07-0.1-0.04-0.37,0.04-0.48C98.05,72.35,98.58,71.72,99.16,71z"/>
	<path class="st0" d="M85.2,78.24c-0.56,0.57-1.11,1.16-1.71,1.7c-0.06,0.06-0.41-0.14-0.58-0.28c-1.06-0.85-1.06-0.85-0.26-1.97
		c0.07-0.1,0.11-0.21,0.19-0.3c0.27-0.28,0.74-0.81,0.81-0.76c0.5,0.32,0.92,0.77,1.36,1.19c0.05,0.05,0.04,0.18,0.05,0.27
		C85.11,78.14,85.15,78.19,85.2,78.24z"/>
</g>
<g>
	<path class="st0" d="M29.04,103.55c0.14,0,0.3-0.05,0.5-0.16c0.19-0.1,0.38-0.25,0.56-0.44c0.18-0.19,0.33-0.41,0.45-0.67
		c0.12-0.26,0.18-0.55,0.18-0.87c0-0.18-0.03-0.41-0.1-0.7c-0.07-0.29-0.2-0.66-0.38-1.1l-0.6,0.49c0.05,0.12,0.1,0.24,0.16,0.37
		c0.05,0.13,0.1,0.26,0.15,0.39c0.05,0.13,0.09,0.26,0.12,0.38s0.06,0.24,0.08,0.34c-0.03,0.13-0.09,0.27-0.18,0.41
		c-0.09,0.14-0.2,0.26-0.32,0.37c-0.12,0.11-0.25,0.2-0.38,0.28c-0.13,0.07-0.25,0.11-0.35,0.12c-0.09-0.01-0.2-0.01-0.34-0.03
		c-0.14-0.01-0.27-0.03-0.4-0.06l-0.15,0.51c0.1,0.05,0.2,0.09,0.3,0.14c0.1,0.05,0.2,0.09,0.3,0.12c0.09,0.03,0.18,0.06,0.25,0.08
		C28.96,103.54,29.01,103.55,29.04,103.55z"/>
	<path class="st0" d="M34.12,98.49l0.39-0.64c-0.09-0.09-0.19-0.17-0.31-0.25c-0.12-0.08-0.25-0.14-0.39-0.2l-0.38,0.66
		c0.12,0.06,0.24,0.13,0.37,0.21C33.93,98.35,34.03,98.42,34.12,98.49z"/>
	<path class="st0" d="M34.82,97.38l-0.37,0.66c0.11,0.06,0.24,0.13,0.37,0.21c0.13,0.08,0.24,0.15,0.32,0.22l0.39-0.64
		c-0.09-0.09-0.19-0.17-0.31-0.25C35.1,97.5,34.96,97.43,34.82,97.38z"/>
	<path class="st0" d="M34.48,97.47l0.34-0.57c-0.08-0.08-0.17-0.16-0.28-0.23c-0.11-0.07-0.23-0.13-0.36-0.19
		c-0.06,0.1-0.12,0.2-0.17,0.29c-0.05,0.09-0.1,0.19-0.16,0.29c0.11,0.06,0.22,0.13,0.33,0.2C34.29,97.34,34.39,97.41,34.48,97.47z"
		/>
	<path class="st0" d="M35.19,99.7c-0.04-0.15-0.08-0.29-0.13-0.44c-0.05-0.15-0.11-0.28-0.18-0.42l-0.61,0.51
		c0.09,0.16,0.17,0.36,0.26,0.61c0.08,0.25,0.14,0.5,0.18,0.74c-0.09,0.04-0.18,0.07-0.28,0.1c-0.1,0.03-0.2,0.04-0.3,0.06
		c-0.1,0.01-0.19,0.02-0.28,0.03c-0.08,0-0.15,0.01-0.2,0.01h-0.1h-0.77h-0.12c-0.25,0-0.42-0.06-0.51-0.17
		c-0.1-0.11-0.15-0.27-0.15-0.48c0-0.54,0-1.02-0.01-1.43c0-0.41-0.02-0.8-0.04-1.17c-0.01-0.19-0.03-0.37-0.05-0.53
		c-0.03-0.17-0.07-0.3-0.13-0.41l-0.58,0.57c0.03,0.08,0.06,0.18,0.08,0.3c0.02,0.12,0.04,0.25,0.05,0.38
		c0.01,0.14,0.03,0.28,0.04,0.43c0.01,0.15,0.02,0.32,0.03,0.51c0.01,0.19,0.01,0.42,0.02,0.67c0,0.26,0,0.55,0,0.9
		c0,0.19,0.02,0.37,0.06,0.53c0.04,0.16,0.11,0.3,0.2,0.41c0.09,0.12,0.22,0.21,0.37,0.27c0.15,0.06,0.34,0.1,0.57,0.1h0.17h0.77
		h0.02c0.13,0,0.26-0.01,0.38-0.02c0.13-0.01,0.25-0.03,0.36-0.06c0.11-0.03,0.22-0.06,0.31-0.1c0.09-0.04,0.17-0.09,0.23-0.14
		c0.04-0.04,0.08-0.09,0.13-0.17c0.05-0.08,0.1-0.17,0.15-0.26c0.05-0.09,0.09-0.19,0.12-0.29c0.03-0.1,0.05-0.18,0.05-0.25
		c0-0.11-0.01-0.24-0.03-0.37C35.25,99.98,35.22,99.84,35.19,99.7z"/>
	<path class="st0" d="M35.89,97.04l0.41-0.24c-0.03-0.09-0.05-0.18-0.06-0.29c-0.02-0.11-0.03-0.19-0.03-0.25
		c0.04-0.03,0.07-0.04,0.1-0.05c0.03,0,0.06-0.01,0.1-0.01c0.06,0,0.15,0.01,0.28,0.03c0.13,0.02,0.3,0.03,0.49,0.03
		c0.15,0,0.29-0.01,0.44-0.03c0.14-0.02,0.27-0.05,0.37-0.1l0.09-0.58c-0.13,0.05-0.26,0.08-0.39,0.1
		c-0.13,0.02-0.27,0.03-0.43,0.03c-0.17,0-0.32-0.01-0.45-0.03c-0.13-0.02-0.23-0.03-0.3-0.03c-0.08,0-0.15,0.01-0.2,0.03
		c-0.05,0.02-0.1,0.05-0.15,0.09c-0.03,0.03-0.07,0.06-0.1,0.12c-0.04,0.05-0.08,0.11-0.11,0.18c-0.04,0.06-0.07,0.13-0.09,0.2
		c-0.02,0.07-0.03,0.13-0.03,0.2c0,0.07,0.01,0.16,0.02,0.26C35.84,96.81,35.86,96.92,35.89,97.04z"/>
	<path class="st0" d="M37.33,97.21c-0.03-0.22-0.08-0.39-0.14-0.49l-0.58,0.57c0.03,0.08,0.06,0.18,0.08,0.3
		c0.02,0.12,0.04,0.25,0.05,0.38c0.01,0.14,0.03,0.34,0.05,0.61c0.02,0.27,0.03,0.58,0.05,0.93c0.01,0.35,0.02,0.73,0.03,1.14
		c0.01,0.41,0.02,0.82,0.02,1.24l0.47-0.11c0.03-0.16,0.05-0.31,0.07-0.46c0.01-0.15,0.02-0.3,0.02-0.45s0-0.33,0-0.51
		c0-0.19,0-0.4,0-0.65c0-0.27,0-0.56-0.01-0.86c0-0.3-0.02-0.6-0.03-0.88C37.39,97.68,37.36,97.43,37.33,97.21z"/>
	<path class="st0" d="M45.77,99.13l0.39-0.64c-0.09-0.09-0.19-0.17-0.31-0.25c-0.12-0.08-0.25-0.14-0.39-0.2l-0.38,0.66
		c0.12,0.06,0.24,0.13,0.37,0.21S45.69,99.06,45.77,99.13z"/>
	<path class="st0" d="M46.13,98.11l0.34-0.57c-0.08-0.08-0.17-0.16-0.28-0.23c-0.11-0.07-0.23-0.13-0.36-0.19
		c-0.06,0.1-0.12,0.2-0.17,0.29c-0.05,0.09-0.1,0.19-0.16,0.29c0.11,0.06,0.22,0.13,0.33,0.2C45.95,97.98,46.05,98.05,46.13,98.11z"
		/>
	<path class="st0" d="M46.11,98.67c0.11,0.06,0.24,0.13,0.37,0.21c0.13,0.08,0.24,0.15,0.32,0.22l0.39-0.64
		c-0.09-0.09-0.19-0.17-0.31-0.25c-0.12-0.08-0.26-0.14-0.4-0.2L46.11,98.67z"/>
	<path class="st0" d="M50.81,98.49l0.4-0.64c-0.09-0.09-0.19-0.17-0.31-0.25c-0.12-0.08-0.26-0.15-0.4-0.2l-0.38,0.66
		c0.12,0.07,0.24,0.14,0.37,0.22C50.62,98.35,50.73,98.42,50.81,98.49z"/>
	<path class="st0" d="M51.37,99.7c-0.04-0.15-0.08-0.29-0.13-0.44c-0.05-0.15-0.11-0.28-0.18-0.42l-0.61,0.51
		c0.09,0.16,0.17,0.36,0.26,0.61c0.08,0.25,0.14,0.5,0.18,0.74c-0.09,0.04-0.18,0.07-0.28,0.1c-0.1,0.03-0.2,0.04-0.3,0.06
		c-0.1,0.01-0.19,0.02-0.28,0.03c-0.08,0-0.15,0.01-0.2,0.01h-0.1h-0.77c-0.11,0-0.21,0-0.3-0.02c-0.09-0.01-0.18-0.04-0.25-0.08
		c-0.07-0.04-0.14-0.1-0.18-0.18s-0.08-0.19-0.1-0.33l-0.11-1.03l-0.64,0.34c0.02,0.19,0.04,0.4,0.06,0.63
		c0.02,0.23,0.04,0.42,0.05,0.59c-0.07,0.03-0.15,0.04-0.23,0.05c-0.08,0.01-0.17,0.02-0.26,0.02c-0.25,0-0.42-0.08-0.52-0.24
		l0.06-0.91L46,99.73l-0.13,0.76c-0.03,0.13-0.08,0.23-0.17,0.3c-0.09,0.07-0.24,0.11-0.46,0.11c-0.18,0-0.31-0.04-0.39-0.11
		c-0.08-0.08-0.12-0.19-0.12-0.34c0-0.08,0.01-0.17,0.02-0.29c0.02-0.12,0.03-0.25,0.05-0.41l-0.53-0.03l-0.18,0.7
		c-0.04,0.15-0.11,0.26-0.23,0.35c-0.11,0.08-0.3,0.13-0.54,0.13h-0.28h-0.77h-0.77H41.5c-0.18,0-0.33-0.04-0.43-0.09
		c-0.1-0.06-0.18-0.18-0.25-0.37l-0.31-0.84l-0.6,0.49c0.05,0.12,0.1,0.24,0.16,0.37c0.05,0.13,0.1,0.26,0.15,0.39
		c0.05,0.13,0.09,0.26,0.12,0.38s0.06,0.24,0.08,0.34c-0.03,0.13-0.09,0.27-0.18,0.41c-0.09,0.14-0.2,0.26-0.32,0.37
		c-0.12,0.11-0.25,0.2-0.38,0.28s-0.25,0.11-0.35,0.12c-0.09-0.01-0.2-0.01-0.34-0.03c-0.14-0.01-0.27-0.03-0.4-0.06l-0.15,0.51
		c0.1,0.05,0.2,0.09,0.3,0.14c0.1,0.05,0.2,0.09,0.3,0.12c0.09,0.03,0.18,0.06,0.25,0.08c0.07,0.02,0.13,0.03,0.16,0.03
		c0.13,0,0.29-0.05,0.47-0.14c0.18-0.09,0.35-0.22,0.52-0.39c0.17-0.17,0.32-0.37,0.44-0.61c0.13-0.24,0.21-0.5,0.24-0.79
		c0.07,0.06,0.15,0.1,0.23,0.12c0.08,0.02,0.17,0.03,0.27,0.03h0.02h0.77h0.77h0.22c0.24,0,0.44-0.03,0.61-0.1
		c0.17-0.07,0.31-0.2,0.43-0.38c0.08,0.17,0.2,0.3,0.34,0.37c0.15,0.07,0.33,0.11,0.56,0.11c0.21,0,0.38-0.03,0.53-0.09
		c0.14-0.06,0.26-0.17,0.36-0.31c0.11,0.16,0.24,0.27,0.39,0.33c0.15,0.05,0.3,0.08,0.45,0.08c0.16,0,0.31-0.02,0.43-0.06
		c0.13-0.04,0.22-0.09,0.29-0.14c0.05-0.03,0.1-0.12,0.18-0.25c0.11,0.18,0.26,0.3,0.46,0.36c0.19,0.06,0.42,0.09,0.68,0.09h0.77
		h0.02c0.13,0,0.26-0.01,0.38-0.02c0.13-0.01,0.25-0.03,0.36-0.06c0.11-0.03,0.22-0.06,0.31-0.1c0.09-0.04,0.17-0.09,0.23-0.14
		c0.04-0.04,0.08-0.09,0.13-0.17c0.05-0.08,0.1-0.17,0.15-0.26c0.05-0.09,0.09-0.19,0.12-0.29c0.03-0.1,0.05-0.18,0.05-0.25
		c0-0.11-0.01-0.24-0.03-0.37C51.43,99.98,51.41,99.84,51.37,99.7z"/>
	<path class="st0" d="M53.29,103.43c0.09,0.03,0.18,0.06,0.25,0.08c0.07,0.02,0.13,0.03,0.16,0.03c0.14,0,0.31-0.05,0.49-0.16
		c0.19-0.11,0.36-0.25,0.53-0.44c0.17-0.19,0.31-0.41,0.42-0.67c0.11-0.26,0.17-0.54,0.17-0.85c0-0.21-0.02-0.45-0.07-0.7
		c-0.05-0.26-0.13-0.49-0.23-0.72c-0.1-0.22-0.24-0.41-0.41-0.56c-0.17-0.15-0.37-0.23-0.6-0.23c-0.22,0-0.41,0.09-0.56,0.28
		c-0.15,0.19-0.27,0.44-0.35,0.77c-0.04,0.14-0.07,0.28-0.1,0.41c-0.03,0.13-0.04,0.25-0.04,0.36c0,0.24,0.08,0.42,0.23,0.55
		c0.16,0.13,0.37,0.19,0.66,0.19c0.19,0,0.37-0.02,0.54-0.05c0.17-0.03,0.32-0.07,0.46-0.13c0,0.01,0,0.02,0,0.02c0,0,0,0.01,0,0.02
		c-0.05,0.14-0.12,0.27-0.21,0.4c-0.09,0.13-0.2,0.25-0.32,0.35c-0.12,0.1-0.25,0.19-0.38,0.25c-0.13,0.07-0.25,0.1-0.36,0.11
		c-0.09-0.01-0.2-0.01-0.34-0.03c-0.14-0.01-0.28-0.03-0.4-0.06l-0.15,0.51c0.1,0.05,0.2,0.09,0.31,0.14
		C53.09,103.36,53.19,103.4,53.29,103.43z M54.29,100.91c-0.13,0.01-0.25,0.02-0.36,0.02c-0.17,0-0.29-0.02-0.35-0.07
		c-0.07-0.05-0.1-0.1-0.1-0.18c0-0.06,0.01-0.12,0.02-0.2c0.02-0.08,0.04-0.15,0.08-0.22c0.04-0.07,0.08-0.13,0.14-0.18
		c0.06-0.05,0.13-0.07,0.21-0.07c0.15,0,0.29,0.08,0.42,0.24c0.13,0.16,0.23,0.36,0.32,0.61C54.54,100.88,54.42,100.9,54.29,100.91z
		"/>
	<path class="st0" d="M59.54,98.47l0.4-0.64c-0.09-0.09-0.19-0.17-0.31-0.25c-0.12-0.08-0.26-0.15-0.4-0.2l-0.38,0.66
		c0.12,0.07,0.24,0.14,0.37,0.22C59.35,98.34,59.46,98.41,59.54,98.47z"/>
	<path class="st0" d="M63.59,98.33l0.4-0.64c-0.09-0.09-0.19-0.17-0.31-0.25c-0.12-0.08-0.26-0.15-0.4-0.2l-0.38,0.66
		c0.12,0.07,0.24,0.14,0.37,0.22C63.4,98.19,63.5,98.26,63.59,98.33z"/>
	<path class="st0" d="M68.05,99.16c-0.21-0.07-0.38-0.12-0.51-0.15c-0.13-0.03-0.25-0.05-0.35-0.05c-0.07,0-0.15,0.02-0.23,0.06
		c-0.08,0.04-0.16,0.09-0.23,0.15c-0.07,0.06-0.14,0.13-0.2,0.2c-0.06,0.07-0.09,0.13-0.12,0.18c-0.02,0.05-0.04,0.11-0.06,0.18
		c-0.02,0.07-0.04,0.15-0.05,0.24c-0.02,0.08-0.03,0.17-0.04,0.26c-0.01,0.09-0.02,0.17-0.03,0.26l0.63-0.15
		c0-0.09,0.01-0.18,0.03-0.29c0.01-0.11,0.04-0.2,0.06-0.27c0.02-0.01,0.04-0.02,0.06-0.02c0.02,0,0.03,0,0.05,0
		c0.16,0,0.37,0.04,0.62,0.11c0.26,0.08,0.57,0.17,0.94,0.28c-0.13,0.07-0.27,0.15-0.42,0.23c-0.15,0.08-0.3,0.17-0.45,0.25
		c-0.16,0.09-0.32,0.15-0.47,0.2c-0.16,0.04-0.32,0.07-0.48,0.07h-1.05h-0.77h-0.32c-0.07,0-0.14,0-0.21,0c-0.07,0-0.14,0-0.21-0.01
		c0.06-0.06,0.12-0.14,0.17-0.25c0.02-0.04,0.03-0.08,0.05-0.13c0.02-0.05,0.03-0.1,0.05-0.16c0.01-0.06,0.03-0.11,0.04-0.16
		c0.01-0.05,0.02-0.09,0.02-0.12c0-0.12-0.03-0.25-0.09-0.39c-0.06-0.15-0.14-0.28-0.24-0.41c-0.1-0.13-0.21-0.24-0.34-0.32
		c-0.13-0.09-0.26-0.13-0.38-0.13c-0.12,0-0.24,0.04-0.37,0.13c-0.13,0.09-0.25,0.2-0.36,0.34c-0.11,0.14-0.2,0.31-0.28,0.49
		c-0.07,0.19-0.11,0.38-0.11,0.57c0,0.08,0.01,0.17,0.04,0.26c0.03,0.09,0.07,0.18,0.13,0.28c-0.08,0-0.16,0.01-0.24,0.01
		s-0.17,0-0.26,0h-0.18h0H61.1c-0.13,0-0.23,0-0.32-0.01c-0.08-0.01-0.16-0.02-0.22-0.05c0.04-0.07,0.06-0.14,0.08-0.2
		s0.03-0.11,0.03-0.15c0-0.18-0.03-0.36-0.08-0.54c-0.05-0.17-0.12-0.33-0.21-0.47c-0.09-0.14-0.18-0.25-0.29-0.33
		c-0.1-0.08-0.21-0.13-0.31-0.13c-0.1,0-0.21,0.02-0.33,0.07c-0.12,0.05-0.25,0.11-0.39,0.2s-0.28,0.18-0.43,0.3
		c-0.15,0.11-0.29,0.23-0.43,0.36c0.04-0.14,0.05-0.32,0.05-0.53c0-0.09,0-0.2,0-0.35c0-0.15-0.01-0.31-0.02-0.47
		c-0.01-0.17-0.01-0.33-0.02-0.5c-0.01-0.17-0.01-0.31-0.02-0.43c-0.01-0.19-0.02-0.37-0.05-0.53s-0.07-0.3-0.13-0.41l-0.58,0.57
		c0.03,0.08,0.05,0.18,0.07,0.3c0.02,0.12,0.04,0.25,0.06,0.38c0.01,0.11,0.02,0.24,0.03,0.41c0.01,0.17,0.02,0.34,0.03,0.51
		c0.01,0.18,0.02,0.35,0.03,0.51c0.01,0.17,0.01,0.3,0.01,0.41c0,0.1,0,0.19-0.01,0.27c-0.01,0.08-0.02,0.16-0.05,0.25
		s-0.06,0.17-0.12,0.25c-0.05,0.09-0.12,0.18-0.21,0.29c-0.1-0.01-0.21-0.02-0.32-0.03c-0.11-0.01-0.23-0.02-0.36-0.03l0.19,0.87
		c0.26,0.04,0.51,0.07,0.74,0.08c0.23,0.02,0.49,0.02,0.78,0.02c0.16,0,0.33-0.01,0.5-0.02c0.17-0.01,0.33-0.04,0.49-0.07
		c0.16-0.03,0.3-0.07,0.43-0.11c0.13-0.04,0.25-0.09,0.34-0.14c0.09,0.1,0.2,0.18,0.35,0.25c0.15,0.06,0.34,0.09,0.57,0.09h0.08
		h0.77h0h0.16c0.28,0,0.52-0.02,0.74-0.06c0.22-0.04,0.4-0.12,0.56-0.23c0.13,0.12,0.31,0.2,0.53,0.24
		c0.22,0.04,0.47,0.05,0.75,0.05h0.37h0.77h0.96c0.21,0,0.42-0.04,0.62-0.12c0.2-0.08,0.39-0.18,0.56-0.3
		c0.21-0.15,0.4-0.28,0.56-0.39c0.16-0.11,0.3-0.19,0.43-0.26c0.13-0.06,0.25-0.11,0.36-0.14c0.11-0.03,0.23-0.05,0.36-0.05
		l0.29-0.76c-0.42-0.13-0.78-0.25-1.08-0.35C68.51,99.32,68.26,99.23,68.05,99.16z M59.73,100.75c-0.13,0.03-0.28,0.06-0.43,0.08
		c-0.15,0.02-0.31,0.04-0.46,0.05c-0.16,0.01-0.31,0.02-0.45,0.02H57.9c0.16-0.16,0.32-0.31,0.47-0.44
		c0.16-0.14,0.31-0.25,0.45-0.35c0.14-0.1,0.28-0.17,0.4-0.23c0.12-0.05,0.23-0.08,0.32-0.08c0.04,0,0.08,0.02,0.13,0.07
		c0.05,0.05,0.11,0.11,0.16,0.18c0.05,0.07,0.1,0.16,0.15,0.26c0.05,0.1,0.08,0.2,0.1,0.31C59.98,100.67,59.86,100.71,59.73,100.75z
		 M63.76,100.59c-0.12,0.09-0.25,0.18-0.39,0.25c-0.16-0.09-0.28-0.19-0.35-0.31c-0.07-0.11-0.11-0.22-0.11-0.32
		c0-0.08,0.02-0.15,0.05-0.22c0.04-0.07,0.08-0.14,0.13-0.19c0.05-0.06,0.11-0.1,0.17-0.13c0.06-0.03,0.12-0.05,0.17-0.05
		c0.04,0,0.08,0.02,0.14,0.06c0.06,0.04,0.11,0.09,0.18,0.15c0.06,0.06,0.12,0.14,0.17,0.23c0.05,0.09,0.09,0.18,0.12,0.27
		C63.97,100.4,63.88,100.49,63.76,100.59z"/>
	<path class="st0" d="M74.53,98.87l0.39-0.64c-0.09-0.09-0.19-0.17-0.31-0.25c-0.12-0.08-0.25-0.14-0.39-0.2l-0.38,0.66
		c0.12,0.06,0.24,0.13,0.37,0.21C74.34,98.73,74.45,98.81,74.53,98.87z"/>
	<path class="st0" d="M75.24,98.63c0.13,0.08,0.24,0.15,0.32,0.22l0.39-0.64c-0.09-0.09-0.19-0.17-0.31-0.25
		c-0.12-0.08-0.26-0.14-0.4-0.2l-0.37,0.66C74.98,98.48,75.11,98.55,75.24,98.63z"/>
	<path class="st0" d="M79.47,98.8c-0.11-0.24-0.24-0.44-0.41-0.59c-0.17-0.15-0.36-0.23-0.59-0.23c-0.19,0-0.36,0.07-0.51,0.21
		c-0.15,0.14-0.26,0.34-0.35,0.61c-0.02,0.07-0.04,0.15-0.06,0.23c-0.02,0.08-0.04,0.17-0.06,0.25c-0.02,0.08-0.03,0.16-0.04,0.23
		c-0.01,0.07-0.02,0.12-0.02,0.16c0,0.26,0.07,0.44,0.22,0.54c0.15,0.1,0.35,0.16,0.61,0.16c0.18,0,0.35-0.01,0.51-0.03
		c0.16-0.02,0.31-0.05,0.44-0.1c0.01,0.07,0.02,0.14,0.02,0.21c0,0.07,0.01,0.14,0.02,0.22c-0.1,0.05-0.22,0.08-0.36,0.11
		s-0.29,0.05-0.44,0.07c-0.16,0.02-0.32,0.03-0.49,0.03c-0.17,0-0.34,0.01-0.49,0.01h-0.44h-0.77c-0.11,0-0.21,0-0.3-0.02
		c-0.09-0.01-0.18-0.04-0.26-0.08c-0.08-0.04-0.14-0.1-0.19-0.18c-0.05-0.08-0.08-0.19-0.1-0.33l-0.11-1.02l-0.64,0.34
		c0.02,0.18,0.05,0.38,0.06,0.58c0.01,0.2,0.03,0.38,0.04,0.53c-0.15,0.07-0.32,0.12-0.51,0.13c-0.18,0.02-0.34,0.03-0.47,0.03h-0.1
		h-0.02c-0.18,0-0.33-0.04-0.43-0.09c-0.1-0.06-0.18-0.18-0.25-0.37L72.7,99.6l-0.6,0.49c0.05,0.12,0.1,0.24,0.16,0.37
		c0.05,0.13,0.1,0.26,0.15,0.39c0.05,0.13,0.09,0.26,0.12,0.38s0.06,0.24,0.08,0.34c-0.03,0.13-0.09,0.27-0.18,0.41
		c-0.09,0.14-0.2,0.26-0.32,0.37c-0.12,0.11-0.25,0.2-0.38,0.28s-0.25,0.11-0.35,0.12c-0.09-0.01-0.2-0.01-0.34-0.03
		c-0.14-0.01-0.27-0.03-0.4-0.06l-0.15,0.51c0.1,0.05,0.2,0.09,0.3,0.14c0.1,0.05,0.2,0.09,0.3,0.12c0.09,0.03,0.18,0.06,0.25,0.08
		c0.07,0.02,0.13,0.03,0.16,0.03c0.13,0,0.29-0.05,0.47-0.14c0.18-0.09,0.35-0.22,0.52-0.39c0.17-0.17,0.32-0.37,0.44-0.61
		c0.13-0.24,0.21-0.5,0.24-0.79c0.07,0.06,0.15,0.1,0.23,0.12c0.08,0.02,0.17,0.03,0.27,0.03h0.02c0.26,0,0.5-0.02,0.73-0.07
		c0.23-0.05,0.39-0.12,0.48-0.2c0.04-0.04,0.1-0.12,0.17-0.24c0.11,0.21,0.26,0.35,0.46,0.41c0.2,0.07,0.41,0.1,0.66,0.1h0.08h0.77
		h0.4c0.5,0,0.91-0.03,1.25-0.1c0.34-0.07,0.57-0.15,0.69-0.25c0.03-0.03,0.07-0.08,0.12-0.16c0.05-0.07,0.1-0.16,0.14-0.25
		c0.05-0.09,0.08-0.18,0.11-0.28c0.03-0.09,0.05-0.18,0.05-0.25c0-0.3-0.03-0.59-0.08-0.89S79.58,99.04,79.47,98.8z M78.71,99.59
		c-0.12,0.01-0.23,0.01-0.33,0.01c-0.16,0-0.28-0.02-0.34-0.06c-0.06-0.04-0.1-0.09-0.1-0.16c0-0.05,0.01-0.11,0.03-0.18
		c0.02-0.07,0.04-0.15,0.07-0.22c0.03-0.06,0.07-0.12,0.12-0.16c0.06-0.05,0.13-0.07,0.21-0.07c0.15,0,0.29,0.07,0.4,0.22
		c0.11,0.15,0.21,0.34,0.28,0.57C78.95,99.57,78.83,99.58,78.71,99.59z"/>
	<path class="st0" d="M78.51,97.53l0.4-0.64c-0.09-0.09-0.19-0.17-0.31-0.25c-0.12-0.08-0.26-0.15-0.4-0.2l-0.38,0.66
		c0.12,0.07,0.24,0.14,0.37,0.22S78.43,97.47,78.51,97.53z"/>
	<path class="st0" d="M82.21,101.71c0.25-0.07,0.43-0.16,0.54-0.26c0.03-0.03,0.07-0.07,0.11-0.14c0.04-0.07,0.09-0.15,0.13-0.23
		c0.04-0.09,0.08-0.18,0.11-0.27c0.03-0.09,0.05-0.18,0.05-0.26c0-0.17-0.03-0.36-0.09-0.54c-0.06-0.19-0.15-0.38-0.27-0.57
		c-0.12-0.19-0.28-0.38-0.47-0.56c-0.19-0.18-0.42-0.36-0.68-0.51l-0.26,0.8c0.38,0.26,0.66,0.51,0.85,0.76
		c0.19,0.25,0.32,0.53,0.39,0.84c-0.16,0.06-0.34,0.11-0.54,0.14c-0.2,0.03-0.39,0.05-0.58,0.05c-0.18,0-0.31-0.01-0.41-0.03
		c-0.09-0.02-0.16-0.04-0.2-0.07c-0.04-0.03-0.06-0.07-0.07-0.11c0-0.04-0.01-0.09-0.01-0.14c0-0.1,0.01-0.21,0.02-0.31l-0.43-0.08
		c-0.03,0.12-0.05,0.25-0.07,0.4c-0.02,0.15-0.03,0.29-0.03,0.42c0,0.12,0.01,0.23,0.03,0.33c0.02,0.1,0.07,0.19,0.15,0.26
		c0.08,0.07,0.19,0.13,0.33,0.17c0.14,0.04,0.33,0.06,0.56,0.06C81.7,101.82,81.97,101.79,82.21,101.71z"/>
	<path class="st0" d="M85.42,101.49c0.38,0,0.63-0.05,0.76-0.15c0.06-0.05,0.12-0.13,0.18-0.25c0.08,0.23,0.21,0.4,0.39,0.52
		c0.18,0.11,0.42,0.17,0.72,0.17h0.08h0.02c0.13,0,0.26-0.01,0.38-0.02c0.13-0.01,0.25-0.03,0.36-0.06c0.11-0.03,0.22-0.06,0.31-0.1
		c0.09-0.04,0.17-0.09,0.23-0.14c0.04-0.04,0.08-0.09,0.13-0.17c0.05-0.08,0.1-0.17,0.15-0.26c0.05-0.09,0.09-0.19,0.12-0.29
		c0.03-0.1,0.05-0.18,0.05-0.25c0-0.11-0.01-0.24-0.03-0.37c-0.02-0.14-0.04-0.28-0.08-0.42c-0.04-0.15-0.08-0.29-0.13-0.44
		c-0.05-0.15-0.11-0.28-0.18-0.42l-0.61,0.51c0.09,0.16,0.17,0.36,0.26,0.61c0.08,0.25,0.14,0.5,0.18,0.74
		c-0.09,0.04-0.18,0.07-0.28,0.1c-0.1,0.03-0.2,0.04-0.3,0.06c-0.1,0.01-0.19,0.02-0.28,0.03c-0.08,0-0.15,0.01-0.2,0.01h-0.1
		c-0.13,0-0.24-0.01-0.33-0.03c-0.08-0.02-0.15-0.05-0.2-0.09c-0.05-0.04-0.09-0.09-0.11-0.15c-0.02-0.06-0.04-0.13-0.06-0.21
		l-0.43-2.51l-0.58,0.5l0.09,0.51c-0.29,0.26-0.54,0.46-0.75,0.62c-0.21,0.16-0.36,0.3-0.45,0.41c-0.07,0.08-0.13,0.19-0.17,0.33
		c-0.04,0.14-0.06,0.3-0.06,0.47c0,0.26,0.08,0.45,0.24,0.57C84.91,101.43,85.13,101.49,85.42,101.49z M85.39,100.08
		c0.16-0.12,0.39-0.3,0.67-0.54l0.18,1.01c-0.22,0.04-0.45,0.06-0.7,0.06c-0.16,0-0.28-0.02-0.36-0.05
		c-0.08-0.03-0.11-0.1-0.11-0.21C85.13,100.29,85.23,100.2,85.39,100.08z"/>
	<path class="st0" d="M87.84,102.32l-0.38,0.66c0.12,0.07,0.24,0.14,0.38,0.22s0.24,0.15,0.31,0.22l0.4-0.65
		c-0.09-0.08-0.19-0.16-0.31-0.24C88.12,102.44,87.98,102.37,87.84,102.32z"/>
	<path class="st0" d="M92.52,101.09c0.08,0.23,0.21,0.4,0.39,0.52c0.18,0.11,0.42,0.17,0.72,0.17h0.08c0.26,0,0.5-0.02,0.73-0.07
		c0.23-0.05,0.39-0.12,0.48-0.2c0.04-0.04,0.1-0.12,0.17-0.24c0.11,0.21,0.26,0.35,0.46,0.41c0.2,0.07,0.41,0.1,0.66,0.1h0.08v0
		c0,0,0,0,0,0h0.77h0.22c0.24,0,0.44-0.03,0.61-0.1c0.17-0.07,0.31-0.2,0.43-0.38c0.08,0.17,0.2,0.3,0.34,0.37
		c0.15,0.07,0.33,0.11,0.56,0.11c0.21,0,0.38-0.03,0.53-0.09c0.14-0.06,0.26-0.17,0.36-0.31c0.11,0.16,0.24,0.27,0.39,0.33
		c0.15,0.05,0.3,0.08,0.45,0.08c0.16,0,0.31-0.02,0.43-0.06c0.13-0.04,0.22-0.09,0.29-0.14c0.05-0.03,0.1-0.12,0.18-0.25
		c0.11,0.18,0.26,0.3,0.46,0.36c0.19,0.06,0.42,0.09,0.68,0.09h0.02c0.13,0,0.26-0.01,0.38-0.02c0.13-0.01,0.25-0.03,0.36-0.06
		c0.11-0.03,0.22-0.06,0.31-0.1c0.09-0.04,0.17-0.09,0.23-0.14c0.04-0.04,0.08-0.09,0.13-0.17c0.05-0.08,0.1-0.17,0.15-0.26
		c0.05-0.09,0.09-0.19,0.12-0.29c0.03-0.1,0.05-0.18,0.05-0.25c0-0.11-0.01-0.24-0.03-0.37c-0.02-0.14-0.04-0.28-0.08-0.42
		c-0.04-0.15-0.08-0.29-0.13-0.44c-0.05-0.15-0.11-0.28-0.18-0.42l-0.61,0.51c0.09,0.16,0.17,0.36,0.26,0.61
		c0.08,0.25,0.14,0.5,0.18,0.74c-0.09,0.04-0.18,0.07-0.28,0.1c-0.1,0.03-0.2,0.04-0.3,0.06c-0.1,0.01-0.19,0.02-0.28,0.03
		c-0.08,0-0.15,0.01-0.2,0.01h-0.1c-0.11,0-0.21,0-0.3-0.02c-0.09-0.01-0.18-0.04-0.25-0.08c-0.07-0.04-0.14-0.1-0.18-0.18
		s-0.08-0.19-0.1-0.33l-0.11-1.03l-0.64,0.34c0.02,0.19,0.04,0.4,0.06,0.63c0.02,0.23,0.04,0.42,0.05,0.59
		c-0.07,0.03-0.15,0.04-0.23,0.05c-0.08,0.01-0.17,0.02-0.26,0.02c-0.25,0-0.42-0.08-0.52-0.24l0.06-0.91L100,99.73l-0.13,0.76
		c-0.03,0.13-0.08,0.23-0.17,0.3c-0.09,0.07-0.24,0.11-0.46,0.11c-0.18,0-0.31-0.04-0.39-0.11c-0.08-0.08-0.12-0.19-0.12-0.34
		c0-0.08,0.01-0.17,0.02-0.29c0.02-0.12,0.03-0.25,0.05-0.41l-0.53-0.03l-0.18,0.7c-0.04,0.15-0.11,0.26-0.23,0.35
		s-0.3,0.13-0.54,0.13h-0.28h-0.77c0,0,0,0,0,0v0c-0.11,0-0.21,0-0.3-0.02c-0.09-0.01-0.18-0.04-0.26-0.08
		c-0.08-0.04-0.14-0.1-0.19-0.18s-0.08-0.19-0.1-0.33l-0.11-1.02l-0.64,0.34c0.02,0.18,0.05,0.38,0.06,0.58
		c0.01,0.2,0.03,0.38,0.04,0.53c-0.15,0.07-0.32,0.12-0.51,0.13c-0.18,0.02-0.34,0.03-0.47,0.03h-0.1c-0.13,0-0.24-0.01-0.33-0.03
		c-0.08-0.02-0.15-0.05-0.2-0.09c-0.05-0.04-0.09-0.09-0.11-0.15c-0.02-0.06-0.04-0.13-0.06-0.21l-0.43-2.51l-0.58,0.5l0.09,0.51
		c-0.29,0.26-0.54,0.46-0.75,0.62c-0.21,0.16-0.36,0.3-0.45,0.41c-0.07,0.08-0.13,0.19-0.17,0.33c-0.04,0.14-0.06,0.3-0.06,0.47
		c0,0.26,0.08,0.45,0.24,0.57c0.16,0.12,0.38,0.18,0.67,0.18c0.38,0,0.63-0.05,0.76-0.15C92.4,101.3,92.46,101.21,92.52,101.09z
		 M91.35,100.58c-0.08-0.03-0.11-0.1-0.11-0.21c0.05-0.07,0.15-0.16,0.31-0.28c0.16-0.12,0.39-0.3,0.67-0.54l0.18,1.01
		c-0.22,0.04-0.45,0.06-0.7,0.06C91.55,100.62,91.43,100.61,91.35,100.58z"/>
	<path class="st0" d="M95.25,98.63c0.13,0.08,0.24,0.15,0.32,0.22l0.39-0.64c-0.09-0.09-0.19-0.17-0.31-0.25
		c-0.12-0.08-0.26-0.14-0.4-0.2l-0.37,0.66C95,98.48,95.12,98.55,95.25,98.63z"/>
	<path class="st0" d="M94.55,98.87l0.39-0.64c-0.09-0.09-0.19-0.17-0.31-0.25c-0.12-0.08-0.25-0.14-0.39-0.2l-0.38,0.66
		c0.12,0.06,0.24,0.13,0.37,0.21C94.36,98.73,94.46,98.81,94.55,98.87z"/>
	<path class="st0" d="M103.64,102.52c-0.12-0.08-0.26-0.15-0.4-0.2l-0.38,0.66c0.12,0.07,0.24,0.14,0.38,0.22s0.24,0.15,0.31,0.22
		l0.4-0.65C103.87,102.68,103.76,102.6,103.64,102.52z"/>
	<path class="st0" d="M105.3,97.96c0.01,0.14,0.03,0.34,0.05,0.61c0.02,0.27,0.03,0.58,0.05,0.93c0.01,0.35,0.02,0.73,0.03,1.14
		c0.01,0.41,0.02,0.82,0.02,1.24l0.47-0.11c0.03-0.16,0.05-0.31,0.07-0.46c0.01-0.15,0.02-0.3,0.02-0.45s0-0.33,0-0.51
		c0-0.19,0-0.4,0-0.65c0-0.27,0-0.56-0.01-0.86c0-0.3-0.02-0.6-0.03-0.88c-0.02-0.28-0.04-0.53-0.08-0.76
		c-0.03-0.22-0.08-0.39-0.14-0.49l-0.58,0.57c0.03,0.08,0.06,0.18,0.08,0.3C105.27,97.7,105.29,97.83,105.3,97.96z"/>
	<path class="st0" d="M107.1,103.43c0.09,0.03,0.18,0.06,0.25,0.08c0.07,0.02,0.13,0.03,0.16,0.03c0.14,0,0.31-0.05,0.49-0.16
		c0.19-0.11,0.36-0.25,0.53-0.44c0.17-0.19,0.31-0.41,0.42-0.67c0.11-0.26,0.17-0.54,0.17-0.85c0-0.21-0.02-0.45-0.07-0.7
		c-0.05-0.26-0.13-0.49-0.23-0.72c-0.1-0.22-0.24-0.41-0.41-0.56c-0.17-0.15-0.37-0.23-0.6-0.23c-0.22,0-0.41,0.09-0.56,0.28
		c-0.15,0.19-0.27,0.44-0.35,0.77c-0.04,0.14-0.07,0.28-0.1,0.41c-0.03,0.13-0.04,0.25-0.04,0.36c0,0.24,0.08,0.42,0.23,0.55
		c0.16,0.13,0.37,0.19,0.66,0.19c0.19,0,0.37-0.02,0.54-0.05c0.17-0.03,0.32-0.07,0.46-0.13c0,0.01,0,0.02,0,0.02c0,0,0,0.01,0,0.02
		c-0.05,0.14-0.12,0.27-0.21,0.4c-0.09,0.13-0.2,0.25-0.32,0.35c-0.12,0.1-0.25,0.19-0.38,0.25c-0.13,0.07-0.25,0.1-0.36,0.11
		c-0.09-0.01-0.2-0.01-0.35-0.03c-0.14-0.01-0.28-0.03-0.4-0.06l-0.15,0.51c0.1,0.05,0.2,0.09,0.31,0.14
		C106.9,103.36,107,103.4,107.1,103.43z M108.1,100.91c-0.13,0.01-0.25,0.02-0.36,0.02c-0.17,0-0.29-0.02-0.35-0.07
		c-0.07-0.05-0.1-0.1-0.1-0.18c0-0.06,0.01-0.12,0.02-0.2c0.02-0.08,0.04-0.15,0.08-0.22c0.04-0.07,0.08-0.13,0.14-0.18
		c0.06-0.05,0.13-0.07,0.21-0.07c0.15,0,0.29,0.08,0.42,0.24c0.13,0.16,0.23,0.36,0.32,0.61
		C108.35,100.88,108.23,100.9,108.1,100.91z"/>
	<path class="st0" d="M31.72,108.85c0.08-0.07,0.17-0.12,0.25-0.15c0.08-0.03,0.15-0.05,0.21-0.05c0.07,0,0.15,0.02,0.23,0.06
		c0.08,0.04,0.17,0.1,0.25,0.17l0.41-0.54c-0.15-0.16-0.29-0.29-0.43-0.38c-0.14-0.09-0.27-0.13-0.4-0.13
		c-0.17,0-0.35,0.06-0.53,0.18c-0.18,0.12-0.35,0.28-0.5,0.47c-0.15,0.19-0.27,0.4-0.37,0.63c-0.09,0.23-0.14,0.45-0.14,0.66
		c0,0.06,0.01,0.12,0.02,0.18c0.01,0.06,0.04,0.12,0.08,0.17c0.04,0.06,0.1,0.11,0.18,0.15c0.08,0.05,0.18,0.09,0.31,0.12
		c0.19,0.05,0.35,0.09,0.48,0.13s0.23,0.06,0.31,0.1c0.08,0.03,0.14,0.06,0.19,0.09c0.05,0.03,0.08,0.07,0.11,0.11
		c-0.11,0.08-0.24,0.14-0.38,0.2c-0.14,0.05-0.3,0.1-0.46,0.13c-0.16,0.04-0.32,0.06-0.49,0.08c-0.16,0.02-0.32,0.02-0.48,0.02
		c-0.27,0-0.5-0.03-0.7-0.1c-0.2-0.06-0.33-0.14-0.39-0.23c-0.04-0.06-0.07-0.14-0.1-0.24c-0.03-0.1-0.04-0.22-0.04-0.37
		c0-0.16,0.02-0.36,0.07-0.6c0.05-0.24,0.11-0.48,0.2-0.73l-0.45-0.17c-0.12,0.28-0.21,0.57-0.29,0.87c-0.08,0.3-0.11,0.6-0.11,0.89
		c0,0.23,0.02,0.43,0.06,0.61c0.04,0.18,0.11,0.33,0.21,0.45c0.11,0.14,0.29,0.26,0.53,0.36c0.24,0.1,0.55,0.15,0.94,0.15
		c0.22,0,0.44-0.02,0.66-0.06c0.22-0.04,0.42-0.09,0.62-0.15c0.19-0.06,0.37-0.14,0.53-0.23s0.29-0.19,0.39-0.29
		c0.02-0.02,0.05-0.06,0.08-0.13c0.03-0.06,0.06-0.14,0.1-0.22c0.03-0.08,0.06-0.16,0.08-0.25s0.03-0.16,0.03-0.23
		c0-0.16-0.04-0.3-0.11-0.41c-0.07-0.11-0.22-0.2-0.44-0.27c-0.32-0.09-0.58-0.16-0.79-0.21s-0.33-0.11-0.38-0.19
		c0.06-0.15,0.13-0.28,0.21-0.39C31.55,109.01,31.64,108.92,31.72,108.85z"/>
	<path class="st0" d="M34.33,107.16c-0.02-0.28-0.04-0.53-0.08-0.76c-0.03-0.22-0.08-0.39-0.14-0.49l-0.58,0.57
		c0.03,0.08,0.06,0.18,0.08,0.3c0.02,0.12,0.04,0.25,0.05,0.38c0.01,0.14,0.03,0.34,0.05,0.61c0.02,0.27,0.03,0.58,0.05,0.93
		c0.01,0.35,0.02,0.73,0.03,1.14c0.01,0.41,0.02,0.82,0.02,1.24l0.47-0.11c0.03-0.16,0.05-0.31,0.07-0.46
		c0.01-0.15,0.02-0.3,0.02-0.45c0-0.16,0-0.33,0-0.51c0-0.19,0-0.4,0-0.65c0-0.27,0-0.56-0.01-0.86
		C34.36,107.73,34.34,107.44,34.33,107.16z"/>
	<path class="st0" d="M40.15,108.07l0.4-0.64c-0.09-0.09-0.19-0.17-0.31-0.25c-0.12-0.08-0.26-0.15-0.4-0.2l-0.38,0.66
		c0.12,0.07,0.24,0.14,0.37,0.22C39.96,107.93,40.07,108.01,40.15,108.07z"/>
	<path class="st0" d="M44.33,108.96c-0.08-0.15-0.18-0.27-0.3-0.36c-0.12-0.09-0.25-0.13-0.39-0.13c-0.14,0-0.26,0.03-0.37,0.1
		c-0.11,0.07-0.21,0.15-0.3,0.26c-0.09,0.11-0.19,0.23-0.28,0.36c-0.09,0.14-0.2,0.27-0.3,0.41c-0.13,0.16-0.27,0.29-0.42,0.37
		c-0.15,0.08-0.34,0.13-0.57,0.13h-0.02c0,0,0,0,0,0v0c-0.11,0-0.21,0-0.3-0.02c-0.09-0.01-0.18-0.04-0.26-0.08
		c-0.08-0.04-0.14-0.1-0.19-0.18s-0.08-0.19-0.1-0.33l-0.11-1.02l-0.64,0.34c0.02,0.18,0.05,0.38,0.06,0.58
		c0.01,0.2,0.03,0.38,0.04,0.53c-0.15,0.07-0.32,0.12-0.51,0.13c-0.18,0.02-0.34,0.03-0.47,0.03h-0.1c-0.13,0-0.24-0.01-0.33-0.03
		c-0.08-0.02-0.15-0.05-0.2-0.09c-0.05-0.04-0.09-0.09-0.11-0.15c-0.02-0.06-0.04-0.13-0.06-0.21l-0.43-2.51l-0.58,0.5l0.09,0.51
		c-0.29,0.26-0.54,0.46-0.75,0.62c-0.21,0.16-0.36,0.3-0.45,0.41c-0.07,0.08-0.13,0.19-0.17,0.33c-0.04,0.14-0.06,0.3-0.06,0.47
		c0,0.26,0.08,0.45,0.24,0.57c0.16,0.12,0.38,0.18,0.67,0.18c0.38,0,0.63-0.05,0.76-0.15c0.06-0.05,0.12-0.13,0.18-0.25
		c0.08,0.23,0.21,0.4,0.39,0.52c0.18,0.11,0.42,0.17,0.72,0.17h0.08c0.26,0,0.5-0.02,0.73-0.07c0.23-0.05,0.39-0.12,0.48-0.2
		c0.04-0.04,0.1-0.12,0.17-0.24c0.11,0.21,0.26,0.35,0.46,0.41c0.2,0.07,0.41,0.1,0.66,0.1h0.08v0c0,0,0,0,0,0h0.02
		c0.23,0,0.43-0.05,0.6-0.16c0.17-0.11,0.33-0.27,0.48-0.49c0.03,0.14,0.1,0.26,0.22,0.36c0.12,0.09,0.26,0.17,0.42,0.22
		c0.16,0.05,0.32,0.09,0.48,0.12c0.16,0.02,0.29,0.03,0.38,0.03c0.05,0,0.1-0.03,0.18-0.09c0.07-0.06,0.14-0.14,0.21-0.23
		c0.07-0.09,0.12-0.19,0.17-0.29c0.05-0.1,0.07-0.2,0.07-0.28c0-0.23-0.02-0.46-0.07-0.66C44.47,109.3,44.41,109.12,44.33,108.96z
		 M36.8,109.82c-0.16,0-0.28-0.02-0.36-0.05c-0.08-0.03-0.11-0.1-0.11-0.21c0.05-0.07,0.15-0.16,0.31-0.28
		c0.16-0.12,0.39-0.3,0.67-0.54l0.18,1.01C37.28,109.8,37.04,109.82,36.8,109.82z M43.71,110.2c-0.13-0.02-0.25-0.04-0.37-0.08
		c-0.11-0.03-0.21-0.08-0.3-0.13c-0.08-0.06-0.12-0.13-0.12-0.21c0-0.03,0.02-0.07,0.05-0.13c0.04-0.06,0.08-0.13,0.13-0.19
		c0.05-0.06,0.11-0.12,0.18-0.17c0.07-0.05,0.14-0.08,0.2-0.08c0.09,0,0.16,0.03,0.23,0.1c0.06,0.06,0.12,0.15,0.16,0.25
		c0.05,0.1,0.08,0.21,0.11,0.33c0.03,0.12,0.04,0.24,0.05,0.35C43.95,110.23,43.84,110.22,43.71,110.2z"/>
	<path class="st0" d="M48.95,108.36c-0.21-0.07-0.38-0.12-0.51-0.15c-0.13-0.03-0.25-0.05-0.35-0.05c-0.07,0-0.15,0.02-0.23,0.06
		c-0.08,0.04-0.16,0.09-0.23,0.15c-0.07,0.06-0.14,0.13-0.2,0.2c-0.06,0.07-0.09,0.13-0.12,0.18c-0.02,0.05-0.04,0.11-0.06,0.18
		c-0.02,0.07-0.04,0.15-0.05,0.24c-0.02,0.08-0.03,0.17-0.04,0.26c-0.01,0.09-0.02,0.17-0.03,0.26l0.63-0.15
		c0-0.09,0.01-0.18,0.03-0.29c0.01-0.11,0.04-0.2,0.06-0.27c0.02-0.01,0.04-0.02,0.06-0.02c0.02,0,0.03,0,0.05,0
		c0.16,0,0.37,0.04,0.62,0.11c0.26,0.08,0.57,0.17,0.94,0.28c-0.13,0.07-0.27,0.15-0.42,0.23s-0.3,0.17-0.45,0.25
		c-0.16,0.09-0.32,0.15-0.47,0.2c-0.16,0.04-0.32,0.07-0.48,0.07h-1.05h0h-0.11c-0.25,0-0.42-0.06-0.51-0.17
		c-0.1-0.11-0.15-0.27-0.15-0.48c0-0.54,0-1.02-0.01-1.43c0-0.41-0.02-0.8-0.04-1.17c-0.01-0.19-0.03-0.37-0.05-0.53
		s-0.07-0.3-0.13-0.41l-0.58,0.57c0.03,0.08,0.06,0.18,0.08,0.3c0.02,0.12,0.04,0.25,0.05,0.38c0.01,0.14,0.03,0.28,0.04,0.43
		c0.01,0.15,0.02,0.32,0.03,0.51c0.01,0.19,0.01,0.42,0.02,0.67c0,0.26,0,0.55,0,0.9c0,0.19,0.02,0.37,0.06,0.53
		c0.04,0.16,0.11,0.3,0.2,0.41c0.09,0.12,0.22,0.21,0.37,0.27c0.15,0.06,0.34,0.1,0.57,0.1h0.17h0h0.96c0.21,0,0.42-0.04,0.62-0.12
		c0.2-0.08,0.39-0.18,0.56-0.3c0.21-0.15,0.4-0.28,0.56-0.39c0.16-0.11,0.3-0.19,0.43-0.26c0.13-0.06,0.25-0.11,0.36-0.14
		c0.11-0.03,0.23-0.05,0.36-0.05l0.29-0.76c-0.42-0.13-0.78-0.25-1.08-0.35C49.41,108.52,49.16,108.43,48.95,108.36z"/>
	<path class="st0" d="M48.34,107.64l0.4-0.64c-0.09-0.09-0.19-0.17-0.31-0.25c-0.12-0.08-0.26-0.15-0.4-0.2l-0.38,0.66
		c0.12,0.07,0.24,0.14,0.37,0.22C48.16,107.5,48.26,107.57,48.34,107.64z"/>
	<path class="st0" d="M62.64,107.67l0.4-0.64c-0.09-0.09-0.19-0.17-0.31-0.25c-0.12-0.08-0.26-0.15-0.4-0.2l-0.38,0.66
		c0.12,0.07,0.24,0.14,0.37,0.22C62.45,107.53,62.55,107.61,62.64,107.67z"/>
	<path class="st0" d="M69.33,108.26c0-0.26-0.01-0.5-0.02-0.74c-0.01-0.24-0.02-0.46-0.03-0.66c-0.01-0.19-0.03-0.37-0.05-0.53
		c-0.03-0.17-0.07-0.3-0.14-0.41l-0.58,0.57c0.03,0.08,0.06,0.18,0.08,0.3c0.02,0.12,0.04,0.25,0.05,0.38
		c0.01,0.12,0.03,0.27,0.04,0.47c0.01,0.2,0.03,0.42,0.04,0.66c0.01,0.25,0.02,0.51,0.03,0.79c0.01,0.28,0.02,0.56,0.02,0.84
		c-0.12,0.06-0.26,0.1-0.43,0.13c-0.17,0.03-0.33,0.04-0.48,0.04h-0.59c-0.2,0-0.38-0.01-0.54-0.02c0.24-0.19,0.42-0.39,0.55-0.59
		s0.19-0.41,0.19-0.61c0-0.15-0.04-0.27-0.11-0.37c-0.07-0.1-0.16-0.18-0.28-0.24c-0.12-0.06-0.25-0.1-0.39-0.13
		c-0.15-0.03-0.3-0.04-0.45-0.04c-0.25,0-0.51,0.03-0.77,0.08c-0.27,0.05-0.51,0.11-0.74,0.18l-0.23,0.76
		c0.2,0.15,0.38,0.3,0.53,0.46c0.15,0.16,0.29,0.31,0.41,0.45c-0.15,0.03-0.32,0.04-0.49,0.06c-0.17,0.01-0.34,0.02-0.5,0.02h-0.33
		c-0.13,0-0.24,0-0.32-0.01c-0.09-0.01-0.16-0.02-0.22-0.05c0.04-0.07,0.06-0.14,0.08-0.2c0.02-0.06,0.03-0.11,0.03-0.15
		c0-0.18-0.03-0.36-0.08-0.54c-0.05-0.17-0.12-0.33-0.21-0.47c-0.08-0.14-0.18-0.25-0.28-0.33s-0.21-0.13-0.31-0.13
		c-0.1,0-0.21,0.02-0.33,0.07c-0.12,0.05-0.25,0.11-0.39,0.19c-0.14,0.08-0.28,0.18-0.42,0.29c-0.15,0.11-0.29,0.23-0.43,0.36
		c0.04-0.14,0.05-0.31,0.05-0.52c0-0.09,0-0.2,0-0.35c0-0.15-0.01-0.31-0.01-0.47c-0.01-0.17-0.02-0.33-0.02-0.5
		c-0.01-0.17-0.01-0.31-0.02-0.43c-0.01-0.19-0.03-0.37-0.05-0.53s-0.07-0.3-0.13-0.41l-0.58,0.57c0.03,0.08,0.06,0.18,0.08,0.3
		c0.02,0.12,0.04,0.25,0.05,0.38c0.01,0.11,0.02,0.24,0.03,0.41c0.01,0.17,0.03,0.34,0.04,0.51c0.01,0.18,0.02,0.35,0.03,0.51
		c0.01,0.17,0.01,0.3,0.01,0.41c0,0.1,0,0.19-0.01,0.27c-0.01,0.08-0.03,0.17-0.05,0.25s-0.07,0.17-0.13,0.26
		c-0.06,0.09-0.13,0.19-0.23,0.3h-0.31c-0.16,0-0.3-0.02-0.4-0.05s-0.2-0.1-0.28-0.18c-0.08-0.09-0.15-0.21-0.22-0.36
		c-0.07-0.15-0.15-0.34-0.24-0.57c-0.05-0.12-0.12-0.23-0.21-0.33c-0.09-0.09-0.21-0.14-0.35-0.14s-0.27,0.03-0.39,0.09
		c-0.12,0.06-0.23,0.14-0.34,0.24c-0.11,0.1-0.21,0.22-0.32,0.36c-0.11,0.14-0.22,0.29-0.34,0.44c-0.13,0.16-0.27,0.29-0.42,0.37
		c-0.15,0.08-0.34,0.13-0.57,0.13h-0.02h-1.2c-0.11,0-0.19,0.02-0.24,0.05c-0.05,0.03-0.1,0.09-0.13,0.18l-0.2,0.59
		c0.32,0.07,0.58,0.16,0.78,0.25c0.2,0.1,0.34,0.19,0.41,0.29c-0.21,0.12-0.45,0.21-0.71,0.25c-0.26,0.05-0.5,0.07-0.71,0.07
		c-0.27,0-0.5-0.03-0.7-0.1c-0.2-0.07-0.33-0.15-0.39-0.24c-0.04-0.06-0.07-0.14-0.1-0.24c-0.03-0.1-0.04-0.22-0.04-0.37
		c0-0.16,0.02-0.36,0.07-0.59c0.05-0.23,0.11-0.48,0.2-0.73l-0.45-0.16c-0.12,0.27-0.21,0.56-0.29,0.86
		c-0.08,0.3-0.11,0.6-0.11,0.89c0,0.23,0.02,0.43,0.06,0.61c0.04,0.18,0.11,0.33,0.21,0.46c0.11,0.13,0.29,0.25,0.53,0.35
		c0.24,0.1,0.55,0.15,0.94,0.15c0.2,0,0.39-0.02,0.58-0.05c0.19-0.03,0.36-0.08,0.53-0.14c0.16-0.06,0.31-0.13,0.43-0.21
		c0.13-0.08,0.23-0.16,0.31-0.25c0.01-0.01,0.03-0.05,0.06-0.1c0.02-0.05,0.05-0.1,0.07-0.17c0.03-0.06,0.05-0.12,0.06-0.19
		c0.02-0.06,0.03-0.12,0.03-0.16c0-0.18-0.1-0.32-0.3-0.43h0.3h0.02c0.23,0,0.43-0.05,0.6-0.16c0.17-0.11,0.33-0.27,0.48-0.49
		c0.03,0.14,0.1,0.26,0.23,0.36c0.13,0.09,0.27,0.17,0.44,0.22s0.33,0.09,0.49,0.12c0.17,0.02,0.3,0.03,0.4,0.03
		c0.06,0,0.14-0.05,0.24-0.15c0.1-0.1,0.19-0.22,0.26-0.35c0.08,0.14,0.2,0.24,0.34,0.31c0.15,0.07,0.33,0.11,0.56,0.11h0.04h1.38
		c0.16,0,0.33-0.01,0.5-0.02c0.17-0.01,0.33-0.04,0.49-0.07c0.16-0.03,0.3-0.07,0.43-0.11c0.13-0.04,0.25-0.09,0.34-0.14
		c0.08,0.1,0.2,0.18,0.35,0.25c0.15,0.06,0.34,0.09,0.58,0.09h0.08h0.28c0.26,0,0.52-0.03,0.78-0.08c0.27-0.06,0.53-0.16,0.8-0.31
		c0.08,0.07,0.15,0.12,0.23,0.17c0.08,0.05,0.17,0.09,0.26,0.12c0.1,0.03,0.21,0.06,0.33,0.07c0.12,0.02,0.26,0.02,0.43,0.02h0.63v0
		c0.09,0,0.19-0.01,0.29-0.02c0.1-0.01,0.2-0.03,0.3-0.05c0.1-0.02,0.19-0.05,0.27-0.09c0.08-0.04,0.15-0.08,0.21-0.12
		c0.04-0.04,0.08-0.09,0.13-0.17s0.09-0.16,0.13-0.26c0.04-0.09,0.07-0.18,0.1-0.28c0.02-0.09,0.04-0.17,0.04-0.25
		c0-0.23,0-0.47,0-0.72C69.34,108.77,69.33,108.51,69.33,108.26z M58.25,110.2c-0.14-0.02-0.26-0.04-0.38-0.08
		c-0.12-0.03-0.22-0.08-0.3-0.13c-0.08-0.06-0.12-0.13-0.12-0.21c0-0.02,0.02-0.06,0.06-0.12c0.04-0.06,0.09-0.12,0.15-0.19
		c0.06-0.07,0.13-0.13,0.22-0.18c0.08-0.05,0.17-0.08,0.26-0.08c0.07,0,0.13,0.04,0.18,0.12s0.09,0.17,0.13,0.28
		c0.04,0.11,0.07,0.22,0.1,0.33c0.03,0.11,0.05,0.21,0.07,0.29C58.51,110.23,58.39,110.22,58.25,110.2z M62.77,109.95
		c-0.13,0.03-0.27,0.06-0.43,0.08c-0.15,0.02-0.31,0.04-0.46,0.05c-0.16,0.01-0.31,0.02-0.45,0.02h-0.51
		c0.16-0.16,0.32-0.31,0.48-0.44c0.16-0.14,0.31-0.25,0.46-0.35c0.15-0.1,0.28-0.17,0.4-0.23c0.12-0.05,0.23-0.08,0.32-0.08
		c0.04,0,0.08,0.02,0.13,0.07c0.05,0.05,0.11,0.11,0.16,0.18c0.05,0.07,0.1,0.16,0.15,0.26c0.04,0.1,0.08,0.2,0.1,0.31
		C63.02,109.87,62.9,109.91,62.77,109.95z M66.16,109.78c-0.13-0.13-0.26-0.27-0.4-0.42c-0.14-0.15-0.28-0.28-0.44-0.42
		c0.12-0.04,0.26-0.06,0.43-0.08c0.17-0.02,0.32-0.03,0.44-0.03c0.2,0,0.37,0.02,0.51,0.07c0.14,0.05,0.21,0.1,0.21,0.18
		c0,0.05-0.07,0.14-0.2,0.28C66.59,109.5,66.4,109.64,66.16,109.78z"/>
	<path class="st0" d="M70.7,107.16c-0.02-0.28-0.04-0.53-0.08-0.76c-0.03-0.22-0.08-0.39-0.14-0.49l-0.58,0.57
		c0.03,0.08,0.06,0.18,0.08,0.3c0.02,0.12,0.04,0.25,0.05,0.38c0.01,0.14,0.03,0.34,0.05,0.61c0.02,0.27,0.03,0.58,0.05,0.93
		c0.01,0.35,0.02,0.73,0.03,1.14c0.01,0.41,0.02,0.82,0.02,1.24l0.47-0.11c0.03-0.16,0.05-0.31,0.07-0.46
		c0.01-0.15,0.02-0.3,0.02-0.45c0-0.16,0-0.33,0-0.51c0-0.19,0-0.4,0-0.65c0-0.27,0-0.56-0.01-0.86
		C70.73,107.73,70.71,107.44,70.7,107.16z"/>
	<path class="st0" d="M75.88,105.7l0.3,0.05c0.03-0.11,0.05-0.23,0.07-0.36c0.01-0.13,0.02-0.27,0.02-0.42
		c0-0.1-0.01-0.21-0.02-0.35c-0.01-0.14-0.04-0.24-0.08-0.33l-0.36,0.31c0.07,0.2,0.1,0.41,0.1,0.64c0,0.08,0,0.15-0.01,0.23
		C75.9,105.55,75.89,105.63,75.88,105.7z"/>
	<path class="st0" d="M75.48,105.94l-0.28-0.12c-0.03,0.11-0.05,0.22-0.07,0.34c-0.02,0.12-0.03,0.22-0.03,0.31
		c0,0.15,0.04,0.27,0.12,0.38c0.08,0.1,0.2,0.16,0.37,0.16c0.2,0,0.36-0.07,0.47-0.22c0.05,0.07,0.13,0.12,0.24,0.15
		c0.12,0.03,0.22,0.05,0.31,0.05c0.05,0,0.09-0.02,0.14-0.06c0.05-0.04,0.09-0.09,0.13-0.14c0.04-0.06,0.07-0.12,0.1-0.18
		c0.03-0.07,0.04-0.13,0.04-0.18c0-0.09,0-0.21,0-0.36c0-0.15-0.01-0.27-0.03-0.37l-0.36,0.22l0.05,0.57
		c-0.02,0-0.04,0.01-0.07,0.01c-0.08,0-0.16-0.01-0.24-0.04s-0.12-0.06-0.13-0.1c0-0.1,0.02-0.2,0.05-0.32l-0.29-0.04
		c-0.04,0.19-0.08,0.32-0.13,0.41c-0.05,0.08-0.12,0.12-0.21,0.12c-0.06,0-0.11-0.01-0.15-0.05c-0.04-0.03-0.06-0.09-0.06-0.18
		c0-0.04,0-0.09,0.01-0.15C75.46,106.09,75.47,106.02,75.48,105.94z"/>
	<path class="st0" d="M78.31,108.6c-0.04-0.25-0.08-0.51-0.15-0.81c-0.06-0.29-0.14-0.6-0.25-0.93l-0.58,0.64
		c0.14,0.46,0.26,0.91,0.34,1.33c0.08,0.42,0.13,0.79,0.15,1.1c-0.1,0.06-0.22,0.1-0.35,0.12c-0.13,0.02-0.26,0.03-0.38,0.03
		c-0.26,0-0.43-0.05-0.51-0.16c-0.09-0.1-0.13-0.29-0.14-0.55c0-0.08,0-0.18,0-0.29c0-0.11,0-0.23,0-0.34c0-0.12,0-0.23,0-0.34
		c0-0.11-0.01-0.21-0.01-0.29c0-0.16-0.01-0.32-0.03-0.47c-0.02-0.16-0.07-0.29-0.13-0.4l-0.59,0.57c0.03,0.08,0.06,0.17,0.08,0.26
		c0.02,0.09,0.04,0.2,0.05,0.33c0,0.07,0.01,0.16,0.01,0.28c0,0.12,0.01,0.26,0.01,0.4c0,0.15,0.01,0.29,0.01,0.44
		s0.01,0.29,0.01,0.4c-0.1,0.05-0.22,0.08-0.35,0.11c-0.13,0.03-0.27,0.04-0.42,0.04c-0.19,0-0.34-0.04-0.44-0.13
		c-0.1-0.09-0.15-0.25-0.15-0.49v-2.41l-0.6,0.43v0.42c-0.38,0.3-0.71,0.55-0.98,0.75c-0.27,0.2-0.45,0.36-0.54,0.49
		c-0.07,0.08-0.13,0.19-0.17,0.32s-0.06,0.29-0.06,0.46c0,0.26,0.08,0.45,0.24,0.57c0.16,0.12,0.38,0.18,0.67,0.18
		c0.38,0,0.63-0.05,0.76-0.15c0.05-0.04,0.1-0.1,0.15-0.2c0.05,0.13,0.11,0.23,0.18,0.31s0.16,0.15,0.26,0.2
		c0.1,0.05,0.2,0.08,0.3,0.1c0.1,0.02,0.21,0.03,0.32,0.03c0.2,0,0.39-0.02,0.57-0.07c0.18-0.05,0.32-0.12,0.43-0.21
		c0.02-0.02,0.04-0.05,0.07-0.08c0.02-0.03,0.05-0.07,0.07-0.11c0.09,0.15,0.2,0.27,0.34,0.35c0.14,0.08,0.33,0.12,0.56,0.12
		c0.2,0,0.39-0.02,0.54-0.07c0.16-0.05,0.29-0.11,0.39-0.19c0.05-0.04,0.09-0.09,0.15-0.18s0.1-0.17,0.14-0.26
		c0.04-0.09,0.07-0.19,0.1-0.29c0.03-0.1,0.04-0.19,0.04-0.26c0-0.12,0-0.27-0.01-0.46C78.37,109.07,78.35,108.85,78.31,108.6z
		 M73.88,109.76c-0.11,0.02-0.22,0.04-0.34,0.05c-0.12,0.01-0.24,0.02-0.37,0.02c-0.16,0-0.28-0.02-0.36-0.05s-0.11-0.1-0.11-0.21
		c0.05-0.07,0.17-0.17,0.37-0.31c0.19-0.14,0.47-0.34,0.82-0.59V109.76z"/>
	<path class="st0" d="M79.68,107.16c-0.02-0.28-0.04-0.53-0.08-0.76c-0.03-0.22-0.08-0.39-0.14-0.49l-0.58,0.57
		c0.03,0.08,0.06,0.18,0.08,0.3c0.02,0.12,0.04,0.25,0.05,0.38c0.01,0.14,0.03,0.34,0.05,0.61c0.02,0.27,0.03,0.58,0.05,0.93
		c0.01,0.35,0.02,0.73,0.03,1.14c0.01,0.41,0.02,0.82,0.02,1.24l0.47-0.11c0.03-0.16,0.05-0.31,0.07-0.46
		c0.01-0.15,0.02-0.3,0.02-0.45c0-0.16,0-0.33,0-0.51c0-0.19,0-0.4,0-0.65c0-0.27,0-0.56-0.01-0.86
		C79.7,107.73,79.69,107.44,79.68,107.16z"/>
	<path class="st0" d="M84.1,108.44c0.13,0.08,0.24,0.15,0.32,0.22l0.39-0.64c-0.09-0.09-0.19-0.17-0.31-0.25
		c-0.12-0.08-0.26-0.14-0.4-0.2l-0.37,0.66C83.85,108.29,83.97,108.36,84.1,108.44z"/>
	<path class="st0" d="M82.71,108.25c0.12,0.06,0.24,0.13,0.37,0.21s0.24,0.15,0.32,0.22l0.39-0.64c-0.09-0.09-0.19-0.17-0.31-0.25
		c-0.12-0.08-0.25-0.14-0.39-0.2L82.71,108.25z"/>
	<path class="st0" d="M87.42,111.74c-0.12-0.08-0.25-0.14-0.39-0.2l-0.38,0.66c0.12,0.06,0.24,0.13,0.37,0.21s0.24,0.15,0.32,0.21
		l0.39-0.64C87.65,111.9,87.55,111.81,87.42,111.74z"/>
	<path class="st0" d="M88.9,108.9c-0.04-0.15-0.08-0.29-0.13-0.44c-0.05-0.15-0.11-0.28-0.18-0.42l-0.61,0.51
		c0.09,0.16,0.17,0.36,0.26,0.61c0.08,0.25,0.14,0.5,0.18,0.74c-0.09,0.04-0.18,0.07-0.28,0.1c-0.1,0.03-0.2,0.04-0.3,0.06
		c-0.1,0.01-0.19,0.02-0.28,0.03c-0.08,0-0.15,0.01-0.2,0.01h-0.1c-0.11,0-0.21-0.01-0.3-0.02c-0.09-0.01-0.18-0.04-0.25-0.08
		c-0.07-0.04-0.14-0.1-0.18-0.18c-0.05-0.08-0.08-0.18-0.1-0.32l-0.12-1.03l-0.64,0.34c0.03,0.18,0.05,0.37,0.06,0.57
		c0.02,0.2,0.03,0.37,0.04,0.52c-0.13,0.05-0.29,0.1-0.48,0.13c-0.19,0.04-0.39,0.07-0.61,0.1c-0.22,0.03-0.44,0.05-0.67,0.06
		c-0.23,0.01-0.45,0.02-0.67,0.02c-0.17,0-0.34-0.01-0.51-0.02c-0.17-0.01-0.33-0.03-0.48-0.06c-0.15-0.03-0.27-0.06-0.38-0.11
		c-0.1-0.04-0.17-0.1-0.21-0.16c-0.03-0.04-0.04-0.09-0.05-0.16c-0.01-0.06-0.01-0.13-0.01-0.2c0-0.14,0.01-0.3,0.04-0.48
		c0.03-0.17,0.06-0.34,0.1-0.5l-0.44-0.15c-0.19,0.5-0.28,0.97-0.28,1.39c0,0.15,0.02,0.3,0.05,0.46c0.04,0.16,0.1,0.3,0.18,0.4
		c0.13,0.15,0.36,0.27,0.68,0.34c0.32,0.07,0.71,0.11,1.16,0.11c0.31,0,0.61-0.01,0.9-0.04c0.29-0.03,0.56-0.06,0.81-0.11
		c0.25-0.05,0.46-0.1,0.63-0.15c0.18-0.06,0.3-0.11,0.37-0.17c0.05-0.03,0.1-0.1,0.15-0.21c0.05,0.11,0.12,0.2,0.2,0.28
		c0.08,0.07,0.17,0.13,0.26,0.17c0.09,0.04,0.2,0.07,0.31,0.09c0.11,0.02,0.23,0.03,0.35,0.03h0.08h0.02c0.13,0,0.26-0.01,0.38-0.02
		c0.13-0.01,0.25-0.03,0.36-0.06c0.11-0.03,0.22-0.06,0.31-0.1c0.09-0.04,0.17-0.09,0.23-0.14c0.04-0.04,0.08-0.09,0.13-0.17
		c0.05-0.08,0.1-0.17,0.15-0.26c0.05-0.09,0.09-0.19,0.12-0.29c0.03-0.1,0.05-0.18,0.05-0.25c0-0.11-0.01-0.24-0.03-0.37
		C88.97,109.18,88.94,109.04,88.9,108.9z"/>
	<path class="st0" d="M88.05,111.51l-0.37,0.66c0.11,0.06,0.24,0.13,0.37,0.21s0.24,0.15,0.32,0.22l0.39-0.64
		c-0.09-0.09-0.19-0.17-0.31-0.25C88.33,111.64,88.19,111.57,88.05,111.51z"/>
	<path class="st0" d="M90.11,104.9c-0.17,0-0.32-0.01-0.45-0.03c-0.13-0.02-0.23-0.03-0.3-0.03c-0.08,0-0.15,0.01-0.2,0.03
		c-0.05,0.02-0.1,0.05-0.15,0.09c-0.03,0.03-0.07,0.06-0.1,0.12c-0.04,0.05-0.08,0.11-0.11,0.18c-0.04,0.06-0.07,0.13-0.09,0.2
		c-0.02,0.07-0.03,0.13-0.03,0.2c0,0.07,0.01,0.16,0.02,0.26c0.01,0.1,0.03,0.22,0.06,0.33l0.41-0.24
		c-0.03-0.09-0.05-0.18-0.06-0.29c-0.02-0.11-0.03-0.19-0.03-0.25c0.04-0.03,0.07-0.04,0.1-0.05c0.03,0,0.06-0.01,0.1-0.01
		c0.06,0,0.15,0.01,0.28,0.03c0.13,0.02,0.3,0.03,0.49,0.03c0.15,0,0.29-0.01,0.44-0.03c0.14-0.02,0.27-0.05,0.37-0.1l0.09-0.58
		c-0.13,0.05-0.26,0.08-0.39,0.1C90.41,104.89,90.27,104.9,90.11,104.9z"/>
	<path class="st0" d="M90.28,107.16c-0.02-0.28-0.04-0.53-0.08-0.76c-0.03-0.22-0.08-0.39-0.14-0.49l-0.58,0.57
		c0.03,0.08,0.06,0.18,0.08,0.3c0.02,0.12,0.04,0.25,0.05,0.38c0.01,0.14,0.03,0.34,0.05,0.61c0.02,0.27,0.03,0.58,0.05,0.93
		c0.01,0.35,0.02,0.73,0.03,1.14c0.01,0.41,0.02,0.82,0.02,1.24l0.47-0.11c0.03-0.16,0.05-0.31,0.07-0.46
		c0.01-0.15,0.02-0.3,0.02-0.45c0-0.16,0-0.33,0-0.51c0-0.19,0-0.4,0-0.65c0-0.27,0-0.56-0.01-0.86
		C90.31,107.73,90.3,107.44,90.28,107.16z"/>
	<path class="st0" d="M93.71,107.59l-0.38,0.66c0.12,0.06,0.24,0.13,0.37,0.21s0.24,0.15,0.32,0.22l0.39-0.64
		c-0.09-0.09-0.19-0.17-0.31-0.25C93.98,107.71,93.85,107.65,93.71,107.59z"/>
	<path class="st0" d="M96.67,110.63c0.03-0.03,0.07-0.08,0.12-0.16c0.05-0.08,0.1-0.16,0.14-0.25c0.05-0.09,0.08-0.19,0.11-0.28
		c0.03-0.09,0.05-0.18,0.05-0.24c0-0.11-0.01-0.24-0.03-0.37c-0.02-0.14-0.04-0.28-0.08-0.42c-0.04-0.15-0.08-0.29-0.13-0.44
		c-0.05-0.15-0.11-0.28-0.18-0.42l-0.61,0.51c0.09,0.16,0.17,0.36,0.26,0.61c0.08,0.25,0.14,0.5,0.18,0.74
		c-0.14,0.05-0.3,0.1-0.49,0.13c-0.19,0.04-0.39,0.07-0.61,0.1s-0.43,0.04-0.66,0.06c-0.22,0.01-0.44,0.02-0.66,0.02
		c-0.17,0-0.34-0.01-0.51-0.02c-0.17-0.01-0.33-0.03-0.48-0.06c-0.15-0.03-0.27-0.06-0.38-0.11c-0.1-0.04-0.17-0.1-0.21-0.16
		c-0.03-0.04-0.04-0.09-0.05-0.16c-0.01-0.06-0.01-0.13-0.01-0.2c0-0.14,0.01-0.3,0.04-0.48c0.03-0.17,0.06-0.34,0.1-0.5l-0.44-0.15
		c-0.19,0.5-0.28,0.97-0.28,1.39c0,0.15,0.02,0.3,0.05,0.46c0.04,0.16,0.1,0.3,0.18,0.4c0.13,0.15,0.36,0.27,0.68,0.34
		c0.32,0.07,0.71,0.11,1.16,0.11c0.31,0,0.61-0.01,0.9-0.04c0.29-0.03,0.56-0.06,0.81-0.11c0.25-0.05,0.46-0.1,0.63-0.15
		C96.47,110.74,96.6,110.68,96.67,110.63z"/>
	<path class="st0" d="M95.05,108.66l0.39-0.64c-0.09-0.09-0.19-0.17-0.31-0.25c-0.12-0.08-0.26-0.14-0.4-0.2l-0.37,0.66
		c0.11,0.06,0.23,0.13,0.37,0.21C94.86,108.52,94.97,108.59,95.05,108.66z"/>
	<path class="st0" d="M102.79,107.24c0.12,0.07,0.24,0.14,0.37,0.22s0.24,0.15,0.32,0.22l0.4-0.64c-0.09-0.09-0.19-0.17-0.31-0.25
		c-0.12-0.08-0.26-0.15-0.4-0.2L102.79,107.24z"/>
	<path class="st0" d="M108.08,108.62c-0.3-0.1-0.55-0.19-0.75-0.26c-0.21-0.07-0.38-0.12-0.51-0.15c-0.13-0.03-0.25-0.05-0.35-0.05
		c-0.07,0-0.15,0.02-0.23,0.06c-0.08,0.04-0.16,0.09-0.23,0.15c-0.07,0.06-0.14,0.13-0.2,0.2c-0.06,0.07-0.09,0.13-0.12,0.18
		c-0.02,0.05-0.04,0.11-0.06,0.18c-0.02,0.07-0.04,0.15-0.05,0.24s-0.03,0.17-0.04,0.26c-0.01,0.09-0.02,0.17-0.03,0.26l0.63-0.15
		c0-0.09,0.01-0.18,0.03-0.29c0.01-0.11,0.04-0.2,0.06-0.27c0.02-0.01,0.04-0.02,0.06-0.02c0.02,0,0.03,0,0.05,0
		c0.16,0,0.37,0.04,0.62,0.11c0.26,0.08,0.57,0.17,0.94,0.28c-0.13,0.07-0.27,0.15-0.42,0.23c-0.15,0.08-0.3,0.17-0.45,0.25
		c-0.16,0.09-0.32,0.15-0.47,0.2c-0.16,0.04-0.32,0.07-0.48,0.07h-1.05c-0.13,0-0.24,0-0.33-0.01c-0.08-0.01-0.16-0.02-0.22-0.05
		c0.04-0.07,0.06-0.14,0.08-0.2c0.02-0.06,0.03-0.11,0.03-0.15c0-0.18-0.03-0.36-0.08-0.54c-0.05-0.17-0.12-0.33-0.21-0.47
		c-0.08-0.14-0.18-0.25-0.29-0.33c-0.11-0.08-0.21-0.13-0.31-0.13c-0.15,0-0.32,0.05-0.53,0.15c-0.2,0.1-0.41,0.24-0.63,0.4
		c-0.22,0.17-0.44,0.35-0.66,0.56c-0.22,0.21-0.42,0.42-0.61,0.63c-0.07-0.04-0.12-0.08-0.14-0.13c-0.02-0.05-0.03-0.12-0.03-0.19
		c0-0.08,0.01-0.17,0.02-0.29c0.01-0.12,0.03-0.25,0.05-0.41l-0.53-0.03l-0.18,0.7c-0.04,0.15-0.11,0.26-0.22,0.35
		c-0.11,0.08-0.27,0.13-0.49,0.13h-0.31h-0.02c-0.18,0-0.33-0.04-0.43-0.09c-0.1-0.06-0.18-0.18-0.25-0.37l-0.31-0.84l-0.6,0.49
		c0.05,0.12,0.1,0.24,0.16,0.37c0.05,0.13,0.1,0.26,0.15,0.39c0.05,0.13,0.09,0.26,0.12,0.38s0.06,0.24,0.08,0.34
		c-0.03,0.13-0.09,0.27-0.18,0.41c-0.09,0.14-0.2,0.26-0.32,0.37c-0.12,0.11-0.25,0.2-0.38,0.28c-0.13,0.07-0.25,0.11-0.35,0.12
		c-0.09-0.01-0.2-0.01-0.34-0.03c-0.14-0.01-0.27-0.03-0.4-0.06l-0.15,0.51c0.1,0.05,0.2,0.09,0.3,0.14c0.1,0.05,0.2,0.09,0.3,0.12
		c0.09,0.03,0.18,0.06,0.25,0.08c0.07,0.02,0.13,0.03,0.16,0.03c0.13,0,0.29-0.05,0.47-0.14c0.18-0.09,0.35-0.22,0.52-0.39
		c0.17-0.17,0.32-0.37,0.44-0.61s0.21-0.5,0.24-0.79c0.07,0.06,0.15,0.1,0.23,0.12c0.08,0.02,0.17,0.03,0.27,0.03h0.02h0.26
		c0.22,0,0.41-0.03,0.57-0.1c0.16-0.07,0.3-0.19,0.43-0.37c0.05,0.09,0.12,0.17,0.19,0.23c0.08,0.06,0.17,0.11,0.29,0.14
		c0.12,0.04,0.26,0.06,0.43,0.08c0.17,0.02,0.38,0.02,0.62,0.02c0.16,0,0.33-0.01,0.5-0.02c0.17-0.01,0.33-0.04,0.49-0.07
		c0.16-0.03,0.3-0.07,0.44-0.11c0.14-0.04,0.25-0.09,0.34-0.14c0.08,0.1,0.2,0.18,0.35,0.25c0.15,0.06,0.35,0.09,0.57,0.09h0.08
		h0.96c0.21,0,0.42-0.04,0.62-0.12c0.2-0.08,0.39-0.18,0.56-0.3c0.21-0.15,0.4-0.28,0.56-0.39c0.16-0.11,0.3-0.19,0.43-0.26
		c0.13-0.06,0.25-0.11,0.36-0.14s0.23-0.05,0.36-0.05l0.29-0.76C108.73,108.84,108.37,108.72,108.08,108.62z M103.65,109.95
		c-0.13,0.03-0.28,0.06-0.43,0.08c-0.15,0.02-0.31,0.04-0.47,0.05c-0.16,0.01-0.31,0.02-0.45,0.02c-0.1,0-0.18,0-0.26,0
		s-0.15,0-0.22-0.02c0.15-0.16,0.31-0.3,0.46-0.43c0.16-0.13,0.31-0.24,0.45-0.34c0.14-0.1,0.28-0.17,0.4-0.23
		c0.12-0.05,0.23-0.08,0.32-0.08c0.04,0,0.08,0.02,0.13,0.07c0.05,0.05,0.11,0.11,0.16,0.18s0.1,0.16,0.15,0.26
		c0.05,0.1,0.08,0.2,0.11,0.31C103.9,109.87,103.78,109.91,103.65,109.95z"/>
</g>
</svg>
