<?xml version="1.0" encoding="utf-8"?>
<!-- Generator: Adobe Illustrator 26.3.0, SVG Export Plug-In . SVG Version: 6.00 Build 0)  -->
<svg version="1.1" id="Layer_1" xmlns="http://www.w3.org/2000/svg" xmlns:xlink="http://www.w3.org/1999/xlink" x="0px" y="0px"
	 viewBox="0 0 40 40" style="enable-background:new 0 0 40 40;" xml:space="preserve">
<style type="text/css">
	.st0{fill-rule:evenodd;clip-rule:evenodd;fill:#FFFFFF;}
</style>
<path class="st0" d="M32.87,21.7v7.01l-6.26,3.48c-2.63,1.47-5.95-0.34-5.95-3.26v-0.06l0.03-6.95l6.23-3.51
	c0.03,0,0.03-0.03,0.06-0.03C29.61,16.94,32.87,18.78,32.87,21.7z M26.26,17.38L20,20.82l-6.26-3.44c-0.03,0-0.03-0.03-0.06-0.03
	c-2.63-1.47-2.6-5.14,0.03-6.58l6.26-3.48l6.29,3.51c2.63,1.44,2.66,5.1,0.03,6.58C26.29,17.38,26.29,17.38,26.26,17.38z
	 M19.31,21.92l0.03,6.95v0.06c0,2.91-3.32,4.73-5.95,3.26l-6.26-3.48V21.7c0-2.91,3.26-4.76,5.89-3.32c0.03,0,0.03,0.03,0.06,0.03
	L19.31,21.92z"/>
</svg>
