<?xml version="1.0" encoding="utf-8"?>
<!-- Generator: Adobe Illustrator 26.3.0, SVG Export Plug-In . SVG Version: 6.00 Build 0)  -->
<svg version="1.1" id="Layer_1" xmlns="http://www.w3.org/2000/svg" xmlns:xlink="http://www.w3.org/1999/xlink" x="0px" y="0px"
	 viewBox="0 0 40 40" style="enable-background:new 0 0 40 40;" xml:space="preserve">
<style type="text/css">
	.st0{fill:#FFFFFF;}
</style>
<path class="st0" d="M27.8,6.63H12.2c-3.08,0-5.57,2.49-5.57,5.57V27.8c0,3.08,2.49,5.57,5.57,5.57H27.8c3.08,0,5.57-2.49,5.57-5.57
	V12.2C33.37,9.13,30.87,6.63,27.8,6.63z M15.54,27.8H12.2V15.54h3.34V27.8z M13.87,14.13c-1.08,0-1.95-0.88-1.95-1.96
	s0.87-1.96,1.95-1.96s1.95,0.88,1.95,1.96S14.95,14.13,13.87,14.13z M28.91,27.8h-3.34v-6.24c0-3.75-4.46-3.47-4.46,0v6.24h-3.34
	V15.54h3.34v1.97c1.55-2.88,7.8-3.09,7.8,2.76V27.8z"/>
</svg>
