<?xml version="1.0" encoding="utf-8"?>
<!-- Generator: Adobe Illustrator 26.3.0, SVG Export Plug-In . SVG Version: 6.00 Build 0)  -->
<svg version="1.1" id="Layer_1" xmlns="http://www.w3.org/2000/svg" xmlns:xlink="http://www.w3.org/1999/xlink" x="0px" y="0px"
	 viewBox="0 0 40 40" style="enable-background:new 0 0 40 40;" xml:space="preserve">
<style type="text/css">
	.st0{fill:#FFFFFF;}
</style>
<path class="st0" d="M33.06,12.82h-9.14V10.2h9.14V12.82z M35.32,25.88c-0.58,1.69-2.65,3.92-6.66,3.92c-4.02,0-7.27-2.26-7.27-7.41
	c0-5.11,3.04-7.73,7.14-7.73c4.03,0,6.48,2.33,7.02,5.78c0.1,0.66,0.14,1.55,0.12,2.8H25.19c0.17,4.19,4.55,4.33,5.99,2.65
	C31.18,25.88,35.32,25.88,35.32,25.88z M25.28,20.65h6.49c-0.14-2.02-1.48-2.9-3.24-2.9C26.61,17.75,25.55,18.76,25.28,20.65z
	 M12.77,29.78H4.33V10.23h9.08c7.15,0.11,7.29,7.11,3.55,9.02C21.48,20.9,21.63,29.78,12.77,29.78z M8.24,18.04h4.68
	c3.28,0,3.8-3.92-0.41-3.92H8.24C8.24,14.12,8.24,18.04,8.24,18.04z M12.67,21.96H8.24v3.94h4.36C16.6,25.9,16.35,21.96,12.67,21.96
	z"/>
</svg>
