<?xml version="1.0" encoding="utf-8"?>
<!-- Generator: Adobe Illustrator 26.3.0, SVG Export Plug-In . SVG Version: 6.00 Build 0)  -->
<svg version="1.1" id="Layer_1" xmlns="http://www.w3.org/2000/svg" xmlns:xlink="http://www.w3.org/1999/xlink" x="0px" y="0px"
	 viewBox="0 0 40 40" style="enable-background:new 0 0 40 40;" xml:space="preserve">
<style type="text/css">
	.st0{fill-rule:evenodd;clip-rule:evenodd;fill:#FFFFFF;}
</style>
<path id="telegram-1" class="st0" d="M27.1,30.88c0.36,0.25,0.82,0.32,1.23,0.16c0.41-0.16,0.71-0.51,0.81-0.93
	c0.97-4.54,3.31-16.04,4.19-20.18c0.07-0.31-0.04-0.64-0.29-0.84c-0.24-0.21-0.58-0.27-0.89-0.16c-4.66,1.73-19.03,7.12-24.9,9.29
	c-0.37,0.14-0.62,0.5-0.6,0.89c0.01,0.39,0.28,0.74,0.66,0.85c2.63,0.79,6.09,1.88,6.09,1.88s1.62,4.88,2.46,7.36
	c0.11,0.31,0.35,0.56,0.67,0.64c0.32,0.08,0.66,0,0.9-0.23c1.35-1.28,3.44-3.25,3.44-3.25S24.85,29.27,27.1,30.88z M14.85,21.23
	l1.87,6.16l0.41-3.9c0,0,7.22-6.51,11.33-10.22c0.12-0.11,0.14-0.29,0.04-0.42c-0.1-0.13-0.28-0.16-0.42-0.07
	C23.32,15.82,14.85,21.23,14.85,21.23z"/>
</svg>
